<?xml version="1.0" standalone="no"?>
<!DOCTYPE svg PUBLIC "-//W3C//DTD SVG 20010904//EN"
 "http://www.w3.org/TR/2001/REC-SVG-20010904/DTD/svg10.dtd">
<svg version="1.0" xmlns="http://www.w3.org/2000/svg"
 width="1024.000000pt" height="1024.000000pt" viewBox="0 0 1024.000000 1024.000000"
 preserveAspectRatio="xMidYMid meet">

<g transform="translate(0.000000,1024.000000) scale(0.100000,-0.100000)"
fill="#000000" stroke="none">
<path d="M8035 9553 c-91 -19 -163 -54 -252 -121 -93 -69 -146 -129 -241 -272
-41 -63 -79 -119 -84 -124 -4 -6 -99 -18 -210 -27 -467 -40 -1003 -104 -1466
-174 -674 -102 -1098 -191 -2427 -508 -530 -127 -1495 -370 -1495 -377 0 -4
10 -10 22 -13 31 -7 562 -159 566 -161 1 -2 -40 -34 -90 -71 -168 -125 -362
-342 -444 -500 l-29 -55 -115 -39 c-149 -51 -519 -187 -525 -193 -5 -4 243
-77 428 -125 76 -20 74 -16 52 -118 -72 -347 -18 -742 149 -1074 244 -484 700
-817 1228 -895 55 -9 103 -17 105 -20 3 -2 -34 -44 -82 -93 -48 -48 -185 -189
-304 -313 -119 -124 -302 -313 -406 -420 -105 -107 -265 -271 -355 -365 -91
-93 -250 -258 -355 -365 -105 -107 -271 -278 -370 -380 -99 -102 -257 -264
-351 -360 -384 -393 -382 -390 -410 -500 -53 -206 65 -493 272 -664 142 -117
287 -169 474 -170 104 -1 122 2 190 28 74 28 79 33 305 261 127 128 251 251
276 274 l46 41 -13 -68 c-94 -498 59 -820 426 -898 143 -31 244 -18 670 85
206 50 479 116 605 146 127 30 336 79 465 110 517 123 747 177 785 185 64 14
367 89 370 92 1 2 27 125 59 273 31 149 67 314 78 368 l22 97 41 11 c22 6 141
36 265 66 260 62 370 98 494 160 84 42 88 43 83 21 -3 -13 -20 -86 -36 -163
-17 -77 -42 -191 -56 -252 -82 -367 -83 -369 -67 -359 8 5 591 146 1122 272
107 26 348 84 535 129 187 46 428 104 535 130 l196 47 108 486 c59 268 119
534 132 592 38 167 64 293 61 296 -1 2 -56 -10 -122 -27 -396 -96 -866 -209
-874 -209 -6 0 -6 13 0 34 5 18 36 154 68 302 33 148 101 454 151 679 50 226
121 544 157 708 36 163 63 300 60 303 -4 4 -275 -59 -604 -139 -329 -81 -647
-158 -708 -172 -196 -46 -182 -39 -194 -93 -5 -26 -13 -62 -16 -80 -5 -26 -11
-32 -23 -26 -196 82 -346 84 -632 10 -52 -14 -95 -24 -97 -22 -1 1 62 47 140
101 78 55 248 178 377 275 1033 773 1717 1378 2635 2330 238 248 290 310 340
415 64 133 79 205 79 365 0 146 -11 202 -64 331 -122 301 -460 628 -858 829
-294 149 -570 202 -797 153z m331 -348 c258 -59 540 -222 758 -439 181 -180
256 -305 276 -461 15 -120 -10 -254 -62 -328 -40 -57 -659 -697 -894 -923
-1016 -980 -2395 -2040 -3246 -2492 l-97 -52 26 48 c14 26 48 87 76 135 27 49
47 90 44 93 -4 5 -64 -9 -526 -122 -122 -30 -225 -54 -228 -54 -3 0 28 35 69
78 393 410 1014 1098 1917 2126 248 282 332 378 576 651 145 162 378 417 473
517 45 47 82 89 82 92 0 11 -609 -444 -797 -596 -68 -54 -123 -96 -123 -93 0
3 61 87 135 188 125 169 455 626 655 907 487 686 485 684 630 732 61 20 147
18 256 -7z m-1156 -561 c0 -3 -46 -72 -102 -153 -56 -80 -133 -191 -171 -246
-38 -55 -76 -108 -85 -117 -16 -16 -17 -14 -14 41 l4 59 -84 6 c-46 3 -319 9
-608 12 -421 5 -580 3 -802 -10 -501 -30 -1049 -92 -1507 -171 -212 -37 -87 0
319 94 140 33 309 71 375 85 66 14 171 37 233 50 553 124 1487 266 2162 331
291 27 280 27 280 19z m-830 -752 c0 -4 -10 -18 -23 -32 -12 -14 -94 -110
-182 -215 -215 -256 -435 -518 -446 -530 -5 -5 9 33 31 85 56 131 167 410 174
440 5 16 -79 -62 -240 -225 -401 -406 -468 -481 -569 -642 -49 -79 -92 -143
-96 -143 -3 0 -12 33 -19 73 -29 166 -112 378 -211 542 -114 190 -299 381
-467 484 -28 18 -52 36 -52 40 0 19 760 97 1175 120 194 10 925 13 925 3z
m-2187 -510 c19 -16 32 -33 29 -39 -18 -26 -244 -197 -382 -288 -363 -240
-743 -426 -1115 -545 -211 -67 -481 -120 -614 -120 -57 0 -61 2 -61 23 0 37
12 44 95 57 587 86 1299 411 1910 871 50 38 93 68 96 69 3 0 22 -13 42 -28z
m122 -107 c14 -20 25 -40 23 -45 -5 -14 -186 -167 -315 -265 -296 -226 -691
-435 -1063 -563 -304 -105 -689 -176 -849 -157 l-61 7 0 34 c0 19 2 34 4 34
21 0 187 26 296 46 424 78 909 266 1313 508 156 94 408 270 518 365 46 39 89
71 95 71 7 0 24 -16 39 -35z m1825 -51 c-9 -23 -90 -339 -90 -350 0 -2 50 21
111 52 l111 55 -23 -33 c-63 -90 -594 -704 -799 -923 -36 -38 -88 -95 -115
-125 -56 -62 -331 -359 -496 -535 -36 -38 -94 -101 -130 -140 -35 -38 -98
-106 -140 -150 -42 -44 -105 -111 -140 -150 -82 -91 -547 -590 -630 -677 l-64
-67 -260 -65 c-226 -57 -274 -72 -370 -120 -60 -30 -111 -53 -113 -52 -1 2 59
68 135 147 75 79 216 227 312 329 97 102 227 239 291 305 342 357 553 579 796
835 464 490 660 697 918 965 138 143 352 367 475 498 123 131 226 236 228 234
2 -2 -1 -17 -7 -33z m-1615 -237 c14 -24 25 -48 25 -54 0 -13 -245 -236 -362
-329 -435 -348 -1040 -623 -1575 -715 -151 -26 -423 -33 -460 -12 -20 12 -40
49 -31 59 3 2 60 8 129 14 384 31 854 167 1231 356 358 179 721 429 933 641
44 44 81 81 82 82 1 0 14 -19 28 -42z m79 -173 l15 -46 -92 -88 c-228 -217
-333 -298 -562 -435 -379 -228 -781 -388 -1165 -465 -248 -49 -400 -60 -535
-37 -62 11 -71 16 -88 45 l-19 32 114 -6 c128 -8 261 5 448 42 639 126 1399
537 1833 991 22 22 35 13 51 -33z m3416 -1993 c0 -4 -13 -69 -30 -142 -16 -74
-50 -226 -74 -339 -25 -113 -98 -441 -162 -730 -64 -289 -120 -543 -125 -565
-4 -22 -19 -88 -32 -147 -13 -59 -22 -110 -20 -112 2 -2 23 2 46 9 23 7 204
52 402 99 391 95 376 89 509 198 32 27 60 47 63 45 4 -5 -154 -737 -161 -744
-2 -3 -152 -40 -333 -83 -180 -43 -386 -92 -458 -110 -204 -49 -877 -210 -880
-210 -1 0 12 64 30 143 18 78 49 219 69 312 93 430 152 696 310 1412 75 336
136 619 136 628 0 9 -25 46 -56 81 -31 36 -55 66 -53 68 2 1 110 28 239 59
129 32 307 75 395 96 178 43 185 45 185 32z m-1302 -346 c62 -19 105 -54 135
-109 36 -67 29 -177 -27 -436 -105 -482 -196 -880 -219 -953 -49 -152 -151
-285 -278 -363 -90 -54 -188 -86 -499 -159 -157 -37 -334 -79 -395 -94 l-110
-27 -52 -239 c-28 -132 -62 -285 -73 -340 -40 -184 -34 -171 -88 -182 -100
-21 -746 -175 -754 -179 -24 -15 -2 18 38 56 25 25 63 68 84 95 38 49 40 56
114 400 136 633 315 1465 374 1740 l59 270 -58 70 c-48 58 -55 71 -41 76 21 8
1178 285 1552 372 85 20 174 21 238 2z m-2135 -447 c-8 -35 -27 -126 -43 -203
-16 -77 -44 -210 -63 -295 -19 -85 -37 -172 -41 -192 -4 -21 -9 -38 -11 -38
-3 0 -36 23 -75 52 l-71 51 -192 -46 c-106 -26 -259 -62 -341 -82 -170 -40
-222 -65 -266 -130 -28 -41 -40 -89 -125 -488 -51 -243 -115 -540 -141 -661
-67 -308 -68 -306 222 -236 93 23 253 61 356 85 214 50 224 55 370 188 56 51
99 84 95 74 -4 -10 -20 -82 -36 -160 -53 -254 -131 -610 -134 -613 -2 -2 -70
-19 -152 -38 -205 -48 -681 -160 -1030 -243 -74 -18 -139 -27 -200 -27 -81 -1
-95 2 -141 28 -129 71 -157 207 -100 486 62 308 280 1276 341 1520 75 298 140
426 274 537 103 85 198 125 416 177 105 25 352 84 550 131 444 105 451 107
500 150 22 19 43 35 47 35 3 0 0 -28 -9 -62z m-2008 -578 c-19 -45 -37 -85
-40 -89 -5 -9 -95 11 -95 20 0 9 163 160 167 155 2 -2 -12 -40 -32 -86z m-131
-182 c55 -11 57 -12 52 -37 -3 -14 -11 -52 -18 -83 l-11 -57 -68 34 c-37 19
-86 37 -108 41 -23 4 -41 9 -41 12 0 4 21 28 47 54 51 52 60 54 147 36z m-124
-229 c38 -17 79 -42 90 -55 l22 -23 -22 -85 -23 -85 -55 45 c-64 52 -142 94
-225 120 l-58 18 53 54 c52 53 54 54 101 48 27 -3 80 -19 117 -37z m-245 -189
c107 -37 218 -118 252 -184 24 -46 12 -111 -26 -150 -31 -30 -32 -30 -43 -11
-6 11 -39 49 -72 84 -67 70 -173 137 -262 166 -33 11 -61 21 -63 22 -3 2 15
24 39 48 52 53 82 57 175 25z m-230 -186 c116 -30 272 -140 309 -218 26 -55
21 -82 -27 -133 l-44 -46 -30 44 c-40 57 -107 119 -184 169 -64 41 -156 80
-189 80 -11 0 -20 3 -20 7 0 12 103 113 115 113 6 0 38 -7 70 -16z m-103 -240
c101 -53 209 -161 227 -227 l14 -48 -44 -45 c-24 -24 -46 -44 -49 -44 -3 0
-18 20 -33 45 -65 102 -236 227 -342 250 -61 13 -61 14 -9 66 l49 51 57 -5
c39 -3 78 -17 130 -43z m-209 -192 c88 -43 166 -109 209 -174 51 -76 55 -108
22 -147 -50 -59 -56 -58 -112 18 -75 102 -241 218 -339 237 -18 3 -33 10 -33
15 0 5 17 27 37 50 37 40 38 41 94 37 37 -3 79 -15 122 -36z m-220 -184 c158
-66 287 -196 287 -287 0 -21 -33 -61 -145 -178 -80 -83 -145 -156 -145 -162 0
-15 -17 -14 -81 5 -169 50 -293 176 -315 319 -7 53 -10 49 149 218 l111 119
43 -6 c24 -3 67 -16 96 -28z"/>
<path d="M8975 8478 c-182 -334 -541 -801 -1039 -1350 -54 -60 -94 -108 -89
-108 16 0 819 816 958 973 148 167 173 206 199 302 15 54 35 275 25 275 -2 0
-26 -42 -54 -92z"/>
<path d="M5822 3756 c-137 -33 -216 -56 -222 -66 -4 -8 -18 -64 -30 -125 -12
-60 -46 -220 -76 -354 -30 -134 -54 -249 -54 -257 0 -11 8 -11 48 0 26 8 81
21 122 31 309 70 355 88 395 148 7 12 43 154 79 315 70 315 71 333 21 352 -38
15 -50 13 -283 -44z"/>
</g>
</svg>
