<?xml version="1.0" encoding="UTF-8"?>
<svg version="1.1" xmlns="http://www.w3.org/2000/svg" width="427" height="328">
<path d="M0 0 C140.91 0 281.82 0 427 0 C427 108.24 427 216.48 427 328 C286.09 328 145.18 328 0 328 C0 219.76 0 111.52 0 0 Z " fill="#FEFDFD" transform="translate(0,0)"/>
<path d="M0 0 C0 3.96130371 -1.34877125 4.82914401 -4 7.6875 C-5.11375 8.89986328 -5.11375 8.89986328 -6.25 10.13671875 C-6.8275 10.75160156 -7.405 11.36648437 -8 12 C-4.05986951 11.60621379 -0.12375247 11.18070106 3.8125 10.75 C4.91271484 10.64042969 6.01292969 10.53085937 7.14648438 10.41796875 C14.58658147 9.58397556 21.09369509 7.89202061 28 5 C26.75023244 8.65316671 26.32901247 9.78065836 23 12 C28.17836782 11.19353288 32.84011553 10.28806363 37.5 7.8125 C38.655 7.214375 39.81 6.61625 41 6 C41.99 6.495 41.99 6.495 43 7 C39.23594399 12.22196502 35.5860005 15.4911251 29.734375 18.2734375 C28.65897461 18.79083496 27.58357422 19.30823242 26.47558594 19.84130859 C25.65864258 20.22367676 24.84169922 20.60604492 24 21 C24.79172607 21.08564209 25.58345215 21.17128418 26.39916992 21.25952148 C29.99553585 21.64986358 33.5915171 22.04364553 37.1875 22.4375 C38.43337891 22.57220703 39.67925781 22.70691406 40.96289062 22.84570312 C42.16494141 22.97783203 43.36699219 23.10996094 44.60546875 23.24609375 C45.71043701 23.36654053 46.81540527 23.4869873 47.95385742 23.61108398 C50.67453863 23.95844675 53.31557045 24.44681142 56 25 C65.34243656 25.74624685 74.17849951 24.47505034 82 19 C78.60238768 27.03072003 72.57482037 31.21788689 65 35 C62.35112674 36.05893543 59.68471312 37.03281855 57 38 C80.20848506 45.97788694 80.20848506 45.97788694 103.94921875 42.55859375 C106.36098219 41.90167533 107.63525186 42.32422549 110 43 C107.02953196 45.09594848 104.04714686 47.17430367 101.0625 49.25 C100.23169922 49.83652344 99.40089844 50.42304687 98.54492188 51.02734375 C91.05219305 56.21686021 84.09381142 60.09341329 74.9375 61.25 C73.81214844 61.39953125 72.68679688 61.5490625 71.52734375 61.703125 C70.69332031 61.80109375 69.85929688 61.8990625 69 62 C69.57105469 62.31710938 70.14210938 62.63421875 70.73046875 62.9609375 C75.88709863 65.92866408 80.64973706 69.18487675 85.3125 72.875 C97.41432994 82.39383776 108.40752352 89.16878342 124 90 C120.50516856 94.4065266 116.3627476 95.90638833 111 97 C107.31523039 97.22847516 103.6857763 97.17011275 100 97 C99.34 97 98.68 97 98 97 C106.43161899 102.77191205 106.43161899 102.77191205 116 106 C116 106.33 116 106.66 116 107 C113.62468606 107.0543965 111.25064117 107.09385864 108.875 107.125 C108.20984375 107.14175781 107.5446875 107.15851563 106.859375 107.17578125 C102.50483944 107.21847278 99.04399886 106.59996217 95 105 C95.60585938 106.01835937 96.21171875 107.03671875 96.8359375 108.0859375 C97.68281256 109.51531651 98.52912067 110.94503151 99.375 112.375 C99.82472168 113.13433838 100.27444336 113.89367676 100.73779297 114.67602539 C103.54590854 119.44532575 106.24545293 124.25866302 108.87451172 129.12866211 C114.2525269 139.0583555 119.83163645 148.12372734 129 155 C125.3837907 156.28538245 123.00738348 155.69219623 119.375 154.625 C118.41335938 154.34914062 117.45171875 154.07328125 116.4609375 153.7890625 C114 153 114 153 112 152 C114.38599506 161.90387892 117.01853633 171.69625364 119.94921875 181.453125 C120.69296667 183.96361982 121.4025223 186.45251268 122 189 C117.12927217 184.43369266 113.10843602 179.25023461 109 174 C108.67 174.33 108.34 174.66 108 175 C111.304619 184.01001019 111.304619 184.01001019 115.375 192.6875 C115.91125 193.780625 116.4475 194.87375 117 196 C116.67 196.66 116.34 197.32 116 198 C109.68329023 188.07694174 103.40691061 178.00386297 103 166 C108.01113235 167.4317521 109.94469549 169.98445693 113 174 C111.49518788 164.29792185 109.7786347 153.68260859 105 145 C105.763125 145.309375 106.52625 145.61875 107.3125 145.9375 C109.18789677 146.67893593 111.08684652 147.36228217 113 148 C112.60844727 147.26233398 112.60844727 147.26233398 112.20898438 146.50976562 C110.97072089 144.17419684 109.73512516 141.83722997 108.5 139.5 C108.04512207 138.64083984 107.59024414 137.78167969 107.12158203 136.89648438 C104.61111831 132.13389657 102.17774372 127.3478842 99.84130859 122.49780273 C94.87835646 112.2371061 88.57284436 103.5194499 81 95 C82.01126953 95.41378906 82.01126953 95.41378906 83.04296875 95.8359375 C86.4415473 97.17381915 89.87071093 98.40268239 93.3125 99.625 C93.95767578 99.85445313 94.60285156 100.08390625 95.26757812 100.3203125 C96.84474179 100.8810818 98.42232784 101.44066291 100 102 C99.22136597 101.44856323 99.22136597 101.44856323 98.42700195 100.88598633 C96.05196166 99.19974746 93.68222251 97.50620298 91.3125 95.8125 C90.49587891 95.23435547 89.67925781 94.65621094 88.83789062 94.06054688 C84.52348318 90.96884599 80.60617729 87.89995955 77 84 C81.01930438 85.33976813 84.02069758 87.33931015 87.3515625 89.87890625 C90.86347189 92.26733752 94.08288741 92.10663562 98.1875 92.0625 C99.27417969 92.05347656 100.36085938 92.04445313 101.48046875 92.03515625 C102.31191406 92.02355469 103.14335937 92.01195312 104 92 C103.41734375 91.69449219 102.8346875 91.38898438 102.234375 91.07421875 C97.01178566 88.1590942 92.78695713 84.99168447 88.5 80.8125 C77.70772667 70.4445017 63.99163573 63.09236212 50 58 C48.97777344 57.61199219 47.95554687 57.22398438 46.90234375 56.82421875 C35.32349811 52.95522416 23.10270403 52.70135811 11 52 C11.33 51.34 11.66 50.68 12 50 C27.31806096 49.56841181 40.69722197 50.11918355 55.1875 55.6875 C66.51590419 59.88791953 75.89515658 58.3121405 87 54 C89.01284667 53.02611691 91.01685035 52.03301377 93 51 C92.30519531 50.93683594 91.61039062 50.87367187 90.89453125 50.80859375 C83.49720424 49.91791433 76.94600627 48.08758761 69.9375 45.625 C47.38793564 37.83043879 26.09469363 34.95272216 3 42 C1.66921346 42.34335999 0.33717339 42.68242132 -1 43 C1.1909661 40.57404069 3.19886706 39.24403511 6.1875 37.9375 C7.26064453 37.45603516 7.26064453 37.45603516 8.35546875 36.96484375 C15.79617396 34.25014037 22.32325332 33.71215031 30.1875 33.8125 C31.15880859 33.81314453 32.13011719 33.81378906 33.13085938 33.81445312 C37.58919227 33.84195484 41.63017864 34.08212375 46 35 C51.42549322 35.35452464 55.37219213 34.42964109 60.4375 32.5 C61.07365234 32.26152344 61.70980469 32.02304688 62.36523438 31.77734375 C63.91402732 31.19509076 65.45760253 30.59898931 67 30 C65.58074219 30.05220703 65.58074219 30.05220703 64.1328125 30.10546875 C56.85961923 30.28468501 50.12918831 29.97008372 43 28.5 C35.01037992 26.95896998 27.03836523 26.60584114 18.9230957 26.52319336 C17.54178699 26.50801414 16.16053882 26.48441933 14.77954102 26.45141602 C-2.97769551 26.06704144 -18.08762619 31.79129779 -31 44 C-31 40.50413558 -30.06723 39.24031058 -27.7890625 36.67578125 C-16.92360169 26.49830813 -3.13127099 23.09191609 11.13989258 21.16967773 C17.68037739 20.22482975 23.22875206 18.28118141 29 15 C27.83082031 15.144375 26.66164063 15.28875 25.45703125 15.4375 C23.90887301 15.62515554 22.36069487 15.8126469 20.8125 16 C19.65911133 16.14308594 19.65911133 16.14308594 18.48242188 16.2890625 C14.63071189 16.75192894 10.88829149 17.12467468 7 17 C9.1385485 14.8614515 10.13275314 14.57344937 13 14 C-9.9603549 15.44771173 -26.80396143 18.67426704 -44 35 C-45.97407988 36.70220062 -47.98010057 38.35218731 -50 40 C-44.10704904 27.06425399 -31.44705378 19.71461823 -18.78125 14.734375 C-16.19751214 13.78878022 -13.60901401 12.87309524 -11 12 C-16.62439534 13.31185852 -22.04103657 15.32204885 -27.5 17.1875 C-28.62148437 17.56197266 -29.74296875 17.93644531 -30.8984375 18.32226562 C-43.73289504 22.71651119 -53.21400621 26.31932877 -60.25 38.3125 C-60.77078125 39.19550781 -61.2915625 40.07851562 -61.828125 40.98828125 C-62.21484375 41.65214844 -62.6015625 42.31601563 -63 43 C-64 41 -64 41 -63.3203125 38.8984375 C-60.04193246 31.97741297 -55.98674247 27.6999745 -50 23 C-49.071875 22.236875 -48.14375 21.47375 -47.1875 20.6875 C-46.465625 20.130625 -45.74375 19.57375 -45 19 C-44.40316406 18.525625 -43.80632812 18.05125 -43.19140625 17.5625 C-40.8041045 15.86032407 -38.38478621 14.59522487 -35.75 13.3125 C-34.41195312 12.65701172 -34.41195312 12.65701172 -33.046875 11.98828125 C-32.03367188 11.49908203 -32.03367188 11.49908203 -31 11 C-42.62478111 14.6348379 -52.58174558 18.86171896 -60 29 C-61.04449911 25.86650268 -60.93423645 25.01031744 -60 22 C-64.53853982 27.18690266 -68.13271063 33.06168504 -69 40 C-70.485 39.01 -70.485 39.01 -72 38 C-72.16371094 38.65226562 -72.32742187 39.30453125 -72.49609375 39.9765625 C-73.83176934 43.73418927 -75.10587358 46.95112484 -78.74414062 48.96582031 C-82.33465632 50.42804482 -86.03210016 51.51347304 -89.73828125 52.640625 C-96.32552391 54.64600662 -102.31356966 57.2595507 -106 63.25 C-106.33 64.1575 -106.66 65.065 -107 66 C-110.04790391 69.04790391 -113.58998441 68.74391173 -117.76171875 69.2421875 C-121.05331522 70.01247666 -123.33081066 71.35458172 -126.1940918 73.09960938 C-129.20654861 74.60156162 -132.23959529 74.61466814 -135.5625 74.8125 C-145.58430189 75.69898975 -155.1009825 79.3976846 -162 87 C-160.65832675 90.10843109 -159.32935298 91.74240172 -156.625 93.75 C-152.65093824 96.98566615 -151.01409274 100.32730485 -149 105 C-147.948125 104.95875 -146.89625 104.9175 -145.8125 104.875 C-142.21013123 104.99311045 -140.22436979 105.56694676 -137 107 C-134.06406867 107 -131.23443584 106.77500573 -128.3125 106.5 C-127.31863281 106.4071875 -126.32476562 106.314375 -125.30078125 106.21875 C-124.16189453 106.11046875 -124.16189453 106.11046875 -123 106 C-125.97 105.01 -125.97 105.01 -129 104 C-129 103.67 -129 103.34 -129 103 C-118.21290323 102.38064516 -118.21290323 102.38064516 -114.0625 104.5 C-110.17089881 109.21709236 -106.99779074 114.18824511 -105 120 C-104.34 120 -103.68 120 -103 120 C-102.664061 121.4577353 -102.33133376 122.91621106 -102 124.375 C-101.7215625 125.59316406 -101.7215625 125.59316406 -101.4375 126.8359375 C-101 129 -101 129 -101 131 C-100.34 131 -99.68 131 -99 131 C-98.01 135.455 -98.01 135.455 -97 140 C-96.67 140 -96.34 140 -96 140 C-94.91599611 143.64743446 -93.93185465 147.31081133 -93 151 C-92.77957031 151.80953125 -92.55914062 152.6190625 -92.33203125 153.453125 C-91.60766871 156.99445299 -91.38858741 159.0312001 -93.36328125 162.16015625 C-95.15619893 164.21414117 -97.04630373 166.0999994 -99 168 C-99.7425 168.99 -100.485 169.98 -101.25 171 C-102.11625 171.99 -102.11625 171.99 -103 173 C-103.99 173 -104.98 173 -106 173 C-106.3403125 173.99 -106.3403125 173.99 -106.6875 175 C-109.22158425 180.79219256 -112.30095158 186.89142813 -118 190 C-123.05847998 190.64756052 -128.0244748 190.02062055 -133 189 C-133.05447047 190.41623216 -133.09300508 191.83308191 -133.125 193.25 C-133.14820313 194.03890625 -133.17140625 194.8278125 -133.1953125 195.640625 C-132.9828378 198.20731941 -132.28654105 199.7916067 -131 202 C-130.67 201.01 -130.34 200.02 -130 199 C-127.69 201.31 -125.38 203.62 -123 206 C-123.495 203.89625 -123.495 203.89625 -124 201.75 C-124.73516599 198.62554456 -125 196.27217135 -125 193 C-124.01 193.33 -123.02 193.66 -122 194 C-120.83203125 196.94140625 -120.83203125 196.94140625 -119.8125 200.5625 C-119.46832031 201.76003906 -119.12414062 202.95757812 -118.76953125 204.19140625 C-118.51558594 205.11824219 -118.26164062 206.04507813 -118 207 C-118 205.02 -118 203.04 -118 201 C-117.34 201 -116.68 201 -116 201 C-115.67 199.68 -115.34 198.36 -115 197 C-114.34 197 -113.68 197 -113 197 C-111.64721885 198.98689731 -110.31431695 200.98745218 -109 203 C-108.34 203.33 -107.68 203.66 -107 204 C-107 198.39 -107 192.78 -107 187 C-106.34 187 -105.68 187 -105 187 C-104.34 189.31 -103.68 191.62 -103 194 C-102.80664062 193.28972656 -102.61328125 192.57945312 -102.4140625 191.84765625 C-102.15367187 190.92855469 -101.89328125 190.00945312 -101.625 189.0625 C-101.36976563 188.14597656 -101.11453125 187.22945312 -100.8515625 186.28515625 C-100 184 -100 184 -98 183 C-97.505 185.475 -97.505 185.475 -97 188 C-96.74605469 187.43410156 -96.49210937 186.86820313 -96.23046875 186.28515625 C-95.88628906 185.55167969 -95.54210937 184.81820312 -95.1875 184.0625 C-94.85105469 183.33160156 -94.51460938 182.60070312 -94.16796875 181.84765625 C-93 180 -93 180 -90 179 C-90.05220703 177.25976562 -90.05220703 177.25976562 -90.10546875 175.484375 C-90.57722872 152.92215223 -90.57722872 152.92215223 -84 145 C-84.144375 145.63421875 -84.28875 146.2684375 -84.4375 146.921875 C-87.56146408 162.6284722 -86.88693551 176.2203158 -81.57617188 191.30078125 C-79.23159951 197.97342458 -77.89470216 203.86983204 -78 211 C-79.90318884 208.14521674 -80.4619099 206.58058692 -81.125 203.3125 C-81.29257813 202.50425781 -81.46015625 201.69601563 -81.6328125 200.86328125 C-81.75398438 200.24839844 -81.87515625 199.63351563 -82 199 C-82.66 199 -83.32 199 -84 199 C-83.85834107 201.39614575 -83.71181159 203.79182897 -83.5625 206.1875 C-83.52318359 206.86103516 -83.48386719 207.53457031 -83.44335938 208.22851562 C-83.26454071 211.04834837 -83.04422357 213.78416257 -82.4765625 216.5546875 C-81.86196288 219.70828884 -81.8299337 222.72621186 -81.8125 225.9375 C-81.79832031 227.12214844 -81.78414063 228.30679688 -81.76953125 229.52734375 C-82.00117301 233.01767466 -82.74469874 235.7501094 -84 239 C-85.09116781 235.51502992 -85.03653381 232.38411037 -84.9375 228.75 C-84.89277324 224.26241509 -85.25035743 220.67567533 -86.55078125 216.359375 C-87.209929 212.89741636 -87.19069303 209.44863836 -87.1875 205.9375 C-87.18814453 205.26420654 -87.18878906 204.59091309 -87.18945312 203.8972168 C-87.15378646 200.58548629 -86.91457148 197.48953824 -86.3671875 194.21875 C-85.66034336 190.81695195 -85.66034336 190.81695195 -87.9375 187.5625 C-88.618125 186.716875 -89.29875 185.87125 -90 185 C-90.99 185.33 -91.98 185.66 -93 186 C-93.80563638 188.10584438 -93.80563638 188.10584438 -94.1875 190.5625 C-94.42533203 191.80193359 -94.42533203 191.80193359 -94.66796875 193.06640625 C-94.77753906 193.70449219 -94.88710937 194.34257812 -95 195 C-97 195 -97 195 -99.125 193 C-99.74375 192.34 -100.3625 191.68 -101 191 C-101 194.63 -101 198.26 -101 202 C-101.99 201.01 -102.98 200.02 -104 199 C-103.5020163 202.73487777 -103.12508244 204.81237635 -101 208 C-101.62648438 207.7834375 -102.25296875 207.566875 -102.8984375 207.34375 C-104.12433594 206.92609375 -104.12433594 206.92609375 -105.375 206.5 C-106.18710938 206.2215625 -106.99921875 205.943125 -107.8359375 205.65625 C-109.94209242 204.90326695 -109.94209242 204.90326695 -112 205 C-111.67 206.32 -111.34 207.64 -111 209 C-112.32 208.34 -113.64 207.68 -115 207 C-114.67 207.845625 -114.34 208.69125 -114 209.5625 C-112.93894046 213.20989216 -112.84890987 216.22274664 -113 220 C-113.66 220.33 -114.32 220.66 -115 221 C-115.28875 219.7625 -115.5775 218.525 -115.875 217.25 C-116.61334794 214.27551258 -117.44474933 211.666144 -119 209 C-119.66 209 -120.32 209 -121 209 C-121.1546875 210.6396875 -121.1546875 210.6396875 -121.3125 212.3125 C-122.01114012 216.05975155 -122.31397238 216.65962741 -125 219 C-124.97679687 218.31292969 -124.95359375 217.62585938 -124.9296875 216.91796875 C-124.91164062 216.01691406 -124.89359375 215.11585938 -124.875 214.1875 C-124.85179687 213.29417969 -124.82859375 212.40085937 -124.8046875 211.48046875 C-124.81714173 208.74597286 -124.81714173 208.74597286 -127 206 C-127.66 207.32 -128.32 208.64 -129 210 C-129.4125 209.443125 -129.825 208.88625 -130.25 208.3125 C-131.50263823 206.65722805 -132.79992977 205.0353788 -134.125 203.4375 C-137.52292069 199.02020311 -137.16950952 195.33954999 -137 190 C-136.67 189.34 -136.34 188.68 -136 188 C-135.56637335 182.84979034 -135.56637335 182.84979034 -136.9921875 178.05859375 C-138.21719601 175.55634768 -138.29994288 173.71262407 -138.3125 170.9375 C-138.32925781 170.08027344 -138.34601563 169.22304687 -138.36328125 168.33984375 C-137.93462864 165.57895219 -137.14005895 164.72221103 -135 163 C-134.79503906 163.84304687 -134.59007812 164.68609375 -134.37890625 165.5546875 C-134.10949219 166.65039062 -133.84007812 167.74609375 -133.5625 168.875 C-133.29566406 169.96554688 -133.02882812 171.05609375 -132.75390625 172.1796875 C-132.1213522 174.92484721 -132.1213522 174.92484721 -131 177 C-130.94392578 175.48019531 -130.94392578 175.48019531 -130.88671875 173.9296875 C-130.82101612 172.57809061 -130.75457029 171.22652971 -130.6875 169.875 C-130.66494141 169.20984375 -130.64238281 168.5446875 -130.61914062 167.859375 C-130.37010123 163.24082629 -129.31599822 159.98624895 -127 156 C-126.67 156 -126.34 156 -126 156 C-125.67 159.96 -125.34 163.92 -125 168 C-120.47201324 164.31442938 -116.29708484 160.46723927 -112.3125 156.1875 C-111 155 -111 155 -109 155 C-109.66 149.06 -110.32 143.12 -111 137 C-111.66 137 -112.32 137 -113 137 C-113.6708712 135.3767313 -114.33657029 133.75132422 -115 132.125 C-115.37125 131.22007812 -115.7425 130.31515625 -116.125 129.3828125 C-117 127 -117 127 -117 125 C-117.99 125 -118.98 125 -120 125 C-120.4125 123.7625 -120.825 122.525 -121.25 121.25 C-122.58594065 117.71885172 -123.81628882 115.21895022 -127 113 C-129.18458523 112.67106744 -129.18458523 112.67106744 -131 114 C-135.25495848 122.50991696 -132.69339993 131.42280378 -130 140 C-136.27818586 134.61869783 -138.97774801 127.55562998 -142 120 C-142 123.96 -142 127.92 -142 132 C-146.31415202 127.68584798 -147.77102248 123.28977524 -148.375 117.25 C-149.17353818 113.09760144 -150.63833324 112.40119054 -154 110 C-157.68361968 105.52703324 -157.68620503 100.57256581 -158 95 C-158.61230469 94.89171875 -159.22460938 94.7834375 -159.85546875 94.671875 C-162 94 -162 94 -164.3125 91.25 C-166 88 -166 88 -165.8671875 85.484375 C-164.464229 81.46508849 -161.67135499 80.47605105 -158.078125 78.484375 C-149.84235131 74.51280901 -141.54695027 71.89794483 -132.5234375 70.53515625 C-129.8646569 69.97129721 -127.74824759 69.0679344 -125.3125 67.875 C-120.98713974 65.76697244 -117.77110684 65.65301041 -113 66 C-112.835 65.319375 -112.67 64.63875 -112.5 63.9375 C-108.45998338 56.02580078 -100.87416274 52.72685664 -92.953125 49.5546875 C-87.57013341 46.72078452 -85.11138318 41.67916656 -82.1484375 36.57421875 C-81.57996094 35.79498047 -81.57996094 35.79498047 -81 35 C-80.34 35 -79.68 35 -79 35 C-79.33 37.31 -79.66 39.62 -80 42 C-79.34 42 -78.68 42 -78 42 C-77.85304688 41.38253906 -77.70609375 40.76507813 -77.5546875 40.12890625 C-75.51104477 32.41239319 -72.46814566 25.04813005 -65.625 20.4375 C-64.75875 19.963125 -63.8925 19.48875 -63 19 C-63.4640625 19.8971875 -63.4640625 19.8971875 -63.9375 20.8125 C-65.10209704 23.08956772 -65.10209704 23.08956772 -66 26 C-65.61070312 25.5153125 -65.22140625 25.030625 -64.8203125 24.53125 C-60.10975463 18.88726361 -54.85249295 14.42764054 -49 10 C-49 11.33333333 -49 12.66666667 -49 14 C-45.45380902 12.59448102 -41.91396013 11.173617 -38.375 9.75 C-37.37597656 9.35425781 -36.37695312 8.95851563 -35.34765625 8.55078125 C-30.15375625 6.45258324 -25.50102585 4.34888613 -21 1 C-22.42557621 4.17903494 -24.1773152 6.53658432 -26.5 9.125 C-27.1084375 9.80820312 -27.716875 10.49140625 -28.34375 11.1953125 C-29.53304924 12.49119988 -30.75626434 13.75626434 -32 15 C-20.50950452 11.55126208 -9.55378499 7.52446073 0 0 Z " fill="#F3692C" transform="translate(232,44)"/>
<path d="M0 0 C10.78709677 -0.61935484 10.78709677 -0.61935484 14.9375 1.5 C18.82910119 6.21709236 22.00220926 11.18824511 24 17 C24.66 17 25.32 17 26 17 C26.335939 18.4577353 26.66866624 19.91621106 27 21.375 C27.185625 22.18710938 27.37125 22.99921875 27.5625 23.8359375 C28 26 28 26 28 28 C28.66 28 29.32 28 30 28 C30.66 30.97 31.32 33.94 32 37 C32.33 37 32.66 37 33 37 C34.08400389 40.64743446 35.06814535 44.31081133 36 48 C36.22042969 48.80953125 36.44085938 49.6190625 36.66796875 50.453125 C37.39233129 53.99445299 37.61141259 56.0312001 35.63671875 59.16015625 C33.84380107 61.21414117 31.95369627 63.0999994 30 65 C29.2575 65.99 28.515 66.98 27.75 68 C26.88375 68.99 26.88375 68.99 26 70 C25.01 70 24.02 70 23 70 C22.6596875 70.99 22.6596875 70.99 22.3125 72 C19.77841575 77.79219256 16.69904842 83.89142813 11 87 C5.94152002 87.64756052 0.9755252 87.02062055 -4 86 C-4.05447047 87.41623216 -4.09300508 88.83308191 -4.125 90.25 C-4.15980469 91.43335938 -4.15980469 91.43335938 -4.1953125 92.640625 C-3.9828378 95.20731941 -3.28654105 96.7916067 -2 99 C-1.505 97.515 -1.505 97.515 -1 96 C1.31 98.31 3.62 100.62 6 103 C5.67 101.5975 5.34 100.195 5 98.75 C4.26483401 95.62554456 4 93.27217135 4 90 C5.485 90.495 5.485 90.495 7 91 C8.16796875 93.94140625 8.16796875 93.94140625 9.1875 97.5625 C9.53167969 98.76003906 9.87585938 99.95757812 10.23046875 101.19140625 C10.48441406 102.11824219 10.73835938 103.04507813 11 104 C11 102.02 11 100.04 11 98 C11.66 98 12.32 98 13 98 C13.495 96.02 13.495 96.02 14 94 C14.66 94 15.32 94 16 94 C17.35278115 95.98689731 18.68568305 97.98745218 20 100 C20.99 100.495 20.99 100.495 22 101 C22 95.39 22 89.78 22 84 C22.66 84 23.32 84 24 84 C24.66 86.31 25.32 88.62 26 91 C26.19335938 90.28972656 26.38671875 89.57945312 26.5859375 88.84765625 C26.84632813 87.92855469 27.10671875 87.00945312 27.375 86.0625 C27.63023437 85.14597656 27.88546875 84.22945313 28.1484375 83.28515625 C29 81 29 81 31 80 C31.33 81.65 31.66 83.3 32 85 C32.25394531 84.43410156 32.50789063 83.86820312 32.76953125 83.28515625 C33.11371094 82.55167969 33.45789063 81.81820312 33.8125 81.0625 C34.14894531 80.33160156 34.48539063 79.60070312 34.83203125 78.84765625 C36 77 36 77 39 76 C38.94779297 74.25976562 38.94779297 74.25976562 38.89453125 72.484375 C38.42277128 49.92215223 38.42277128 49.92215223 45 42 C44.855625 42.63421875 44.71125 43.2684375 44.5625 43.921875 C41.43853592 59.6284722 42.11306449 73.2203158 47.42382812 88.30078125 C49.76840049 94.97342458 51.10529784 100.86983204 51 108 C49.09681116 105.14521674 48.5380901 103.58058692 47.875 100.3125 C47.70742187 99.50425781 47.53984375 98.69601563 47.3671875 97.86328125 C47.24601562 97.24839844 47.12484375 96.63351563 47 96 C46.34 96 45.68 96 45 96 C45.14165893 98.39614575 45.28818841 100.79182897 45.4375 103.1875 C45.47681641 103.86103516 45.51613281 104.53457031 45.55664062 105.22851562 C45.73545929 108.04834837 45.95577643 110.78416257 46.5234375 113.5546875 C47.13803712 116.70828884 47.1700663 119.72621186 47.1875 122.9375 C47.20167969 124.12214844 47.21585937 125.30679688 47.23046875 126.52734375 C46.99882699 130.01767466 46.25530126 132.7501094 45 136 C43.90883219 132.51502992 43.96346619 129.38411037 44.0625 125.75 C44.10722676 121.26241509 43.74964257 117.67567533 42.44921875 113.359375 C41.790071 109.89741636 41.80930697 106.44863836 41.8125 102.9375 C41.81185547 102.26420654 41.81121094 101.59091309 41.81054688 100.8972168 C41.84621354 97.58548629 42.08542852 94.48953824 42.6328125 91.21875 C43.33965664 87.81695195 43.33965664 87.81695195 41.0625 84.5625 C40.381875 83.716875 39.70125 82.87125 39 82 C38.01 82.33 37.02 82.66 36 83 C35.19436362 85.10584438 35.19436362 85.10584438 34.8125 87.5625 C34.65394531 88.38878906 34.49539062 89.21507812 34.33203125 90.06640625 C34.22246094 90.70449219 34.11289063 91.34257812 34 92 C32 92 32 92 29.875 90 C29.25625 89.34 28.6375 88.68 28 88 C28 91.63 28 95.26 28 99 C27.01 98.01 26.02 97.02 25 96 C25.4979837 99.73487777 25.87491756 101.81237635 28 105 C27.37351563 104.7834375 26.74703125 104.566875 26.1015625 104.34375 C25.28429687 104.0653125 24.46703125 103.786875 23.625 103.5 C22.81289062 103.2215625 22.00078125 102.943125 21.1640625 102.65625 C19.05790758 101.90326695 19.05790758 101.90326695 17 102 C17.33 103.32 17.66 104.64 18 106 C16.68 105.34 15.36 104.68 14 104 C14.495 105.2684375 14.495 105.2684375 15 106.5625 C16.06105954 110.20989216 16.15109013 113.22274664 16 117 C15.01 117.495 15.01 117.495 14 118 C13.71125 116.7625 13.4225 115.525 13.125 114.25 C12.38665206 111.27551258 11.55525067 108.666144 10 106 C9.34 106 8.68 106 8 106 C7.896875 107.093125 7.79375 108.18625 7.6875 109.3125 C6.98885988 113.05975155 6.68602762 113.65962741 4 116 C4.02320312 115.31292969 4.04640625 114.62585938 4.0703125 113.91796875 C4.08835937 113.01691406 4.10640625 112.11585938 4.125 111.1875 C4.14820312 110.29417969 4.17140625 109.40085937 4.1953125 108.48046875 C4.18285827 105.74597286 4.18285827 105.74597286 2 103 C1.34 104.32 0.68 105.64 0 107 C-0.4125 106.443125 -0.825 105.88625 -1.25 105.3125 C-2.50263823 103.65722805 -3.79992977 102.0353788 -5.125 100.4375 C-8.52292069 96.02020311 -8.16950952 92.33954999 -8 87 C-7.505 86.01 -7.505 86.01 -7 85 C-6.56637335 79.84979034 -6.56637335 79.84979034 -7.9921875 75.05859375 C-9.21719601 72.55634768 -9.29994288 70.71262407 -9.3125 67.9375 C-9.32925781 67.08027344 -9.34601563 66.22304687 -9.36328125 65.33984375 C-8.93462864 62.57895219 -8.14005895 61.72221103 -6 60 C-5.79503906 60.84304687 -5.59007813 61.68609375 -5.37890625 62.5546875 C-5.10949219 63.65039062 -4.84007813 64.74609375 -4.5625 65.875 C-4.16224609 67.51082031 -4.16224609 67.51082031 -3.75390625 69.1796875 C-3.1213522 71.92484721 -3.1213522 71.92484721 -2 74 C-1.96261719 72.98679687 -1.92523438 71.97359375 -1.88671875 70.9296875 C-1.82101612 69.57809061 -1.75457029 68.22652971 -1.6875 66.875 C-1.66494141 66.20984375 -1.64238281 65.5446875 -1.61914062 64.859375 C-1.37010123 60.24082629 -0.31599822 56.98624895 2 53 C2.33 53 2.66 53 3 53 C3.33 56.96 3.66 60.92 4 65 C8.52798676 61.31442938 12.70291516 57.46723927 16.6875 53.1875 C18 52 18 52 20 52 C19.34 46.06 18.68 40.12 18 34 C17.34 34 16.68 34 16 34 C15.3291288 32.3767313 14.66342971 30.75132422 14 29.125 C13.62875 28.22007812 13.2575 27.31515625 12.875 26.3828125 C12 24 12 24 12 22 C11.01 22 10.02 22 9 22 C8.5875 20.7625 8.175 19.525 7.75 18.25 C6.41405935 14.71885172 5.18371118 12.21895022 2 10 C-0.18458523 9.67106744 -0.18458523 9.67106744 -2 11 C-6.25495848 19.50991696 -3.69339993 28.42280378 -1 37 C-7.27818586 31.61869783 -9.97774801 24.55562998 -13 17 C-13 20.96 -13 24.92 -13 29 C-16.45512284 25.54487716 -17.85229562 22.69758073 -19 18 C-18.77385484 14.00476891 -18.23283912 12.34925868 -16 9 C-14.824375 8.505 -13.64875 8.01 -12.4375 7.5 C-10.7359375 6.7575 -10.7359375 6.7575 -9 6 C-8.67 5.01 -8.34 4.02 -8 3 C-6.80375 3.185625 -5.6075 3.37125 -4.375 3.5625 C-0.71716293 4.0311197 2.37862166 3.81481013 6 3 C4.02 2.34 2.04 1.68 0 1 C0 0.67 0 0.34 0 0 Z " fill="#F26222" transform="translate(103,147)"/>
<path d="M0 0 C8.58 0 17.16 0 26 0 C25.01 0.99 24.02 1.98 23 3 C22.34 3 21.68 3 21 3 C21 8.61 21 14.22 21 20 C21.53625 18.865625 22.0725 17.73125 22.625 16.5625 C24.66491375 12.45342642 27.10474801 8.73624652 29.73046875 4.98046875 C31.16044463 2.92824389 31.16044463 2.92824389 32 0 C38.27 0 44.54 0 51 0 C49.02 2.31 47.04 4.62 45 7 C43.56697795 9.05793009 42.16774486 11.14003795 40.8125 13.25 C36.82716003 19.44417731 36.82716003 19.44417731 34 22 C35.87155107 28.62074712 39.32491936 34.37769567 42.63085938 40.36328125 C43.07623047 41.18699219 43.52160156 42.01070312 43.98046875 42.859375 C44.39192139 43.60670898 44.80337402 44.35404297 45.22729492 45.12402344 C45.4822876 45.7430957 45.73728027 46.36216797 46 47 C44.54345589 49.91308822 42.64612352 50.05452316 39.625 51.125 C38.64789063 51.47820312 37.67078125 51.83140625 36.6640625 52.1953125 C34 53 34 53 31 53 C30.73783691 52.42967041 30.47567383 51.85934082 30.20556641 51.27172852 C29.01852753 48.69893595 27.82190916 46.1307146 26.625 43.5625 C26.2125 42.66466797 25.8 41.76683594 25.375 40.84179688 C24.97539062 39.98779297 24.57578125 39.13378906 24.1640625 38.25390625 C23.79748535 37.46314697 23.4309082 36.6723877 23.05322266 35.85766602 C22.13452903 33.83497069 22.13452903 33.83497069 20 33 C20 40.92 20 48.84 20 57 C20.66 57.33 21.32 57.66 22 58 C19.04817547 59.53372142 16.08760757 61.04972694 13.125 62.5625 C12.28324219 63.00013672 11.44148437 63.43777344 10.57421875 63.88867188 C9.76855469 64.29794922 8.96289062 64.70722656 8.1328125 65.12890625 C7.38918457 65.51119385 6.64555664 65.89348145 5.87939453 66.28735352 C5.25919434 66.52252686 4.63899414 66.7577002 4 67 C3.34 66.67 2.68 66.34 2 66 C2.99 65.01 2.99 65.01 4 64 C4.29804193 62.08747755 4.29804193 62.08747755 4.24291992 59.88012695 C4.24599655 59.02775955 4.24907318 58.17539215 4.25224304 57.29719543 C4.24505753 56.37025375 4.23787201 55.44331207 4.23046875 54.48828125 C4.23001053 53.52786423 4.22955231 52.5674472 4.2290802 51.57792664 C4.22605215 49.53427911 4.21814946 47.49063401 4.20581055 45.44702148 C4.18783702 42.37019327 4.18529904 39.29367151 4.18554688 36.21679688 C4.17159512 27.57398956 4.11697122 18.9260619 3.67578125 10.29296875 C3.61946533 9.15754639 3.56314941 8.02212402 3.50512695 6.85229492 C3.14434981 3.56565851 3.14434981 3.56565851 0 0 Z " fill="#20458E" transform="translate(160,204)"/>
<path d="M0 0 C4.22210146 -0.78348274 7.80237783 -1.00271068 12 0 C16.17448795 3.17229519 19.10289714 7.69280283 22 12 C22.02698189 10.37509046 22.04638757 8.75005367 22.0625 7.125 C22.07410156 6.22007812 22.08570313 5.31515625 22.09765625 4.3828125 C22.16249257 1.9831415 22.16249257 1.9831415 21 0 C26.28 0 31.56 0 37 0 C36.67 0.66 36.34 1.32 36 2 C35.84308093 4.76931368 35.74156866 7.51734107 35.68359375 10.2890625 C35.66281265 11.10748627 35.64203156 11.92591003 35.62062073 12.76913452 C35.55515188 15.38766966 35.49625274 18.00630639 35.4375 20.625 C35.39431224 22.39844807 35.35069786 24.17188581 35.30664062 25.9453125 C35.19947324 30.29677046 35.09819831 34.64833077 35 39 C31.15353933 35.16901804 27.38839186 31.28320171 23.6875 27.3125 C23.13771484 26.73177734 22.58792969 26.15105469 22.02148438 25.55273438 C18 21.23151203 18 21.23151203 18 19 C16.68 19 15.36 19 14 19 C14.33 25.27 14.66 31.54 15 38 C9.06 38.495 9.06 38.495 3 39 C2.94465088 37.88963379 2.88930176 36.77926758 2.83227539 35.63525391 C2.62615554 31.5238522 2.41419079 27.41276924 2.20043945 23.30175781 C2.10866856 21.52091515 2.01849261 19.73998956 1.92993164 17.95898438 C1.80251501 15.40210982 1.66940466 12.84558631 1.53515625 10.2890625 C1.49656998 9.49005524 1.4579837 8.69104797 1.41822815 7.86782837 C1.27963421 3.80193236 1.27963421 3.80193236 0 0 Z " fill="#20458F" transform="translate(236,204)"/>
<path d="M0 0 C2.70894767 -0.08144943 5.41541263 -0.14070614 8.125 -0.1875 C8.88554687 -0.21263672 9.64609375 -0.23777344 10.4296875 -0.26367188 C16.23778671 -0.33877661 20.41752813 0.67577532 24.875 4.6875 C26.54252489 8.11519005 26.81264739 11.32098731 26 15 C24.73217773 16.59741211 24.73217773 16.59741211 23.24609375 18.15234375 C21.51013518 20.46540797 20.91828354 21.3895949 21.30712891 24.29418945 C22.2431615 26.8771949 23.34001181 29.28981381 24.5625 31.75 C24.94986328 32.59949219 25.33722656 33.44898438 25.73632812 34.32421875 C27.31319132 37.73671244 28.91089872 40.86634808 31 44 C27.7 44 24.4 44 21 44 C18.03 38.06 15.06 32.12 12 26 C12 31.94 12 37.88 12 44 C8.04 44 4.08 44 0 44 C0.33 43.34 0.66 42.68 1 42 C1.0992501 39.03373289 1.13980815 36.09143413 1.1328125 33.125 C1.13376923 32.24473145 1.13472595 31.36446289 1.13571167 30.45751953 C1.13639276 28.59472584 1.13454343 26.73192977 1.13037109 24.86914062 C1.12502184 22.01166472 1.13031849 19.154346 1.13671875 16.296875 C1.13605796 14.48958299 1.13477677 12.68229107 1.1328125 10.875 C1.13483673 10.01664551 1.13686096 9.15829102 1.13894653 8.27392578 C1.24642678 4.00199198 1.24642678 4.00199198 0 0 Z " fill="#22468F" transform="translate(279,156)"/>
<path d="M0 0 C4.29 0 8.58 0 13 0 C12.67 0.66 12.34 1.32 12 2 C11.84323225 4.69655446 11.74163685 7.37129977 11.68359375 10.0703125 C11.66281265 10.86654022 11.64203156 11.66276794 11.62062073 12.48312378 C11.55515851 15.03032685 11.49625585 17.57763425 11.4375 20.125 C11.3943116 21.85027127 11.35069721 23.57553193 11.30664062 25.30078125 C11.19948055 29.53374685 11.09820377 33.76681753 11 38 C12.65 38 14.3 38 16 38 C15.88190779 32.90950418 15.75767087 27.81920995 15.62768555 22.72900391 C15.5843192 20.99662374 15.54264537 19.26420037 15.50268555 17.53173828 C15.44502406 15.04446373 15.38131802 12.55740707 15.31640625 10.0703125 C15.29969376 9.29317902 15.28298126 8.51604553 15.26576233 7.71536255 C15.23526571 3.72725784 15.23526571 3.72725784 14 0 C18.29 0 22.58 0 27 0 C26.67 0.66 26.34 1.32 26 2 C25.9007499 4.96626711 25.86019185 7.90856587 25.8671875 10.875 C25.86623077 11.75526855 25.86527405 12.63553711 25.86428833 13.54248047 C25.86360724 15.40527416 25.86545657 17.26807023 25.86962891 19.13085938 C25.87497816 21.98833528 25.86968151 24.845654 25.86328125 27.703125 C25.86394204 29.51041701 25.86522323 31.31770893 25.8671875 33.125 C25.86516327 33.98335449 25.86313904 34.84170898 25.86105347 35.72607422 C25.75357322 39.99800802 25.75357322 39.99800802 27 44 C23.02084841 44.02886984 19.04172347 44.04675406 15.0625 44.0625 C13.35803711 44.07506836 13.35803711 44.07506836 11.61914062 44.08789062 C10.53955078 44.09111328 9.45996094 44.09433594 8.34765625 44.09765625 C6.84730835 44.10551147 6.84730835 44.10551147 5.31665039 44.11352539 C3 44 3 44 2 43 C1.85196769 39.99528753 1.76485235 37.01069936 1.71875 34.00390625 C1.69113586 32.64808693 1.69113586 32.64808693 1.66296387 31.26487732 C1.60401795 28.36415314 1.55129191 25.46336904 1.5 22.5625 C1.43248705 18.75117314 1.35878976 14.94004078 1.28125 11.12890625 C1.26767456 10.24554092 1.25409912 9.3621756 1.2401123 8.45204163 C1.28114002 4.08837456 1.28114002 4.08837456 0 0 Z " fill="#1E438D" transform="translate(203,156)"/>
<path d="M0 0 C2.70894767 -0.08144943 5.41541263 -0.14070614 8.125 -0.1875 C8.88554687 -0.21263672 9.64609375 -0.23777344 10.4296875 -0.26367188 C16.23778671 -0.33877661 20.41752813 0.67577532 24.875 4.6875 C26.56476099 8.1608976 26.86444034 11.28636428 26 15 C23.55548909 19.05836276 20.51983327 22.36112916 16 24 C14.68 23.67 13.36 23.34 12 23 C12 29.93 12 36.86 12 44 C8.04 44 4.08 44 0 44 C0.33 43.34 0.66 42.68 1 42 C1.09918776 39.1181278 1.1398131 36.26094163 1.1328125 33.37890625 C1.13376923 32.52320541 1.13472595 31.66750458 1.13571167 30.78587341 C1.13639279 28.97435432 1.13454324 27.16283278 1.13037109 25.35131836 C1.12502842 22.57725537 1.13031499 19.80335477 1.13671875 17.02929688 C1.13605783 15.27083298 1.13477637 13.51236918 1.1328125 11.75390625 C1.13483673 10.92258682 1.13686096 10.0912674 1.13894653 9.23475647 C1.12538816 5.90500551 1.06028198 3.18084594 0 0 Z " fill="#244890" transform="translate(231,156)"/>
<path d="M0 0 C1.07449826 3.22349477 0.93853136 3.97295649 0.09765625 7.11328125 C-3.16329053 20.77728227 -1.18102397 33.22751204 3.42382812 46.30004883 C5.76792535 52.97314491 7.10530289 58.86948984 7 66 C5.09681116 63.14521674 4.5380901 61.58058692 3.875 58.3125 C3.62363281 57.10013672 3.62363281 57.10013672 3.3671875 55.86328125 C3.24601562 55.24839844 3.12484375 54.63351563 3 54 C2.34 54 1.68 54 1 54 C1.14165893 56.39614575 1.28818841 58.79182897 1.4375 61.1875 C1.47681641 61.86103516 1.51613281 62.53457031 1.55664062 63.22851562 C1.73545929 66.04834837 1.95577643 68.78416257 2.5234375 71.5546875 C3.13803712 74.70828884 3.1700663 77.72621186 3.1875 80.9375 C3.20167969 82.12214844 3.21585938 83.30679688 3.23046875 84.52734375 C2.99882699 88.01767466 2.25530126 90.7501094 1 94 C-0.09116781 90.51502992 -0.03653381 87.38411037 0.0625 83.75 C0.10722676 79.26241509 -0.25035743 75.67567533 -1.55078125 71.359375 C-2.209929 67.89741636 -2.19069303 64.44863836 -2.1875 60.9375 C-2.18814453 60.26420654 -2.18878906 59.59091309 -2.18945312 58.8972168 C-2.15378646 55.58548629 -1.91457148 52.48953824 -1.3671875 49.21875 C-0.66034336 45.81695195 -0.66034336 45.81695195 -2.9375 42.5625 C-3.618125 41.716875 -4.29875 40.87125 -5 40 C-5.99 40.33 -6.98 40.66 -8 41 C-8.80563638 43.10584438 -8.80563638 43.10584438 -9.1875 45.5625 C-9.42533203 46.80193359 -9.42533203 46.80193359 -9.66796875 48.06640625 C-9.83232422 49.02353516 -9.83232422 49.02353516 -10 50 C-12 50 -12 50 -14.125 48 C-14.74375 47.34 -15.3625 46.68 -16 46 C-16 49.63 -16 53.26 -16 57 C-16.99 56.01 -17.98 55.02 -19 54 C-18.5020163 57.73487777 -18.12508244 59.81237635 -16 63 C-16.62648437 62.7834375 -17.25296875 62.566875 -17.8984375 62.34375 C-18.71570313 62.0653125 -19.53296875 61.786875 -20.375 61.5 C-21.18710938 61.2215625 -21.99921875 60.943125 -22.8359375 60.65625 C-24.94209242 59.90326695 -24.94209242 59.90326695 -27 60 C-26.67 61.32 -26.34 62.64 -26 64 C-27.32 63.34 -28.64 62.68 -30 62 C-29.67 62.845625 -29.34 63.69125 -29 64.5625 C-27.93894046 68.20989216 -27.84890987 71.22274664 -28 75 C-28.99 75.495 -28.99 75.495 -30 76 C-30.28875 74.7625 -30.5775 73.525 -30.875 72.25 C-31.61334794 69.27551258 -32.44474933 66.666144 -34 64 C-34.66 64 -35.32 64 -36 64 C-36.103125 65.093125 -36.20625 66.18625 -36.3125 67.3125 C-37 71 -37 71 -40 74 C-39.67 70.7 -39.34 67.4 -39 64 C-38.67 64 -38.34 64 -38 64 C-38.57021934 58.6496441 -39.20734361 53.32212148 -40 48 C-39.01 48.33 -38.02 48.66 -37 49 C-35.83203125 51.94140625 -35.83203125 51.94140625 -34.8125 55.5625 C-34.46832031 56.76003906 -34.12414062 57.95757812 -33.76953125 59.19140625 C-33.38861328 60.58166016 -33.38861328 60.58166016 -33 62 C-33 60.02 -33 58.04 -33 56 C-32.34 56 -31.68 56 -31 56 C-30.67 54.68 -30.34 53.36 -30 52 C-29.34 52 -28.68 52 -28 52 C-26.64721885 53.98689731 -25.31431695 55.98745218 -24 58 C-23.34 58.33 -22.68 58.66 -22 59 C-22 53.39 -22 47.78 -22 42 C-21.34 42 -20.68 42 -20 42 C-19.34 44.31 -18.68 46.62 -18 49 C-17.80664062 48.28972656 -17.61328125 47.57945312 -17.4140625 46.84765625 C-17.15367187 45.92855469 -16.89328125 45.00945312 -16.625 44.0625 C-16.36976563 43.14597656 -16.11453125 42.22945312 -15.8515625 41.28515625 C-15 39 -15 39 -13 38 C-12.67 39.65 -12.34 41.3 -12 43 C-11.74605469 42.43410156 -11.49210937 41.86820313 -11.23046875 41.28515625 C-10.88628906 40.55167969 -10.54210937 39.81820312 -10.1875 39.0625 C-9.85105469 38.33160156 -9.51460937 37.60070312 -9.16796875 36.84765625 C-8 35 -8 35 -5 34 C-5.05220703 32.25976562 -5.05220703 32.25976562 -5.10546875 30.484375 C-5.32778108 19.79733989 -5.17361993 9.67241987 0 0 Z " fill="#F3692B" transform="translate(147,189)"/>
<path d="M0 0 C0 2.64 0 5.28 0 8 C-0.99 7.67 -1.98 7.34 -3 7 C-8.02427129 6.52557191 -12.47318101 6.25217029 -17.0625 8.5 C-20.35305518 12.74587766 -21.08306973 16.88172197 -20.875 22.1875 C-19.80590621 25.62387288 -18.58150767 27.48826281 -16 30 C-12.87866256 31.34772903 -12.87866256 31.34772903 -10 32 C-10 29.03 -10 26.06 -10 23 C-6.7 23.33 -3.4 23.66 0 24 C-0.33 28.95 -0.66 33.9 -1 39 C-11.68213063 37.85918993 -19.9544977 36.67357204 -27.4375 28.5625 C-30.49453447 24.65017334 -31.69306893 21.0169756 -32.4375 16.125 C-31.67411104 10.67222168 -29.27840212 6.8835396 -25.0390625 3.37890625 C-17.24742377 -1.31469182 -8.75829803 -0.45721973 0 0 Z " fill="#264890" transform="translate(306,204)"/>
<path d="M0 0 C6.27 0 12.54 0 19 0 C18.67 0.66 18.34 1.32 18 2 C17.34 2 16.68 2 16 2 C16 15.2 16 28.4 16 42 C11.38 42.99 6.76 43.98 2 45 C2.01160156 43.32035156 2.02320313 41.64070313 2.03515625 39.91015625 C2.12622917 24.44819767 2.12622917 24.44819767 1.5625 9 C1.52326416 8.307854 1.48402832 7.61570801 1.44360352 6.90258789 C1.21641493 3.33033557 1.21641493 3.33033557 0 0 Z " fill="#234A92" transform="translate(214,204)"/>
<path d="M0 0 C6.27 0 12.54 0 19 0 C19 2.31 19 4.62 19 7 C16.36 6.67 13.72 6.34 11 6 C11 9.3 11 12.6 11 16 C13.97 16 16.94 16 20 16 C19.01 17.98 18.02 19.96 17 22 C15.02 22 13.04 22 11 22 C11 27.28 11 32.56 11 38 C13.64 37.67 16.28 37.34 19 37 C19 39.31 19 41.62 19 44 C12.73 44 6.46 44 0 44 C0.33 43.34 0.66 42.68 1 42 C1.15123831 40.4804236 1.24881693 38.95527498 1.31640625 37.4296875 C1.35830078 36.53378906 1.40019531 35.63789063 1.44335938 34.71484375 C1.50233398 33.30912109 1.50233398 33.30912109 1.5625 31.875 C1.60568359 30.93011719 1.64886719 29.98523438 1.69335938 29.01171875 C1.79959072 26.67462908 1.90163176 24.3374317 2 22 C1.34 22 0.68 22 0 22 C0.24363281 21.00033203 0.24363281 21.00033203 0.4921875 19.98046875 C1.10469204 16.38553824 1.13214183 12.9584054 1.125 9.3125 C1.12886719 8.63638672 1.13273437 7.96027344 1.13671875 7.26367188 C1.1808837 3.50647499 1.1808837 3.50647499 0 0 Z " fill="#23468F" transform="translate(258,156)"/>
<path d="M0 0 C0.80179688 0.00451172 1.60359375 0.00902344 2.4296875 0.01367188 C4.41149006 0.02546832 6.39325433 0.04340395 8.375 0.0625 C8.375 2.7025 8.375 5.3425 8.375 8.0625 C7.715 7.7325 7.055 7.4025 6.375 7.0625 C4.83831135 6.83782169 3.29531946 6.65453195 1.75 6.5 C0.93273437 6.41621094 0.11546875 6.33242187 -0.7265625 6.24609375 C-1.35304687 6.18550781 -1.97953125 6.12492188 -2.625 6.0625 C-1.16813076 10.12552654 0.29075126 14.18782752 1.75 18.25 C2.1625 19.40048828 2.575 20.55097656 3 21.73632812 C3.39960938 22.84814453 3.79921875 23.95996094 4.2109375 25.10546875 C4.57751465 26.12664795 4.9440918 27.14782715 5.32177734 28.19995117 C6.00265832 30.05051432 6.72586131 31.88628455 7.49853516 33.70043945 C8.68405739 36.89540535 8.56972635 39.68724324 8.375 43.0625 C7.375 44.0625 7.375 44.0625 5.60913086 44.17602539 C4.86026611 44.17078857 4.11140137 44.16555176 3.33984375 44.16015625 C2.53095703 44.15693359 1.72207031 44.15371094 0.88867188 44.15039062 C0.03853516 44.14201172 -0.81160156 44.13363281 -1.6875 44.125 C-2.54150391 44.12048828 -3.39550781 44.11597656 -4.27539062 44.11132812 C-6.39195663 44.09950373 -8.50848685 44.08156769 -10.625 44.0625 C-10.625 41.7525 -10.625 39.4425 -10.625 37.0625 C-7.325 37.3925 -4.025 37.7225 -0.625 38.0625 C-0.92792969 37.22589844 -1.23085937 36.38929688 -1.54296875 35.52734375 C-2.6713085 32.39229516 -3.78806537 29.25359447 -4.89746094 26.11181641 C-5.37797394 24.7583177 -5.86292001 23.40638368 -6.35253906 22.05615234 C-11.35712835 8.23735784 -11.35712835 8.23735784 -10.625 1.0625 C-7.31505287 -0.59247356 -3.63377 -0.03834335 0 0 Z " fill="#24478F" transform="translate(193.625,155.9375)"/>
<path d="M0 0 C0.74886475 0.00523682 1.49772949 0.01047363 2.26928711 0.01586914 C3.07817383 0.0190918 3.88706055 0.02231445 4.72045898 0.02563477 C5.5705957 0.03401367 6.42073242 0.04239258 7.29663086 0.05102539 C8.15063477 0.05553711 9.00463867 0.06004883 9.88452148 0.06469727 C12.00108749 0.07652166 14.11761771 0.0944577 16.23413086 0.11352539 C16.23413086 1.76352539 16.23413086 3.41352539 16.23413086 5.11352539 C13.26413086 5.11352539 10.29413086 5.11352539 7.23413086 5.11352539 C7.56735352 6.07653564 7.90057617 7.0395459 8.24389648 8.03173828 C9.48470873 11.62687659 10.71132123 15.22672852 11.93383789 18.828125 C12.46354101 20.38216858 12.99701733 21.93493162 13.53442383 23.48632812 C14.30902745 25.72463081 15.06966201 27.96728356 15.82788086 30.21118164 C16.06849243 30.89688736 16.309104 31.58259308 16.55700684 32.28907776 C18.02671106 36.69466203 18.4658015 40.48274521 18.23413086 45.11352539 C14.37173312 44.42814612 10.76137756 43.36869446 7.04663086 42.11352539 C5.47848633 41.58758789 5.47848633 41.58758789 3.87866211 41.05102539 C1.23413086 40.11352539 1.23413086 40.11352539 -0.76586914 39.11352539 C-0.43586914 37.79352539 -0.10586914 36.47352539 0.23413086 35.11352539 C5.18413086 36.59852539 5.18413086 36.59852539 10.23413086 38.11352539 C9.96673096 37.37714844 9.69933105 36.64077148 9.42382812 35.88208008 C8.21271734 32.54329955 7.00464196 29.20342861 5.79663086 25.86352539 C5.1653125 24.12522461 5.1653125 24.12522461 4.52124023 22.35180664 C4.1184082 21.23676758 3.71557617 20.12172852 3.30053711 18.97290039 C2.92872314 17.94648438 2.55690918 16.92006836 2.17382812 15.86254883 C1.40699478 13.61922758 0.75833923 11.42294108 0.23413086 9.11352539 C-0.42586914 9.11352539 -1.08586914 9.11352539 -1.76586914 9.11352539 C-2.64477539 2.96118164 -2.64477539 2.96118164 -2.76586914 1.11352539 C-1.76586914 0.11352539 -1.76586914 0.11352539 0 0 Z " fill="#274A91" transform="translate(311.765869140625,204.886474609375)"/>
<path d="M0 0 C0.99386719 0.00902344 1.98773438 0.01804688 3.01171875 0.02734375 C4.15060547 0.04474609 4.15060547 0.04474609 5.3125 0.0625 C4.9825 2.7025 4.6525 5.3425 4.3125 8.0625 C5.3025 8.0625 6.2925 8.0625 7.3125 8.0625 C7.3125 5.7525 7.3125 3.4425 7.3125 1.0625 C9.2925 1.0625 11.2725 1.0625 13.3125 1.0625 C13.3125 7.3325 13.3125 13.6025 13.3125 20.0625 C11.0025 20.0625 8.6925 20.0625 6.3125 20.0625 C6.6425 16.7625 6.9725 13.4625 7.3125 10.0625 C6.3225 10.0625 5.3325 10.0625 4.3125 10.0625 C4.6425 13.3625 4.9725 16.6625 5.3125 20.0625 C-6.51043733 20.7512148 -6.51043733 20.7512148 -10.375 18.1875 C-13.50700173 15.30944435 -13.63662589 14.5797201 -14.0625 10.25 C-14.03002457 6.67770314 -13.73917881 6.12814606 -11.375 3.125 C-7.48649845 0.14080113 -4.7646388 -0.05605457 0 0 Z " fill="#F5F8FB" transform="translate(207.6875,132.9375)"/>
<path d="M0 0 C0.33 0.66 0.66 1.32 1 2 C1.99 2 2.98 2 4 2 C4.02464705 7.67830078 4.04283462 13.35657069 4.05493164 19.03491211 C4.05997256 20.96818585 4.06680519 22.90145576 4.07543945 24.8347168 C4.08751565 27.60726872 4.09323057 30.37977041 4.09765625 33.15234375 C4.10281754 34.02213364 4.10797882 34.89192352 4.11329651 35.78807068 C4.11349185 37.85905814 4.06208168 39.92994324 4 42 C3.67 42.33 3.34 42.66 3 43 C6.96 43 10.92 43 15 43 C15 43.66 15 44.32 15 45 C3.78 45 -7.44 45 -19 45 C-19 44.67 -19 44.34 -19 44 C-12.73 44 -6.46 44 0 44 C-0.33 42.02 -0.66 40.04 -1 38 C-3.31 38 -5.62 38 -8 38 C-8 32.72 -8 27.44 -8 22 C-6.02 21.67 -4.04 21.34 -2 21 C-0.56362302 19.04836882 -0.56362302 19.04836882 0 17 C-2.64 16.67 -5.28 16.34 -8 16 C-8 12.7 -8 9.4 -8 6 C-2.25 5.875 -2.25 5.875 0 7 C0 4.69 0 2.38 0 0 Z " fill="#F3F5F9" transform="translate(277,156)"/>
<path d="M0 0 C2.40972511 2.40972511 3.50946607 4.95412632 5 8 C6.18424326 9.41577477 6.18424326 9.41577477 9.5625 9.0625 C11.2640625 9.0315625 11.2640625 9.0315625 13 9 C13.37125 10.134375 13.7425 11.26875 14.125 12.4375 C14.86637873 14.3814131 14.86637873 14.3814131 16 16 C19.08369887 17.05749557 19.08369887 17.05749557 22 17 C20.68 19.31 19.36 21.62 18 24 C17.31292969 23.57847656 16.62585938 23.15695313 15.91796875 22.72265625 C15.01691406 22.17480469 14.11585938 21.62695312 13.1875 21.0625 C12.29417969 20.51722656 11.40085938 19.97195312 10.48046875 19.41015625 C5.19967371 16.40800348 -0.063531 16.14972449 -6 17 C-9.6153363 18.64065533 -12.7647474 20.71443016 -16 23 C-16.66 23.33 -17.32 23.66 -18 24 C-18.86380259 22.71475739 -19.71580369 21.42157581 -20.5625 20.125 C-21.03816406 19.40570313 -21.51382813 18.68640625 -22.00390625 17.9453125 C-22.33261719 17.30335937 -22.66132813 16.66140625 -23 16 C-22.67 15.34 -22.34 14.68 -22 14 C-21.05125 14.04125 -20.1025 14.0825 -19.125 14.125 C-15.89755144 14.34973818 -15.89755144 14.34973818 -14 12 C-13.30251417 10.68252676 -12.63040043 9.35085807 -12 8 C-10.6696875 8.1546875 -10.6696875 8.1546875 -9.3125 8.3125 C-5.82416464 8.29519059 -5.82416464 8.29519059 -3.1875 5.6875 C-0.84992437 3.13914376 -0.84992437 3.13914376 0 0 Z " fill="#296CBB" transform="translate(242,107)"/>
<path d="M0 0 C-2.39751218 2.77857372 -4.70749783 3.85962748 -8.125 5.125 C-11.31641623 6.15021799 -11.31641623 6.15021799 -14 8 C-15.68826824 8.15714698 -17.37700327 8.31035005 -19.06738281 8.44287109 C-30.00728317 9.38266447 -40.38171926 12.60509841 -48 21 C-46.65832675 24.10843109 -45.32935298 25.74240172 -42.625 27.75 C-38.65093824 30.98566615 -37.01409274 34.32730485 -35 39 C-33.948125 38.896875 -32.89625 38.79375 -31.8125 38.6875 C-28 39 -28 39 -25.0625 41.5 C-24.381875 42.325 -23.70125 43.15 -23 44 C-23.54269531 44.17015625 -24.08539063 44.3403125 -24.64453125 44.515625 C-30.30533471 46.42025405 -30.30533471 46.42025405 -34 51 C-34.391875 50.278125 -34.78375 49.55625 -35.1875 48.8125 C-36.88005025 45.89005569 -36.88005025 45.89005569 -39.5625 43.8125 C-43.1928596 39.62362354 -44 34.49747003 -44 29 C-44.5775 28.95875 -45.155 28.9175 -45.75 28.875 C-49.25895955 27.51040462 -50.30487247 25.26469006 -52 22 C-51.83536259 18.88157381 -51.54558868 17.49447689 -49.20703125 15.375 C-39.52973005 9.81805054 -29.55939632 6.20373395 -18.52734375 4.53515625 C-15.10053804 3.80954206 -12.2157421 2.34482048 -9.08203125 0.8203125 C-5.92129408 -0.42500608 -3.35648289 -0.28565812 0 0 Z " fill="#F3733A" transform="translate(118,110)"/>
<path d="M0 0 C2.70894767 -0.08144943 5.41541263 -0.14070614 8.125 -0.1875 C8.88554687 -0.21263672 9.64609375 -0.23777344 10.4296875 -0.26367188 C16.23778671 -0.33877661 20.41752813 0.67577532 24.875 4.6875 C26.57458046 8.18108205 26.19294508 11.14109842 26 15 C25.67 15 25.34 15 25 15 C25 13.35 25 11.7 25 10 C23.02 10 21.04 10 19 10 C18.71125 10.94875 18.4225 11.8975 18.125 12.875 C17 16 17 16 15 18 C12.375 18.125 12.375 18.125 10 18 C10 16.35 10 14.7 10 13 C7.69 13 5.38 13 3 13 C2.01 8.71 1.02 4.42 0 0 Z " fill="#265BA0" transform="translate(231,156)"/>
<path d="M0 0 C1.98 0.66 3.96 1.32 6 2 C6 2.66 6 3.32 6 4 C10.62 4 15.24 4 20 4 C20 4.99 20 5.98 20 7 C18.989375 6.79375 17.97875 6.5875 16.9375 6.375 C12.58971868 5.96092559 9.98086327 6.20470872 6 8 C2.35058809 14.5054734 3.63342093 22.18004256 5.5 29.0625 C5.98866226 30.71173514 6.48466507 32.35890364 7 34 C0.72181414 28.61869783 -1.97774801 21.55562998 -5 14 C-5 17.96 -5 21.92 -5 26 C-8.45512284 22.54487716 -9.85229562 19.69758073 -11 15 C-10.77385484 11.00476891 -10.23283912 9.34925868 -8 6 C-6.824375 5.505 -5.64875 5.01 -4.4375 4.5 C-2.7359375 3.7575 -2.7359375 3.7575 -1 3 C-0.67 2.01 -0.34 1.02 0 0 Z " fill="#F3712D" transform="translate(95,150)"/>
<path d="M0 0 C2.70894767 -0.08144943 5.41541263 -0.14070614 8.125 -0.1875 C8.88554687 -0.21263672 9.64609375 -0.23777344 10.4296875 -0.26367188 C15.38237929 -0.3277153 18.70873131 0.2501916 23 3 C24.9375 5.5 24.9375 5.5 26 8 C25.67 8.99 25.34 9.98 25 11 C23.02 11 21.04 11 19 11 C18.896875 11.78375 18.79375 12.5675 18.6875 13.375 C18 16 18 16 15 18 C13.68 18 12.36 18 11 18 C10.67 15.03 10.34 12.06 10 9 C7.69 9 5.38 9 3 9 C3 6.69 3 4.38 3 2 C2.01 1.67 1.02 1.34 0 1 C0 0.67 0 0.34 0 0 Z " fill="#1179BF" transform="translate(279,156)"/>
<path d="M0 0 C1.65 0.33 3.3 0.66 5 1 C5.66 1.99 6.32 2.98 7 4 C7.33 2.68 7.66 1.36 8 0 C9.98 0 11.96 0 14 0 C14 6.6 14 13.2 14 20 C13.34 20 12.68 20 12 20 C10.7109375 18.25 10.7109375 18.25 9.375 16 C8.70597656 14.88625 8.70597656 14.88625 8.0234375 13.75 C7.51683594 12.88375 7.51683594 12.88375 7 12 C6.67 14.31 6.34 16.62 6 19 C3.69 19 1.38 19 -1 19 C-0.67 12.73 -0.34 6.46 0 0 Z " fill="#3775BF" transform="translate(235,134)"/>
<path d="M0 0 C0.66 0.33 1.32 0.66 2 1 C-5.33030178 5.76560562 -5.33030178 5.76560562 -8.5 6.875 C-12.6236606 8.73064727 -15.70866165 11.94550734 -19 15 C-17.63875 14.3503125 -17.63875 14.3503125 -16.25 13.6875 C-11.03945282 11.43138679 -5.51447802 10.27675107 0 9 C-1.15933267 12.47799801 -1.62071165 12.59101354 -4.6875 14.25 C-12.32848333 18.84823461 -16.86552691 25.71014355 -20 34 C-20.16724737 37.16695956 -20.16724737 37.16695956 -20 40 C-21.5 43.375 -21.5 43.375 -23 46 C-23.66 45.67 -24.32 45.34 -25 45 C-22.9464703 35.75338023 -20.84377068 27.25823198 -16 19 C-19.73838874 19 -20.32222769 19.88994615 -23 22.375 C-25.294961 24.48740728 -27.39195896 26.26130597 -30 28 C-28.94124926 24.59687262 -27.99097846 21.98646769 -26 19 C-25.34 19 -24.68 19 -24 19 C-23.63261719 18.12601563 -23.63261719 18.12601563 -23.2578125 17.234375 C-21.79564126 14.63697764 -20.15259586 13.16024169 -17.875 11.25 C-17.15054688 10.63640625 -16.42609375 10.0228125 -15.6796875 9.390625 C-14.84824219 8.70226562 -14.84824219 8.70226562 -14 8 C-14.99 7.67 -15.98 7.34 -17 7 C-17 6.34 -17 5.68 -17 5 C-16.10796875 4.80664062 -15.2159375 4.61328125 -14.296875 4.4140625 C-13.12640625 4.15367188 -11.9559375 3.89328125 -10.75 3.625 C-9.58984375 3.36976562 -8.4296875 3.11453125 -7.234375 2.8515625 C-4.08219823 2.14272416 -4.08219823 2.14272416 -1.703125 0.8359375 C-0.86007813 0.42214844 -0.86007813 0.42214844 0 0 Z " fill="#F36B2F" transform="translate(185,117)"/>
<path d="M0 0 C1.65 0.33 3.3 0.66 5 1 C5.66 1.99 6.32 2.98 7 4 C7.33 2.68 7.66 1.36 8 0 C9.98 0 11.96 0 14 0 C14 6.6 14 13.2 14 20 C13.34 20 12.68 20 12 20 C10.7109375 18.25 10.7109375 18.25 9.375 16 C8.70597656 14.88625 8.70597656 14.88625 8.0234375 13.75 C7.51683594 12.88375 7.51683594 12.88375 7 12 C7 14.31 7 16.62 7 19 C4.36 19 1.72 19 -1 19 C-0.67 12.73 -0.34 6.46 0 0 Z " fill="#3675BF" transform="translate(251,134)"/>
<path d="M0 0 C1.81242052 -0.02687279 3.62495233 -0.04633715 5.4375 -0.0625 C6.44683594 -0.07410156 7.45617187 -0.08570313 8.49609375 -0.09765625 C11 0 11 0 12 1 C12.15582303 2.34015221 12.25044142 3.68758903 12.31640625 5.03515625 C12.37924805 6.24848633 12.37924805 6.24848633 12.44335938 7.48632812 C12.48267578 8.33646484 12.52199219 9.18660156 12.5625 10.0625 C12.60568359 10.91650391 12.64886719 11.77050781 12.69335938 12.65039062 C12.79976702 14.76672037 12.90041731 16.88333813 13 19 C10.69 19 8.38 19 6 19 C6.33 15.7 6.66 12.4 7 9 C6.01 9 5.02 9 4 9 C4.33 12.3 4.66 15.6 5 19 C2.69 19 0.38 19 -2 19 C-2.19818283 12.29481414 -2.30844801 6.34823202 0 0 Z " fill="#3272BD" transform="translate(269,134)"/>
<path d="M0 0 C2.31 0 4.62 0 7 0 C6.67 2.31 6.34 4.62 6 7 C6.99 7 7.98 7 9 7 C9 4.69 9 2.38 9 0 C10.98 0 12.96 0 15 0 C15 6.27 15 12.54 15 19 C12.69 19 10.38 19 8 19 C8.33 15.7 8.66 12.4 9 9 C8.01 9 7.02 9 6 9 C6.33 12.3 6.66 15.6 7 19 C4.69 19 2.38 19 0 19 C0 12.73 0 6.46 0 0 Z " fill="#2569B9" transform="translate(206,134)"/>
<path d="M0 0 C-1.4021349 3.25978572 -3.02493832 5.06291304 -5.6875 7.375 C-11.16249623 12.63980442 -13.93072565 19.17086458 -17 26 C-20.52403267 25.40157936 -20.88938587 25.14853898 -23.1875 22.0625 C-23.92578125 20.17578125 -23.92578125 20.17578125 -24 18 C-21.54889736 13.01483433 -17.99967864 8.82577957 -14 5 C-13.34 5.33 -12.68 5.66 -12 6 C-9.564622 6 -6.84695131 2.77838186 -5.0078125 1.3125 C-3 0 -3 0 0 0 Z " fill="#FEF6F3" transform="translate(133,198)"/>
<path d="M0 0 C6.27 0 12.54 0 19 0 C19 2.31 19 4.62 19 7 C16.36 6.67 13.72 6.34 11 6 C11 9.3 11 12.6 11 16 C10.67 14.68 10.34 13.36 10 12 C7.69 12 5.38 12 3 12 C2.67 13.32 2.34 14.64 2 16 C1.93941406 15.01257813 1.87882812 14.02515625 1.81640625 13.0078125 C1.73261719 11.72648438 1.64882813 10.44515625 1.5625 9.125 C1.48128906 7.84882813 1.40007812 6.57265625 1.31640625 5.2578125 C1.20793973 2.11699848 1.20793973 2.11699848 0 0 Z " fill="#2863A7" transform="translate(258,156)"/>
<path d="M0 0 C0.33 0 0.66 0 1 0 C1.33 3.96 1.66 7.92 2 12 C5.54528493 9.16377205 8.29460311 6.6522858 11 3 C11.66 3 12.32 3 13 3 C11.15449847 6.93288918 8.73885867 10.33697801 6.2421875 13.87890625 C4.7473238 16.02177954 4.7473238 16.02177954 5 19 C4.34 19 3.68 19 3 19 C4.32 21.31 5.64 23.62 7 26 C5.02 26.33 3.04 26.66 1 27 C-1.80155123 20.02255166 -4.57043856 11.37150005 -2.38671875 3.90234375 C-1.5625 2.25 -1.5625 2.25 0 0 Z " fill="#F36D2B" transform="translate(105,200)"/>
<path d="M0 0 C0.99 0.33 1.98 0.66 3 1 C4.16796875 3.94140625 4.16796875 3.94140625 5.1875 7.5625 C5.53167969 8.76003906 5.87585938 9.95757812 6.23046875 11.19140625 C6.48441406 12.11824219 6.73835938 13.04507813 7 14 C7 12.02 7 10.04 7 8 C7.66 8 8.32 8 9 8 C9.33 6.68 9.66 5.36 10 4 C10.66 4.33 11.32 4.66 12 5 C11.95875 5.886875 11.9175 6.77375 11.875 7.6875 C11.99897246 10.97277013 12.61387904 13.05449295 14 16 C12.68 15.34 11.36 14.68 10 14 C10.33 14.845625 10.66 15.69125 11 16.5625 C12.06105954 20.20989216 12.15109013 23.22274664 12 27 C11.34 27.33 10.68 27.66 10 28 C9.71125 26.7625 9.4225 25.525 9.125 24.25 C8.38665206 21.27551258 7.55525067 18.666144 6 16 C5.34 16 4.68 16 4 16 C3.896875 17.093125 3.79375 18.18625 3.6875 19.3125 C3 23 3 23 0 26 C0.33 22.7 0.66 19.4 1 16 C1.33 16 1.66 16 2 16 C1.42978066 10.6496441 0.79265639 5.32212148 0 0 Z " fill="#F3682A" transform="translate(107,237)"/>
<path d="M0 0 C3.54763592 1.45562793 3.92457178 1.84076265 5.6875 5.5625 C8.62100315 14.4746101 8.11879648 23.72067514 8 33 C7.34 31.68 6.68 30.36 6 29 C5.80664062 30.20398438 5.61328125 31.40796875 5.4140625 32.6484375 C5.15146395 34.22402877 4.88841999 35.79954585 4.625 37.375 C4.49867188 38.1690625 4.37234375 38.963125 4.2421875 39.78125 C4.11328125 40.54179687 3.984375 41.30234375 3.8515625 42.0859375 C3.73635254 42.7876709 3.62114258 43.4894043 3.50244141 44.21240234 C3 46 3 46 1 48 C1.16371094 46.78441406 1.32742187 45.56882813 1.49609375 44.31640625 C2.17664287 38.19146413 2.10867296 32.09271021 2.0625 25.9375 C2.05798828 24.78572266 2.05347656 23.63394531 2.04882812 22.44726562 C2.03714426 19.63145482 2.02076281 16.81575602 2 14 C2.66 14.33 3.32 14.66 4 15 C3.32584613 9.7415998 1.75734451 4.97361654 0 0 Z " fill="#F47841" transform="translate(155,161)"/>
<path d="M0 0 C3.3 0 6.6 0 10 0 C9.67 0.99 9.34 1.98 9 3 C7.68 2.67 6.36 2.34 5 2 C5 3.65 5 5.3 5 7 C6.65 7 8.3 7 10 7 C9.67 7.66 9.34 8.32 9 9 C7.68 9 6.36 9 5 9 C5 11.31 5 13.62 5 16 C6.65 16 8.3 16 10 16 C10 16.99 10 17.98 10 19 C6.37 19 2.74 19 -1 19 C-1.08084859 12.53211242 -0.96509044 6.39372417 0 0 Z " fill="#296CBB" transform="translate(223,134)"/>
<path d="M0 0 C6.27 0 12.54 0 19 0 C13 7 13 7 11 9 C7.9609375 8.9765625 7.9609375 8.9765625 4.375 8.625 C3.18648437 8.51414063 1.99796875 8.40328125 0.7734375 8.2890625 C-0.14179688 8.19367188 -1.05703125 8.09828125 -2 8 C-2 5 -2 5 0 0 Z " fill="#196CB1" transform="translate(192,204)"/>
<path d="M0 0 C2.93774463 -0.05390357 5.87450232 -0.0936255 8.8125 -0.125 C10.06256836 -0.15013672 10.06256836 -0.15013672 11.33789062 -0.17578125 C12.14033203 -0.18222656 12.94277344 -0.18867188 13.76953125 -0.1953125 C14.50792236 -0.20578613 15.24631348 -0.21625977 16.00708008 -0.22705078 C18 0 18 0 21 2 C21.6875 4.625 21.6875 4.625 22 7 C20.02 7 18.04 7 16 7 C16 6.34 16 5.68 16 5 C13.36 5 10.72 5 8 5 C7.67 5.99 7.34 6.98 7 8 C5.02 8 3.04 8 1 8 C0.67 5.36 0.34 2.72 0 0 Z " fill="#03A1E4" transform="translate(233,157)"/>
<path d="M0 0 C0.77923828 0.01353516 1.55847656 0.02707031 2.36132812 0.04101562 C4.26202404 0.07599776 6.16235834 0.12979041 8.0625 0.1875 C8.0625 2.8275 8.0625 5.4675 8.0625 8.1875 C7.0725 7.8575 6.0825 7.5275 5.0625 7.1875 C5.0625 6.5275 5.0625 5.8675 5.0625 5.1875 C-2.1975 5.8475 -9.4575 6.5075 -16.9375 7.1875 C-16.6075 5.8675 -16.2775 4.5475 -15.9375 3.1875 C-10.59230563 0.09437712 -6.07329709 -0.20296366 0 0 Z " fill="#1E75B8" transform="translate(297.9375,203.8125)"/>
<path d="M0 0 C4.29 0 8.58 0 13 0 C12.67 0.66 12.34 1.32 12 2 C11.84266751 4.98763355 11.74138585 7.95541151 11.68359375 10.9453125 C11.66281265 11.8303244 11.64203156 12.7153363 11.62062073 13.62716675 C11.55513402 16.45969741 11.49624438 19.29232225 11.4375 22.125 C11.39431394 24.04297857 11.35069963 25.96094754 11.30664062 27.87890625 C11.19945353 32.58584051 11.0981836 37.29286967 11 42 C10.67 42 10.34 42 10 42 C10 31.44 10 20.88 10 10 C7.69 10 5.38 10 3 10 C3 7.36 3 4.72 3 2 C2.01 1.67 1.02 1.34 0 1 C0 0.67 0 0.34 0 0 Z " fill="#437FB9" transform="translate(217,156)"/>
<path d="M0 0 C0 0.99 0 1.98 0 3 C-1.03898437 3.37511719 -2.07796875 3.75023437 -3.1484375 4.13671875 C-18.97158845 9.91182701 -27.32772221 14.1125898 -36 29 C-37 27 -37 27 -36.3203125 24.8984375 C-33.04193246 17.97741297 -28.98674247 13.6999745 -23 9 C-22.071875 8.236875 -21.14375 7.47375 -20.1875 6.6875 C-19.1046875 5.8521875 -19.1046875 5.8521875 -18 5 C-17.42121094 4.4946875 -16.84242188 3.989375 -16.24609375 3.46875 C-13.45265444 1.6420836 -11.1669589 1.28566854 -7.875 0.8125 C-6.82054687 0.65394531 -5.76609375 0.49539062 -4.6796875 0.33203125 C-2 0 -2 0 0 0 Z " fill="#F47C46" transform="translate(205,58)"/>
<path d="M0 0 C6.27 0 12.54 0 19 0 C18.34 2.31 17.68 4.62 17 7 C12.05 7 7.1 7 2 7 C1.34 4.69 0.68 2.38 0 0 Z " fill="#0E74BB" transform="translate(163,205)"/>
<path d="M0 0 C5.61 0 11.22 0 17 0 C17 2.64 17 5.28 17 8 C16.34 7.67 15.68 7.34 15 7 C15 6.34 15 5.68 15 5 C11.7 5 8.4 5 5 5 C5 5.99 5 6.98 5 8 C3.02 8 1.04 8 -1 8 C-1.125 2.25 -1.125 2.25 0 0 Z " fill="#1A74B8" transform="translate(185,156)"/>
<path d="M0 0 C-0.33 1.32 -0.66 2.64 -1 4 C-2.32 4.33 -3.64 4.66 -5 5 C-5 8.3 -5 11.6 -5 15 C-3.35 15 -1.7 15 0 15 C0 16.32 0 17.64 0 19 C-3.7694321 18.73701637 -5.77431907 18.16190154 -8.875 15.9375 C-11.26602232 12.63226327 -11.7562273 10.92466703 -11.484375 6.9375 C-9.97267041 0.89068164 -5.67842279 -0.66028172 0 0 Z " fill="#3071BD" transform="translate(205,134)"/>
<path d="M0 0 C-3.33557475 1.17572478 -6.35322313 0.90424714 -9.83886719 0.68066406 C-18.22575022 0.23498429 -23.1088834 1.18916725 -29.703125 6.859375 C-30.46109375 7.56578125 -31.2190625 8.2721875 -32 9 C-36.49655172 13 -36.49655172 13 -41 13 C-41 12.34 -41 11.68 -41 11 C-29.33647998 -0.24164802 -15.92413169 -6.06633588 0 0 Z " fill="#F4814E" transform="translate(211,100)"/>
<path d="M0 0 C2.625 -0.1875 2.625 -0.1875 5 0 C3.68 0.33 2.36 0.66 1 1 C1 6.94 1 12.88 1 19 C0.34 19.33 -0.32 19.66 -1 20 C-1 19.01 -1 18.02 -1 17 C-2.65 17 -4.3 17 -6 17 C-6 14.69 -6 12.38 -6 10 C-4.68 9.67 -3.36 9.34 -2 9 C-3.32 8.67 -4.64 8.34 -6 8 C-6 6.35 -6 4.7 -6 3 C-4.68 3 -3.36 3 -2 3 C-1.34 2.01 -0.68 1.02 0 0 Z " fill="#EEF3F9" transform="translate(234,133)"/>
<path d="M0 0 C4.29 0 8.58 0 13 0 C12.67 0.66 12.34 1.32 12 2 C11.84323225 4.69655446 11.74163685 7.37129977 11.68359375 10.0703125 C11.66281265 10.86654022 11.64203156 11.66276794 11.62062073 12.48312378 C11.55515851 15.03032685 11.49625585 17.57763425 11.4375 20.125 C11.3943116 21.85027127 11.35069721 23.57553193 11.30664062 25.30078125 C11.19948055 29.53374685 11.09820377 33.76681753 11 38 C10.67 38 10.34 38 10 38 C9.67 28.1 9.34 18.2 9 8 C7.02 8 5.04 8 3 8 C3 6.02 3 4.04 3 2 C2.01 1.67 1.02 1.34 0 1 C0 0.67 0 0.34 0 0 Z " fill="#3282C0" transform="translate(203,156)"/>
<path d="M0 0 C0.66 0 1.32 0 2 0 C2 0.66 2 1.32 2 2 C2.66 2 3.32 2 4 2 C4 1.34 4 0.68 4 0 C12.03501094 -0.78774617 12.03501094 -0.78774617 16.0625 2.5 C16.701875 3.325 17.34125 4.15 18 5 C17.45730469 5.17015625 16.91460937 5.3403125 16.35546875 5.515625 C10.69466529 7.42025405 10.69466529 7.42025405 7 12 C6.38125 10.88625 6.38125 10.88625 5.75 9.75 C4.11678763 6.94971894 4.11678763 6.94971894 1.8125 4.875 C0 3 0 3 0 0 Z " fill="#F26323" transform="translate(77,149)"/>
<path d="M0 0 C0 2.62113708 -0.31292445 4.50935112 -1 7 C0.35544922 7.18175781 0.35544922 7.18175781 1.73828125 7.3671875 C2.91777344 7.53476563 4.09726563 7.70234375 5.3125 7.875 C6.48425781 8.03742188 7.65601563 8.19984375 8.86328125 8.3671875 C12 9 12 9 15 11 C9.39 11 3.78 11 -2 11 C-2 11.66 -2 12.32 -2 13 C0.31 12.34 2.62 11.68 5 11 C3.68 12.32 2.36 13.64 1 15 C-2.3 14.01 -5.6 13.02 -9 12 C-7.68 11.67 -6.36 11.34 -5 11 C-3.66666667 8 -3.66666667 8 -5 5 C-6.98 5.66 -8.96 6.32 -11 7 C-8.81482901 4.59424393 -6.74080329 3.20464419 -3.8125 1.8125 C-2.73935547 1.29623047 -2.73935547 1.29623047 -1.64453125 0.76953125 C-1.10183594 0.51558594 -0.55914062 0.26164062 0 0 Z " fill="#F37239" transform="translate(139,106)"/>
<path d="M0 0 C1.65 0 3.3 0 5 0 C5.33 6.27 5.66 12.54 6 19 C3.69 19 1.38 19 -1 19 C-0.67 12.73 -0.34 6.46 0 0 Z " fill="#296CBB" transform="translate(284,134)"/>
<path d="M0 0 C1.93627769 -0.10807131 3.87427756 -0.1856225 5.8125 -0.25 C7.43091797 -0.31960937 7.43091797 -0.31960937 9.08203125 -0.390625 C12 0 12 0 13.88671875 1.828125 C15 4 15 4 15 7 C11.37 7 7.74 7 4 7 C3.67 10.96 3.34 14.92 3 19 C2.67 19 2.34 19 2 19 C1.93941406 17.79601562 1.87882813 16.59203125 1.81640625 15.3515625 C1.73200268 13.77602923 1.64735459 12.20050904 1.5625 10.625 C1.50352539 9.43390625 1.50352539 9.43390625 1.44335938 8.21875 C1.31106596 3.97398779 1.31106596 3.97398779 0 0 Z " fill="#4078B3" transform="translate(236,204)"/>
<path d="M0 0 C-0.309375 0.763125 -0.61875 1.52625 -0.9375 2.3125 C-2.33802581 7.17314841 -2.65979734 11.96858173 -3 17 C-5.52480693 14.47519307 -5.55738633 12.86176966 -6.125 9.375 C-6.29257813 8.37210938 -6.46015625 7.36921875 -6.6328125 6.3359375 C-6.75398438 5.56507813 -6.87515625 4.79421875 -7 4 C-7.99 4 -8.98 4 -10 4 C-10.99 7.465 -10.99 7.465 -12 11 C-12.33 11 -12.66 11 -13 11 C-13 8.03 -13 5.06 -13 2 C-8.22169095 -0.91360308 -5.44893869 -1.19876651 0 0 Z " fill="#FEF3ED" transform="translate(99,155)"/>
<path d="M0 0 C3.63 0 7.26 0 11 0 C11 2.64 11 5.28 11 8 C7.37 8 3.74 8 0 8 C0 5.36 0 2.72 0 0 Z " fill="#1267AF" transform="translate(260,205)"/>
<path d="M0 0 C5.94 0 11.88 0 18 0 C18 1.65 18 3.3 18 5 C15.03 5 12.06 5 9 5 C9 5.33 9 5.66 9 6 C2.25 6.125 2.25 6.125 0 5 C0 3.35 0 1.7 0 0 Z " fill="#0A90D4" transform="translate(310,205)"/>
<path d="M0 0 C5.61 0 11.22 0 17 0 C17 0.66 17 1.32 17 2 C18.32 2.33 19.64 2.66 21 3 C21 3.66 21 4.32 21 5 C15.06 5 9.12 5 3 5 C3 4.01 3 3.02 3 2 C2.01 1.67 1.02 1.34 0 1 C0 0.67 0 0.34 0 0 Z " fill="#1190D2" transform="translate(279,156)"/>
<path d="M0 0 C0.13277344 0.85464844 0.26554687 1.70929688 0.40234375 2.58984375 C0.57894531 3.69457031 0.75554687 4.79929688 0.9375 5.9375 C1.19853516 7.59072266 1.19853516 7.59072266 1.46484375 9.27734375 C1.71845136 11.90426929 1.71845136 11.90426929 3 13 C3.33 12.01 3.66 11.02 4 10 C5.17561146 11.09463822 6.3402489 12.20107186 7.5 13.3125 C8.1496875 13.92738281 8.799375 14.54226562 9.46875 15.17578125 C11 17 11 17 11 20 C10.01 19.67 9.02 19.34 8 19 C7.67 18.34 7.34 17.68 7 17 C6.34 18.32 5.68 19.64 5 21 C4.5875 20.443125 4.175 19.88625 3.75 19.3125 C2.49736177 17.65722805 1.20007023 16.0353788 -0.125 14.4375 C-3.52574049 10.01653736 -3.08740283 6.3315727 -3 1 C-1 0 -1 0 0 0 Z " fill="#F36C30" transform="translate(98,233)"/>
<path d="M0 0 C0.8559375 0.00902344 1.711875 0.01804687 2.59375 0.02734375 C3.2228125 0.03894531 3.851875 0.05054687 4.5 0.0625 C4.5 0.3925 4.5 0.7225 4.5 1.0625 C3.87134033 1.15748779 3.24268066 1.25247559 2.5949707 1.3503418 C-13.54858022 3.74929179 -13.54858022 3.74929179 -28.87890625 9.109375 C-31.89283209 10.20534803 -34.31734464 10.2307461 -37.5 10.0625 C-33.14863182 5.90610147 -28.8696022 4.75020139 -23.1875 3.375 C-22.37087891 3.16294922 -21.55425781 2.95089844 -20.71289062 2.73242188 C-13.83776426 0.99583617 -7.11987587 -0.09888716 0 0 Z " fill="#F3733A" transform="translate(148.5,123.9375)"/>
<path d="M0 0 C0.99 0.33 1.98 0.66 3 1 C2.58427734 1.77923828 2.58427734 1.77923828 2.16015625 2.57421875 C1.79792969 3.27160156 1.43570313 3.96898437 1.0625 4.6875 C0.70285156 5.37199219 0.34320313 6.05648437 -0.02734375 6.76171875 C-4.34867638 16.70599023 -1.95872097 29.53966941 -1 40 C-3.90779138 35.63831293 -4.12463015 32.43462629 -4.09765625 27.24609375 C-4.09443359 26.14458984 -4.09121094 25.04308594 -4.08789062 23.90820312 C-4.07951172 22.76287109 -4.07113281 21.61753906 -4.0625 20.4375 C-4.05798828 19.28830078 -4.05347656 18.13910156 -4.04882812 16.95507812 C-4.04010295 14.8273821 -4.02932787 12.69969283 -4.01586914 10.57202148 C-4.00440969 8.71470881 -4 6.85734803 -4 5 C-2 2.3125 -2 2.3125 0 0 Z " fill="#F47B45" transform="translate(170,147)"/>
<path d="M0 0 C4.02988242 0.87256713 5.6708208 1.56421828 8.1953125 4.90625 C8.85961444 6.09261041 9.5021318 7.29137131 10.125 8.5 C10.63148071 9.43743042 10.63148071 9.43743042 11.14819336 10.39379883 C16.73111773 20.9144797 16.73111773 20.9144797 18 26 C17.67 26.99 17.34 27.98 17 29 C16.39671875 27.83082031 15.7934375 26.66164062 15.171875 25.45703125 C14.36486878 23.90870536 13.55756116 22.36053653 12.75 20.8125 C12.35425781 20.04357422 11.95851562 19.27464844 11.55078125 18.48242188 C9.3551487 14.28912364 7.09068014 10.61803161 4 7 C2.55663597 4.70130914 1.21323232 2.42646464 0 0 Z " fill="#F36A2D" transform="translate(123,150)"/>
<path d="M0 0 C5.28 0 10.56 0 16 0 C16 1.32 16 2.64 16 4 C13.94921875 4.22786458 11.8984375 4.45572917 9.84765625 4.68359375 C7.98859771 4.81886614 7.98859771 4.81886614 7 6 C5.00041636 6.04080783 2.99954746 6.04254356 1 6 C0.67 4.02 0.34 2.04 0 0 Z " fill="#02A3E6" transform="translate(260,157)"/>
<path d="M0 0 C5.04300576 2.24133589 10.46786446 5.92964902 12.984375 10.97265625 C13.23703125 11.66230469 13.4896875 12.35195312 13.75 13.0625 C14.01296875 13.75472656 14.2759375 14.44695312 14.546875 15.16015625 C15 17 15 17 14 19 C13.34 19 12.68 19 12 19 C12 18.34 12 17.68 12 17 C11.34 17 10.68 17 10 17 C9.67 17.66 9.34 18.32 9 19 C8.66430703 17.37548581 8.3315204 15.75037083 8 14.125 C7.814375 13.22007812 7.62875 12.31515625 7.4375 11.3828125 C7 9 7 9 7 7 C6.401875 6.95875 5.80375 6.9175 5.1875 6.875 C3 6 3 6 1.25 2.9375 C0.8375 1.968125 0.425 0.99875 0 0 Z " fill="#F36F33" transform="translate(67,132)"/>
<path d="M0 0 C6.27 0 12.54 0 19 0 C19 0.33 19 0.66 19 1 C15.7 1 12.4 1 9 1 C9 4.3 9 7.6 9 11 C8.34 11 7.68 11 7 11 C7 13.64 7 16.28 7 19 C6.67 19 6.34 19 6 19 C6 13.39 6 7.78 6 2 C4.35 1.67 2.7 1.34 1 1 C1 3.31 1 5.62 1 8 C0.01 8 -0.98 8 -2 8 C-2 6.02 -2 4.04 -2 2 C-1.34 2 -0.68 2 0 2 C0 1.34 0 0.68 0 0 Z " fill="#E4ECF6" transform="translate(214,133)"/>
<path d="M0 0 C1.18618775 3.55856325 0.41937496 5.49010996 -0.453125 9.0390625 C-1.60530603 15.2772998 -1.70498474 21.67269899 -2 28 C-2.33 28 -2.66 28 -3 28 C-3.33 30.31 -3.66 32.62 -4 35 C-4.99 34.67 -5.98 34.34 -7 34 C-6.34 34 -5.68 34 -5 34 C-5.03480469 32.83984375 -5.06960937 31.6796875 -5.10546875 30.484375 C-5.32778108 19.79733989 -5.17361993 9.67241987 0 0 Z " fill="#F58554" transform="translate(147,189)"/>
<path d="M0 0 C6.84175041 -0.53197195 13.05458796 0.23708329 19.6875 1.8125 C20.38738037 1.97782227 21.08726074 2.14314453 21.80834961 2.31347656 C26.69293333 3.53218393 31.31315176 5.16418627 36 7 C32.45162773 8.01035231 30.56162899 7.80606441 27 6.75 C18.14359236 4.35965117 9.07086369 3.26382587 0 2 C0 1.34 0 0.68 0 0 Z " fill="#F58C5C" transform="translate(117,143)"/>
<path d="M0 0 C22.80127986 -0.41277905 22.80127986 -0.41277905 32 2 C31.34 2.33 30.68 2.66 30 3 C30 3.66 30 4.32 30 5 C28.77990234 4.80083984 28.77990234 4.80083984 27.53515625 4.59765625 C18.0260672 3.13225108 8.60358068 2.44181122 -1 2 C-0.67 1.34 -0.34 0.68 0 0 Z " fill="#F47D47" transform="translate(244,94)"/>
<path d="M0 0 C1.65 0 3.3 0 5 0 C7 2 7 2 7.3125 5.5 C7.209375 6.655 7.10625 7.81 7 9 C4 11 4 11 0 11 C0 7.37 0 3.74 0 0 Z " fill="#FAFBFC" transform="translate(290,163)"/>
<path d="M0 0 C-0.89203125 0.53109375 -1.7840625 1.0621875 -2.703125 1.609375 C-3.88559952 2.3226136 -5.06788103 3.03617227 -6.25 3.75 C-6.83652344 4.09804687 -7.42304687 4.44609375 -8.02734375 4.8046875 C-10.72092857 6.43899739 -13.01647565 8.01670608 -15.234375 10.265625 C-17 12 -17 12 -20 12 C-19.796875 9.69921875 -19.796875 9.69921875 -19 7 C-16.890625 5.26953125 -16.890625 5.26953125 -14.25 3.8125 C-13.38890625 3.32394531 -12.5278125 2.83539063 -11.640625 2.33203125 C-4.04653348 -1.4987161 -4.04653348 -1.4987161 0 0 Z " fill="#F36B2F" transform="translate(86,120)"/>
<path d="M0 0 C0 3 0 3 -2 6 C-2.94875 6.268125 -3.8975 6.53625 -4.875 6.8125 C-8.8747652 8.33241078 -9.93569847 10.34777422 -12 14 C-14.475 13.01 -14.475 13.01 -17 12 C-16.73046875 10.1328125 -16.73046875 10.1328125 -16 8 C-14.36328125 6.8046875 -14.36328125 6.8046875 -12.3125 5.875 C-11.59449219 5.545 -10.87648438 5.215 -10.13671875 4.875 C-7.46736866 3.78188406 -4.73553546 2.91184515 -2 2 C-1.34 1.34 -0.68 0.68 0 0 Z " fill="#F36F33" transform="translate(90,123)"/>
<path d="M0 0 C4.29 0 8.58 0 13 0 C12.67 1.98 12.34 3.96 12 6 C8.37 6 4.74 6 1 6 C0.67 4.02 0.34 2.04 0 0 Z " fill="#088CD0" transform="translate(217,205)"/>
<path d="M0 0 C1.65 0 3.3 0 5 0 C7 2 7 2 7.3125 4.9375 C7 8 7 8 5.75 9.875 C4 11 4 11 0 11 C0 7.37 0 3.74 0 0 Z " fill="#FAFBFC" transform="translate(242,163)"/>
<path d="M0 0 C1.62447724 2.88868735 2.27149738 5.14134975 2.5 8.4375 C2.81888583 11.95104201 3.44677713 14.79000606 5 18 C2.625 17.75 2.625 17.75 0 17 C-1.99573039 13.99282801 -2.27148868 11.49924867 -2.25 7.9375 C-2.25515625 7.08027344 -2.2603125 6.22304687 -2.265625 5.33984375 C-2 3 -2 3 0 0 Z " fill="#F58547" transform="translate(96,207)"/>
<path d="M0 0 C1.65 0.33 3.3 0.66 5 1 C5.66 2.98 6.32 4.96 7 7 C5.02 7 3.04 7 1 7 C1 6.34 1 5.68 1 5 C-1.64 5 -4.28 5 -7 5 C-7.33 5.99 -7.66 6.98 -8 8 C-9.98 8 -11.96 8 -14 8 C-14 6.68 -14 5.36 -14 4 C-6.08 3.505 -6.08 3.505 2 3 C2 2.34 2 1.68 2 1 C1.34 0.67 0.68 0.34 0 0 Z " fill="#0C7FC5" transform="translate(248,157)"/>
<path d="M0 0 C3.9790044 1.3263348 6.91229595 3.30354395 10.234375 5.7734375 C12.16416959 7.17983967 12.16416959 7.17983967 15.1875 8.5625 C18.1168997 10.05974874 19.76357113 11.61928539 22 14 C23.65191491 15.35156675 25.31522656 16.68962066 27 18 C26.67 18.66 26.34 19.32 26 20 C23.07316793 18.53658396 20.63224647 16.44350765 18.0625 14.4375 C12.77531929 10.33036749 7.41140171 6.36871134 1.94921875 2.49609375 C1.30597656 2.00238281 0.66273438 1.50867188 0 1 C0 0.67 0 0.34 0 0 Z " fill="#F37036" transform="translate(309,128)"/>
<path d="M0 0 C0.66 0 1.32 0 2 0 C4.33333333 4.66666667 6.66666667 9.33333333 9 14 C7.02 14.33 5.04 14.66 3 15 C1.094753 9.89665983 -0.42589023 5.53657294 0 0 Z " fill="#FDF0EB" transform="translate(103,212)"/>
<path d="M0 0 C0.33 0 0.66 0 1 0 C1 1.65 1 3.3 1 5 C4.63 5 8.26 5 12 5 C12.33 4.34 12.66 3.68 13 3 C13.99 4.32 14.98 5.64 16 7 C12.99686252 8.50156874 10.20932478 8.09281204 6.875 8.0625 C5.59367188 8.05347656 4.31234375 8.04445312 2.9921875 8.03515625 C1.51105469 8.01775391 1.51105469 8.01775391 0 8 C0 5.36 0 2.72 0 0 Z " fill="#1A5BA3" transform="translate(239,206)"/>
<path d="M0 0 C0.66 0.33 1.32 0.66 2 1 C-0.08310086 2.60446931 -2.16647227 4.20858518 -4.25 5.8125 C-5.12978516 6.49022461 -5.12978516 6.49022461 -6.02734375 7.18164062 C-9.00457848 9.4731078 -11.98719555 11.75531153 -15 14 C-15 12.68 -15 11.36 -15 10 C-13 8.25 -13 8.25 -11 7 C-11.99 6.34 -12.98 5.68 -14 5 C-13.11248047 4.83564453 -13.11248047 4.83564453 -12.20703125 4.66796875 C-7.51516159 3.72653324 -4.07640011 2.5940728 0 0 Z " fill="#F37238" transform="translate(126,113)"/>
<path d="M0 0 C0.66 0 1.32 0 2 0 C2 0.66 2 1.32 2 2 C2.58265625 1.855625 3.1653125 1.71125 3.765625 1.5625 C10.58340445 0.01885182 17.02694354 -0.21566154 24 0 C24 0.33 24 0.66 24 1 C23.26394531 1.03738281 22.52789062 1.07476562 21.76953125 1.11328125 C15.78318705 1.37435546 15.78318705 1.37435546 10.375 3.625 C6.65303601 5.77982126 3.10378413 4.74207861 -1 4 C-1 1 -1 1 0 0 Z " fill="#2267AC" transform="translate(279,209)"/>
<path d="M0 0 C1.89492188 0.01353516 1.89492188 0.01353516 3.828125 0.02734375 C4.79234375 0.03894531 5.7565625 0.05054688 6.75 0.0625 C6.42 1.0525 6.09 2.0425 5.75 3.0625 C-0.52 3.0625 -6.79 3.0625 -13.25 3.0625 C-9.46545136 -0.72204864 -5.14534429 -0.04764208 0 0 Z " fill="#02A1E5" transform="translate(298.25,204.9375)"/>
<path d="M0 0 C6.27 0 12.54 0 19 0 C18.01 1.485 18.01 1.485 17 3 C14.40152495 3.30395006 12.09360893 3.4186308 9.5 3.375 C8.81035156 3.38660156 8.12070313 3.39820313 7.41015625 3.41015625 C5.40625 3.3984375 5.40625 3.3984375 2 3 C1.34 2.01 0.68 1.02 0 0 Z " fill="#049CDF" transform="translate(163,205)"/>
<path d="M0 0 C0.99 0.495 0.99 0.495 2 1 C1.67 2.98 1.34 4.96 1 7 C2.98 7 4.96 7 7 7 C7 6.01 7 5.02 7 4 C10.3 4 13.6 4 17 4 C17 4.33 17 4.66 17 5 C14.03 5 11.06 5 8 5 C8.33 5.99 8.66 6.98 9 8 C8.67 8.99 8.34 9.98 8 11 C5.69 11 3.38 11 1 11 C-0.28317892 7.15046324 -0.06643637 4.05261865 0 0 Z " fill="#1C5BA3" transform="translate(183,157)"/>
<path d="M0 0 C5.28 0 10.56 0 16 0 C16 0.99 16 1.98 16 3 C10.39 3 4.78 3 -1 3 C-0.67 2.01 -0.34 1.02 0 0 Z " fill="#02A3E5" transform="translate(185,157)"/>
<path d="M0 0 C0.66 0.33 1.32 0.66 2 1 C2 1.66 2 2.32 2 3 C0.29870914 3.84761822 -1.41143084 4.6774868 -3.125 5.5 C-4.55199219 6.19609375 -4.55199219 6.19609375 -6.0078125 6.90625 C-9.25779218 8.09423213 -11.56782345 8.35002367 -15 8 C-15.66 7.34 -16.32 6.68 -17 6 C-16.10796875 5.73445313 -15.2159375 5.46890625 -14.296875 5.1953125 C-13.12640625 4.84210938 -11.9559375 4.48890625 -10.75 4.125 C-9.58984375 3.77695313 -8.4296875 3.42890625 -7.234375 3.0703125 C-4.09398948 2.12654671 -4.09398948 2.12654671 -1.703125 0.8046875 C-1.14109375 0.53914063 -0.5790625 0.27359375 0 0 Z " fill="#F37238" transform="translate(323,96)"/>
<path d="M0 0 C1.5 1 1.5 1 3 3 C3.27345479 5.71846235 3.13491285 8.25677199 3 11 C2.67 11 2.34 11 2 11 C2 9.35 2 7.7 2 6 C0.6078125 6.061875 0.6078125 6.061875 -0.8125 6.125 C-4 6 -4 6 -7 4 C-8.65 3.67 -10.3 3.34 -12 3 C-12 6.63 -12 10.26 -12 14 C-12.33 14 -12.66 14 -13 14 C-13 10.04 -13 6.08 -13 2 C-10.36 2 -7.72 2 -5 2 C-5 2.66 -5 3.32 -5 4 C-3.02 4 -1.04 4 1 4 C0.67 2.68 0.34 1.36 0 0 Z " fill="#396CAB" transform="translate(254,160)"/>
<path d="M0 0 C1.98 0.66 3.96 1.32 6 2 C6 2.66 6 3.32 6 4 C10.62 4 15.24 4 20 4 C20 4.99 20 5.98 20 7 C19.113125 6.855625 18.22625 6.71125 17.3125 6.5625 C11.57406419 5.73256094 5.78045724 5.40854359 0 5 C-0.33 4.01 -0.66 3.02 -1 2 C-0.67 1.34 -0.34 0.68 0 0 Z " fill="#F58452" transform="translate(95,150)"/>
<path d="M0 0 C1.32 0.33 2.64 0.66 4 1 C3.29423828 1.75023437 3.29423828 1.75023437 2.57421875 2.515625 C0.49989237 5.78925174 0.2009961 8.97909289 -0.1875 12.75 C-0.26935547 13.44738281 -0.35121094 14.14476562 -0.43554688 14.86328125 C-0.63477133 16.57426776 -0.81889929 18.28700037 -1 20 C-3.97093503 15.54359745 -3.51397346 11.2291213 -3 6 C-1.5 2.3125 -1.5 2.3125 0 0 Z " fill="#F36D27" transform="translate(99,155)"/>
<path d="M0 0 C0 0.99 0 1.98 0 3 C-4.95 4.485 -4.95 4.485 -10 6 C-10 5.34 -10 4.68 -10 4 C-11.98 4.66 -13.96 5.32 -16 6 C-16.66 5.34 -17.32 4.68 -18 4 C-14.68926459 2.09672699 -11.63400513 1.45686075 -7.875 0.875 C-6.29332031 0.62363281 -6.29332031 0.62363281 -4.6796875 0.3671875 C-2 0 -2 0 0 0 Z " fill="#F3743A" transform="translate(205,58)"/>
<path d="M0 0 C4.95 0 9.9 0 15 0 C14.67 0.99 14.34 1.98 14 3 C9.38 3 4.76 3 0 3 C0 2.01 0 1.02 0 0 Z " fill="#0797DB" transform="translate(193,205)"/>
<path d="M0 0 C2.0625 1.75 2.0625 1.75 4 4 C3.75 6.25 3.75 6.25 3 8 C1.02 8 -0.96 8 -3 8 C-3.33 8.99 -3.66 9.98 -4 11 C-4.66 9.02 -5.32 7.04 -6 5 C-7.65 4.67 -9.3 4.34 -11 4 C-11 3.67 -11 3.34 -11 3 C-8.69 3 -6.38 3 -4 3 C-4 3.66 -4 4.32 -4 5 C-2.35 4.67 -0.7 4.34 1 4 C0.67 2.68 0.34 1.36 0 0 Z " fill="#2E6AAC" transform="translate(301,159)"/>
<path d="M0 0 C0.33 0 0.66 0 1 0 C1 2.31 1 4.62 1 7 C3.31 7 5.62 7 8 7 C8.33 6.01 8.66 5.02 9 4 C9 7.96 9 11.92 9 16 C8.67 16 8.34 16 8 16 C8 14.02 8 12.04 8 10 C5.36 10 2.72 10 0 10 C0 6.7 0 3.4 0 0 Z " fill="#21539A" transform="translate(281,158)"/>
<path d="M0 0 C2.64 0 5.28 0 8 0 C8.66 1.32 9.32 2.64 10 4 C9 5 9 5 7.15234375 5.09765625 C5.1015625 5.06510417 3.05078125 5.03255208 1 5 C0.67 3.35 0.34 1.7 0 0 Z " fill="#088FD3" transform="translate(239,205)"/>
<path d="M0 0 C4.29 0 8.58 0 13 0 C12.67 0.66 12.34 1.32 12 2 C11.01 2 10.02 2 9 2 C9 2.99 9 3.98 9 5 C7.02 5 5.04 5 3 5 C3 4.01 3 3.02 3 2 C2.01 1.67 1.02 1.34 0 1 C0 0.67 0 0.34 0 0 Z " fill="#1483C7" transform="translate(217,156)"/>
<path d="M0 0 C2.625 -0.1875 2.625 -0.1875 5 0 C3.68 0.33 2.36 0.66 1 1 C1 3.31 1 5.62 1 8 C-1.31 8 -3.62 8 -6 8 C-6 6.35 -6 4.7 -6 3 C-4.68 3 -3.36 3 -2 3 C-1.34 2.01 -0.68 1.02 0 0 Z " fill="#D5E2F1" transform="translate(234,133)"/>
<path d="M0 0 C0.66 0.33 1.32 0.66 2 1 C-2.23153838 3.75102495 -6.24903455 6.23535569 -11 8 C-11.99 8.66 -12.98 9.32 -14 10 C-14 9.34 -14 8.68 -14 8 C-14.99 7.67 -15.98 7.34 -17 7 C-17 6.34 -17 5.68 -17 5 C-16.10796875 4.80664062 -15.2159375 4.61328125 -14.296875 4.4140625 C-13.12640625 4.15367188 -11.9559375 3.89328125 -10.75 3.625 C-9.58984375 3.36976562 -8.4296875 3.11453125 -7.234375 2.8515625 C-4.08219823 2.14272416 -4.08219823 2.14272416 -1.703125 0.8359375 C-0.86007813 0.42214844 -0.86007813 0.42214844 0 0 Z " fill="#F47E49" transform="translate(185,117)"/>
<path d="M0 0 C0.66 0.33 1.32 0.66 2 1 C-0.09525951 4.96996539 -2.23498423 7.52059937 -6 10 C-7.32 10 -8.64 10 -10 10 C-10 9.34 -10 8.68 -10 8 C-8.38542921 6.56418526 -6.70780925 5.19855217 -5 3.875 C-4.071875 3.15054688 -3.14375 2.42609375 -2.1875 1.6796875 C-1.465625 1.12539062 -0.74375 0.57109375 0 0 Z " fill="#F26425" transform="translate(180,103)"/>
<path d="M0 0 C3.63 0 7.26 0 11 0 C10.67 1.32 10.34 2.64 10 4 C6.7 4 3.4 4 0 4 C0 2.68 0 1.36 0 0 Z " fill="#0695D9" transform="translate(260,205)"/>
<path d="M0 0 C0.33 0 0.66 0 1 0 C1.185625 1.1446875 1.185625 1.1446875 1.375 2.3125 C1.88102792 5.20267136 1.88102792 5.20267136 4 8 C4.4140625 10.26171875 4.4140625 10.26171875 4.625 12.6875 C4.69976562 13.49574219 4.77453125 14.30398437 4.8515625 15.13671875 C4.92503906 16.05904297 4.92503906 16.05904297 5 17 C1.54583944 13.86602848 0.07643627 10.50069023 -1 6 C-0.6875 2.5 -0.6875 2.5 0 0 Z " fill="#F68F61" transform="translate(85,159)"/>
<path d="M0 0 C0.66 0.33 1.32 0.66 2 1 C1.95875 1.886875 1.9175 2.77375 1.875 3.6875 C1.99897246 6.97277013 2.61387904 9.05449295 4 12 C2.68 11.34 1.36 10.68 0 10 C-0.66 11.32 -1.32 12.64 -2 14 C-2.33 10.7 -2.66 7.4 -3 4 C-2.34 4 -1.68 4 -1 4 C-0.67 2.68 -0.34 1.36 0 0 Z " fill="#F58756" transform="translate(117,241)"/>
<path d="M0 0 C0.33 0 0.66 0 1 0 C1.12375 0.78375 1.2475 1.5675 1.375 2.375 C1.79117993 5.14057822 1.79117993 5.14057822 4 7 C4.125 9.625 4.125 9.625 4 12 C3.34 12 2.68 12 2 12 C1.34 11.01 0.68 10.02 0 9 C-0.99 8.67 -1.98 8.34 -3 8 C-1.125 1.125 -1.125 1.125 0 0 Z " fill="#F58452" transform="translate(133,227)"/>
<path d="M0 0 C0.33 0 0.66 0 1 0 C1 1.98 1 3.96 1 6 C4.465 5.505 4.465 5.505 8 5 C7.67 6.65 7.34 8.3 7 10 C5.00045254 10.04254356 2.99958364 10.04080783 1 10 C0 9 0 9 -0.09765625 6.93359375 C-0.08605469 6.10988281 -0.07445312 5.28617188 -0.0625 4.4375 C-0.05347656 3.61121094 -0.04445312 2.78492188 -0.03515625 1.93359375 C-0.02355469 1.29550781 -0.01195312 0.65742188 0 0 Z " fill="#1659A2" transform="translate(205,158)"/>
<path d="M0 0 C3.0171926 2.55573961 4.2432533 5.38380793 5.75 9 C6.19859375 10.051875 6.6471875 11.10375 7.109375 12.1875 C8 15 8 15 7 18 C5.63336613 15.56876731 4.2816133 13.13113837 2.9375 10.6875 C2.35258789 9.65206055 2.35258789 9.65206055 1.75585938 8.59570312 C0.75962517 6.77074312 -0.12752842 4.88726123 -1 3 C-0.67 2.01 -0.34 1.02 0 0 Z " fill="#F4763E" transform="translate(133,161)"/>
<path d="M0 0 C0.33 0 0.66 0 1 0 C1 2.31 1 4.62 1 7 C4.465 6.505 4.465 6.505 8 6 C8 7.32 8 8.64 8 10 C5.69 10 3.38 10 1 10 C0.67 11.32 0.34 12.64 0 14 C0 9.38 0 4.76 0 0 Z " fill="#22579E" transform="translate(260,158)"/>
<path d="M0 0 C-0.33 0.66 -0.66 1.32 -1 2 C-1.66 2 -2.32 2 -3 2 C-3 2.66 -3 3.32 -3 4 C-3.99 4 -4.98 4 -6 4 C-6.99 7.465 -6.99 7.465 -8 11 C-8.33 11 -8.66 11 -9 11 C-9 8.03 -9 5.06 -9 2 C-3.375 -1.125 -3.375 -1.125 0 0 Z " fill="#FCE4DA" transform="translate(95,155)"/>
<path d="M0 0 C6.40629424 -0.20852314 11.92972642 -0.1583195 18 2 C18 2.33 18 2.66 18 3 C11.88514973 3.09706112 6.06696699 2.77040851 0 2 C0 1.34 0 0.68 0 0 Z " fill="#F37136" transform="translate(117,143)"/>
<path d="M0 0 C0 0.33 0 0.66 0 1 C-2.70638754 1.53344164 -5.41427204 2.05200929 -8.125 2.5625 C-8.88554687 2.71396484 -9.64609375 2.86542969 -10.4296875 3.02148438 C-14.91935602 3.85362121 -18.47895227 4.09054027 -23 3 C-23 2.67 -23 2.34 -23 2 C-15.26940505 0.64290496 -7.85546636 -0.31918373 0 0 Z " fill="#F4814D" transform="translate(153,124)"/>
<path d="M0 0 C1.04940487 3.14821462 0.98606526 3.9349491 0.22265625 7.01171875 C0.03896484 7.76904297 -0.14472656 8.52636719 -0.33398438 9.30664062 C-0.53314453 10.09232422 -0.73230469 10.87800781 -0.9375 11.6875 C-1.13279297 12.48478516 -1.32808594 13.28207031 -1.52929688 14.10351562 C-2.01228382 16.07080389 -2.5051963 18.03565054 -3 20 C-3.33 20 -3.66 20 -4 20 C-4.58179863 12.40429561 -3.26889853 6.85884959 0 0 Z " fill="#F4753C" transform="translate(147,189)"/>
<path d="M0 0 C0.66 0 1.32 0 2 0 C1.719172 1.98073365 1.42503386 3.95958448 1.125 5.9375 C0.96257812 7.03964844 0.80015625 8.14179687 0.6328125 9.27734375 C0.42398438 10.17582031 0.21515625 11.07429688 0 12 C-0.99 12.495 -0.99 12.495 -2 13 C-2.144375 12.21625 -2.28875 11.4325 -2.4375 10.625 C-2.87798925 8.03578982 -2.87798925 8.03578982 -4 6 C-2.7260411 3.96166576 -1.38938077 1.96147874 0 0 Z " fill="#F5814E" transform="translate(151,79)"/>
<path d="M0 0 C6.93 0.495 6.93 0.495 14 1 C14 1.66 14 2.32 14 3 C8.72 3 3.44 3 -2 3 C-1.34 2.01 -0.68 1.02 0 0 Z " fill="#1C569E" transform="translate(189,211)"/>
<path d="M0 0 C1.98 0.99 1.98 0.99 4 2 C3.34 7.28 2.68 12.56 2 18 C1.67 18 1.34 18 1 18 C0.67 12.06 0.34 6.12 0 0 Z " fill="#F69266" transform="translate(157,175)"/>
<path d="M0 0 C0.66 0.33 1.32 0.66 2 1 C1.278125 1.70125 0.55625 2.4025 -0.1875 3.125 C-2.11334022 5.04538458 -3.89749497 7.02468994 -5.625 9.125 C-7.35087132 11.21421265 -9.03907374 13.14228039 -11 15 C-11.66 14.34 -12.32 13.68 -13 13 C-8.66666667 8.66666667 -4.33333333 4.33333333 0 0 Z " fill="#F4753C" transform="translate(176,59)"/>
<path d="M0 0 C2.57471193 1.28735597 2.70416657 2.28489811 3.6875 4.9375 C3.95949219 5.64777344 4.23148437 6.35804688 4.51171875 7.08984375 C5 9 5 9 4 11 C3.34 11 2.68 11 2 11 C-1.07692308 5.70769231 -1.07692308 5.70769231 -0.6875 2.125 C-0.460625 1.42375 -0.23375 0.7225 0 0 Z " fill="#F7A782" transform="translate(77,140)"/>
<path d="M0 0 C0.33 0.66 0.66 1.32 1 2 C-0.91666667 2.47916667 -2.83333333 2.95833333 -4.75 3.4375 C-5.81734375 3.70433594 -6.8846875 3.97117187 -7.984375 4.24609375 C-9.78645833 4.69661458 -11.58854167 5.14713542 -13.390625 5.59765625 C-13.92171875 5.73042969 -14.4528125 5.86320312 -15 6 C-12.74109621 3.48045346 -10.582103 2.12667267 -7.5 0.75 C-6.7265625 0.39421875 -5.953125 0.0384375 -5.15625 -0.328125 C-3 -1 -3 -1 0 0 Z " fill="#F4763F" transform="translate(246,81)"/>
<path d="M0 0 C0.33 1.32 0.66 2.64 1 4 C3.97 4.33 6.94 4.66 10 5 C10 5.99 10 6.98 10 8 C7.03 8 4.06 8 1 8 C0.67 5.36 0.34 2.72 0 0 Z " fill="#2664A8" transform="translate(309,206)"/>
<path d="M0 0 C1.32 0.33 2.64 0.66 4 1 C4.99 4.63 5.98 8.26 7 12 C1.33064516 6.62903226 1.33064516 6.62903226 0 3 C0 2.01 0 1.02 0 0 Z " fill="#F9B341" transform="translate(95,172)"/>
<path d="M0 0 C4.95 0.33 9.9 0.66 15 1 C15 1.33 15 1.66 15 2 C12.94921875 2.22786458 10.8984375 2.45572917 8.84765625 2.68359375 C6.98859771 2.81886614 6.98859771 2.81886614 6 4 C4.00041636 4.04080783 1.99954746 4.04254356 0 4 C0 2.68 0 1.36 0 0 Z " fill="#0989CE" transform="translate(261,159)"/>
<path d="M0 0 C2.35273568 3.52910353 2.40753493 4.84314368 2 9 C0.5 12.375 0.5 12.375 -1 15 C-1.66 14.67 -2.32 14.34 -3 14 C-2.01 9.38 -1.02 4.76 0 0 Z " fill="#F47D47" transform="translate(163,148)"/>
<path d="M0 0 C1.15518918 0.90484792 2.29885406 1.8244206 3.4375 2.75 C4.07558594 3.26046875 4.71367188 3.7709375 5.37109375 4.296875 C7.18810554 6.19667629 7.60423197 7.43586908 8 10 C3.94276923 8.64758974 2.50914581 6.39073758 0 3 C0 2.01 0 1.02 0 0 Z " fill="#F26729" transform="translate(101,243)"/>
<path d="M0 0 C0.99 0 1.98 0 3 0 C3 2.97 3 5.94 3 9 C2.01 9 1.02 9 0 9 C0 6.03 0 3.06 0 0 Z " fill="#F2F6FB" transform="translate(212,143)"/>
<path d="M0 0 C0.99 0 1.98 0 3 0 C2.67 1.32 2.34 2.64 2 4 C3.65 4 5.3 4 7 4 C6.67 4.66 6.34 5.32 6 6 C3.93359375 6.4140625 3.93359375 6.4140625 1.4375 6.625 C0.61121094 6.69976562 -0.21507812 6.77453125 -1.06640625 6.8515625 C-2.02353516 6.92503906 -2.02353516 6.92503906 -3 7 C-3 6.34 -3 5.68 -3 5 C-1 3.375 -1 3.375 1 2 C0.67 1.34 0.34 0.68 0 0 Z " fill="#F26221" transform="translate(222,52)"/>
<path d="M0 0 C0.33 0 0.66 0 1 0 C1 1.98 1 3.96 1 6 C0.34 6 -0.32 6 -1 6 C-0.67 7.98 -0.34 9.96 0 12 C-0.66 12 -1.32 12 -2 12 C-3.01911045 8.10885099 -3.16782969 6.39403493 -1.5625 2.625 C-1.046875 1.75875 -0.53125 0.8925 0 0 Z " fill="#F8A854" transform="translate(105,200)"/>
<path d="M0 0 C0 3 0 3 -2 6 C-2.99 5.67 -3.98 5.34 -5 5 C-8.15020361 5.88319294 -8.15020361 5.88319294 -11 7 C-8.81482901 4.59424393 -6.74080329 3.20464419 -3.8125 1.8125 C-2.73935547 1.29623047 -2.73935547 1.29623047 -1.64453125 0.76953125 C-1.10183594 0.51558594 -0.55914062 0.26164062 0 0 Z " fill="#F6966B" transform="translate(139,106)"/>
<path d="M0 0 C2.60334924 2.71182212 2.99456691 3.89133813 3.1875 7.75 C3.125625 8.8225 3.06375 9.895 3 11 C2.01 11.495 2.01 11.495 1 12 C0.63762737 10.37681021 0.28534843 8.7513642 -0.0625 7.125 C-0.25972656 6.22007812 -0.45695312 5.31515625 -0.66015625 4.3828125 C-1 2 -1 2 0 0 Z " fill="#F47B45" transform="translate(116,253)"/>
<path d="M0 0 C0.66 0.66 1.32 1.32 2 2 C1.55090939 3.48199902 1.09043436 4.96055236 0.625 6.4375 C0.24214844 7.67306641 0.24214844 7.67306641 -0.1484375 8.93359375 C-1 11 -1 11 -3 12 C-2.88601335 10.37419034 -2.75844341 8.74932843 -2.625 7.125 C-2.55539063 6.22007812 -2.48578125 5.31515625 -2.4140625 4.3828125 C-2 2 -2 2 0 0 Z " fill="#F47A43" transform="translate(110,251)"/>
<path d="M0 0 C0.99 0.33 1.98 0.66 3 1 C0.14723863 3.93200474 -2.65079784 6.64315404 -6 9 C-4.68775452 5.06326356 -3.08089673 2.77280706 0 0 Z " fill="#F4743B" transform="translate(206,79)"/>
<path d="M0 0 C2.475 0.495 2.475 0.495 5 1 C5.66 2.98 6.32 4.96 7 7 C5.02 7 3.04 7 1 7 C1 6.34 1 5.68 1 5 C2.32 5 3.64 5 5 5 C4.34 4.34 3.68 3.68 3 3 C2.67 2.34 2.34 1.68 2 1 C1.34 0.67 0.68 0.34 0 0 Z " fill="#187CBF" transform="translate(248,157)"/>
<path d="M0 0 C0 0.66 0 1.32 0 2 C-5.41538462 5.07692308 -5.41538462 5.07692308 -8.375 4.6875 C-8.91125 4.460625 -9.4475 4.23375 -10 4 C-9 2 -9 2 -6.125 0.875 C-3 0 -3 0 0 0 Z " fill="#F6976C" transform="translate(109,134)"/>
<path d="M0 0 C0.66666667 1.33333333 1.33333333 2.66666667 2 4 C2.391875 4.680625 2.78375 5.36125 3.1875 6.0625 C4 8 4 8 3 11 C0.9375 8.875 0.9375 8.875 -1 6 C-0.75 2.6875 -0.75 2.6875 0 0 Z " fill="#F37035" transform="translate(111,245)"/>
<path d="M0 0 C3.3 0.33 6.6 0.66 10 1 C10 1.66 10 2.32 10 3 C6.7 3 3.4 3 0 3 C0 2.01 0 1.02 0 0 Z " fill="#1C519A" transform="translate(277,212)"/>
<path d="M0 0 C-2.97 1.65 -5.94 3.3 -9 5 C-9.33 4.01 -9.66 3.02 -10 2 C-8.71211992 1.46987262 -7.41953322 0.9511671 -6.125 0.4375 C-5.40570313 0.14746094 -4.68640625 -0.14257812 -3.9453125 -0.44140625 C-2 -1 -2 -1 0 0 Z " fill="#FCE0D4" transform="translate(202,55)"/>
<path d="M0 0 C5 7.5 5 7.5 5 10 C1.125 8.25 1.125 8.25 0 6 C-0.039992 4.00039988 -0.04346799 1.99952758 0 0 Z " fill="#FCE3D8" transform="translate(96,215)"/>
<path d="M0 0 C3.87132028 0.57352893 6.08172796 2.48704352 9 5 C8.67 5.66 8.34 6.32 8 7 C4.92451017 5.46225508 2.5936934 3.25538557 0 1 C0 0.67 0 0.34 0 0 Z " fill="#F47942" transform="translate(327,141)"/>
<path d="M0 0 C2.475 0.99 2.475 0.99 5 2 C5 3.65 5 5.3 5 7 C4.01 7.495 4.01 7.495 3 8 C0 2.25 0 2.25 0 0 Z " fill="#F47840" transform="translate(99,246)"/>
<path d="M0 0 C0.99 0 1.98 0 3 0 C3.33 2.64 3.66 5.28 4 8 C1.10067643 5.60490662 0.49831724 3.68754757 0 0 Z " fill="#F58439" transform="translate(86,168)"/>
<path d="M0 0 C0.66 0.33 1.32 0.66 2 1 C1.67 1.99 1.34 2.98 1 4 C-2.0625 5.1875 -2.0625 5.1875 -5 6 C-3.35 4.02 -1.7 2.04 0 0 Z " fill="#FDE8DE" transform="translate(170,127)"/>
<path d="M0 0 C2.31 0 4.62 0 7 0 C5.8125 1.5 5.8125 1.5 4 3 C1.3125 3.1875 1.3125 3.1875 -1 3 C-0.67 2.01 -0.34 1.02 0 0 Z " fill="#F5824E" transform="translate(111,110)"/>
<path d="M0 0 C0 0.66 0 1.32 0 2 C-3.08809695 3.76462683 -4.23312136 4 -8 4 C-8 3.34 -8 2.68 -8 2 C-5.09399739 0.74335022 -3.20395416 0 0 0 Z " fill="#F26627" transform="translate(195,62)"/>
<path d="M0 0 C-2.46278801 2.46278801 -4.70676982 2.99771255 -8 4 C-8.66 3.34 -9.32 2.68 -10 2 C-6.5980513 -0.09350689 -3.94727588 -0.17942163 0 0 Z " fill="#F7A682" transform="translate(197,60)"/>
<path d="M0 0 C3.3 0 6.6 0 10 0 C10 0.99 10 1.98 10 3 C6.7 2.34 3.4 1.68 0 1 C0 0.67 0 0.34 0 0 Z " fill="#FDEAE2" transform="translate(105,154)"/>
<path d="M0 0 C-2.75924185 1.80411967 -3.88972103 2.0127245 -7.25 1.625 C-8.1575 1.41875 -9.065 1.2125 -10 1 C-10 0.67 -10 0.34 -10 0 C-6.30458414 -0.95024979 -3.69541586 -0.95024979 0 0 Z " fill="#F69367" transform="translate(140,126)"/>
<path d="M0 0 C1.32 0.66 2.64 1.32 4 2 C-1.75 5 -1.75 5 -4 5 C-3 2 -3 2 0 0 Z " fill="#F4743B" transform="translate(185,65)"/>
</svg>
