<?xml version="1.0" encoding="UTF-8"?>
<svg version="1.1" xmlns="http://www.w3.org/2000/svg" width="316" height="316">
<path d="M0 0 C104.28 0 208.56 0 316 0 C316 104.28 316 208.56 316 316 C211.72 316 107.44 316 0 316 C0 211.72 0 107.44 0 0 Z " fill="#FEFEFE" transform="translate(0,0)"/>
<path d="M0 0 C2 1 2 1 2.66796875 2.99609375 C2.92513672 4.20458984 2.92513672 4.20458984 3.1875 5.4375 C3.36667969 6.24058594 3.54585937 7.04367188 3.73046875 7.87109375 C4 10 4 10 3 12 C4.98 12.495 4.98 12.495 7 13 C7 14.32 7 15.64 7 17 C7.639375 17.103125 8.27875 17.20625 8.9375 17.3125 C9.618125 17.539375 10.29875 17.76625 11 18 C11.33 18.99 11.66 19.98 12 21 C10.35 21.33 8.7 21.66 7 22 C7.33 22.763125 7.66 23.52625 8 24.3125 C9 27 9 27 9 30 C9.928125 30.04125 10.85625 30.0825 11.8125 30.125 C20.16299475 31.36148299 27.41140875 36.44003559 32.57421875 42.93359375 C35.79486165 47.60132003 37.78641044 52.16398145 39.25 57.625 C40.40868049 61.44411447 41.6686562 62.70757868 45.0625 64.75 C48.16209782 66.74056741 48.89579926 67.64816429 49.96484375 71.2578125 C50.44609334 74.51063818 50.80523926 77.7182815 51 81 C51.65484375 81.10086914 52.3096875 81.20173828 52.984375 81.30566406 C60.23395106 82.51136686 67.04181153 84.40675401 74 86.75 C75.00289062 87.07226562 76.00578125 87.39453125 77.0390625 87.7265625 C84.17041146 90.10367882 90.48765008 93.27521433 97 97 C98.32813342 97.67696665 99.65960671 98.34764424 101 99 C88.94604678 90.16977846 75.57672418 81.46858762 60.6875 78.6875 C57.5546875 77.9375 57.5546875 77.9375 55 77 C53.06468289 73.77447148 53.0294021 71.70565039 52.875 68 C51.52084872 63.3571956 47.94412198 61.53358178 44 59 C48.42869015 57.62515938 51.72337043 58.83812208 56 60.25 C57.22940308 60.65001221 57.22940308 60.65001221 58.48364258 61.05810547 C79.48587094 68.06077524 99.35797712 76.81968326 119 87 C119 97.56 119 108.12 119 119 C126.92 119 134.84 119 143 119 C139.1981545 123.43548641 136.42794757 126.55637803 132.1875 130.125 C128.24850637 133.93842169 127.34003925 136.61046102 126.9375 142.0625 C126.91709617 144.04167114 126.92357804 146.0221996 127 148 C125.68 148.33 124.36 148.66 123 149 C123.81855469 149.72445312 124.63710938 150.44890625 125.48046875 151.1953125 C129.50387919 156.02340502 128.5308242 161.9231464 128.3125 167.875 C128.28994141 169.0403125 128.26738281 170.205625 128.24414062 171.40625 C128.18541297 174.27215945 128.10332875 177.13540922 128 180 C125.87717331 181.00460531 123.75166979 182.00355602 121.625 183 C120.44164062 183.556875 119.25828125 184.11375 118.0390625 184.6875 C115 186 115 186 113 186 C112.79697266 186.89525391 112.79697266 186.89525391 112.58984375 187.80859375 C107.42853932 208.60834156 96.86156852 227.05361862 84 244 C83.35160156 244.87398437 82.70320312 245.74796875 82.03515625 246.6484375 C62.91277837 271.26139913 37.9427097 289.37323097 10.75 304.04980469 C9.0994593 304.94599671 7.47070991 305.88199156 5.84375 306.8203125 C2.43593091 308.23399569 1.44570911 308.24065619 -2 307 C-5.02258421 305.63562844 -7.94958092 304.12319148 -10.875 302.5625 C-12.13594482 301.89250977 -12.13594482 301.89250977 -13.42236328 301.20898438 C-29.86080023 292.32805575 -44.76210982 281.24339651 -58.34375 268.4453125 C-60.05975237 266.8655809 -61.82814458 265.34016757 -63.65234375 263.88671875 C-67.26331269 260.98472541 -70.04685177 257.55561199 -73 254 C-73.4429541 253.46938965 -73.8859082 252.9387793 -74.34228516 252.39208984 C-80.01521045 245.56444791 -85.43708359 238.65406663 -90.25 231.1875 C-90.63269043 230.59501465 -91.01538086 230.0025293 -91.40966797 229.39208984 C-94 225.26719518 -94 225.26719518 -94 223 C-94.66 223 -95.32 223 -96 223 C-97.42029008 219.87663481 -98.83553689 216.75100782 -100.25 213.625 C-100.64574219 212.75488281 -101.04148438 211.88476562 -101.44921875 210.98828125 C-109.34699084 193.50960531 -109.34699084 193.50960531 -110 186 C-110.59167969 185.81824219 -111.18335937 185.63648438 -111.79296875 185.44921875 C-112.58316406 185.19785156 -113.37335938 184.94648438 -114.1875 184.6875 C-114.96480469 184.44386719 -115.74210937 184.20023438 -116.54296875 183.94921875 C-117.35378906 183.63597656 -118.16460937 183.32273438 -119 183 C-119.87269531 182.68361572 -120.74539062 182.36723145 -121.64453125 182.04125977 C-124 180 -124 180 -124.36628723 178.09172058 C-124.40985283 175.50965798 -124.29590845 172.96864243 -124.14453125 170.390625 C-124.09758134 168.4180452 -124.05407821 166.44538094 -124.01367188 164.47265625 C-123.92565214 161.37562943 -123.81454446 158.28631302 -123.64038086 155.19287109 C-122.74382151 141.77486174 -122.74382151 141.77486174 -128.64208984 130.23632812 C-132.03862521 126.87903762 -135.67051105 123.9032171 -139.5500946 121.121521 C-140.02856339 120.75141907 -140.50703217 120.38131714 -141 120 C-141 119.67 -141 119.34 -141 119 C-132.75 119 -124.5 119 -116 119 C-116 108.44 -116 97.88 -116 87 C-96.39829949 75.05873417 -74.93947543 66.1505941 -52.8125 60.125 C-51.98508301 59.89699707 -51.15766602 59.66899414 -50.30517578 59.43408203 C-49.14284424 59.13026611 -49.14284424 59.13026611 -47.95703125 58.8203125 C-47.26585205 58.63742676 -46.57467285 58.45454102 -45.86254883 58.26611328 C-44 58 -44 58 -41 59 C-41.55429688 59.30550781 -42.10859375 59.61101563 -42.6796875 59.92578125 C-46.20860475 62.15490158 -48.58682518 63.68265787 -49.87109375 67.77734375 C-50.15855948 69.71328552 -50.38824728 71.65896741 -50.55078125 73.609375 C-50.77314453 74.79273437 -50.77314453 74.79273437 -51 76 C-54.16491588 78.10994392 -56.32719299 78.63377193 -60 79.5 C-73.89717182 83.35952544 -86.80590938 90.99441698 -98 100 C-96.79730469 99.25556641 -96.79730469 99.25556641 -95.5703125 98.49609375 C-82.51519538 90.61655843 -68.75535699 85.35591575 -53.94140625 81.82421875 C-50.84497359 81.12026592 -50.84497359 81.12026592 -48 79 C-47.4961339 76.54339664 -47.4961339 76.54339664 -47.3125 73.75 C-46.52259938 68.50669419 -46.52259938 68.50669419 -44.203125 66.2578125 C-42.77313887 65.33406233 -41.33685027 64.41999801 -39.89453125 63.515625 C-37.04491669 61.23593335 -36.5449459 58.7255169 -35.625 55.29296875 C-33.0828277 45.96637414 -27.07455804 38.70420185 -19 33.5625 C-14.91551637 31.25795189 -11.66902774 30.20300121 -7 30 C-6.74984127 26.58357241 -6.74984127 26.58357241 -7 23 C-7.99 22.34 -8.98 21.68 -10 21 C-9.67 19.68 -9.34 18.36 -9 17 C-8.01 17 -7.02 17 -6 17 C-6 15.68 -6 14.36 -6 13 C-5.360625 12.71125 -4.72125 12.4225 -4.0625 12.125 C-1.84793921 11.17176549 -1.84793921 11.17176549 -1 9 C-1.66 9 -2.32 9 -3 9 C-3 8.34 -3 7.68 -3 7 C-2.34 7 -1.68 7 -1 7 C-0.67 4.69 -0.34 2.38 0 0 Z " fill="#2B3F81" transform="translate(153,2)"/>
<path d="M0 0 C3.79128809 0.21664503 5.08048804 1.07042704 8 3.625 C10.68111501 6.26858982 10.68111501 6.26858982 13.4375 5.9375 C14.283125 5.628125 15.12875 5.31875 16 5 C22.6807973 2.63388429 28.95141879 2.80921134 36 3 C36.495 3.99 36.495 3.99 37 5 C36.08476562 5.19335938 35.16953125 5.38671875 34.2265625 5.5859375 C33.03804687 5.84632813 31.84953125 6.10671875 30.625 6.375 C29.44164062 6.63023437 28.25828125 6.88546875 27.0390625 7.1484375 C23.91803033 7.75523965 23.91803033 7.75523965 22 10 C22.66 9.67 23.32 9.34 24 9 C25.62165752 8.87851695 27.24884327 8.82456348 28.875 8.8125 C30.17050781 8.79123047 30.17050781 8.79123047 31.4921875 8.76953125 C34.13447988 9.01235874 35.67137863 9.80544748 38 11 C38.66 10.67 39.32 10.34 40 10 C46 16 46 16 46.25 18.6875 C45.957876 22.55814294 45.09880936 24.74322685 43 28 C40.375 29.75 40.375 29.75 38 31 C37.67 31.66 37.34 32.32 37 33 C34.9375 33.625 34.9375 33.625 33 34 C33.66 34.66 34.32 35.32 35 36 C35.99 35.67 36.98 35.34 38 35 C39.66362417 34.65179959 41.32995171 34.31595508 43 34 C43.268125 32.741875 43.53625 31.48375 43.8125 30.1875 C44.59532537 27.00551199 45.25335928 24.99755689 48 23 C50.0625 24.75 50.0625 24.75 52 27 C51.625 28.84375 51.625 28.84375 51 31 C50.93451508 32.58211573 50.91421619 34.16670081 50.9375 35.75 C50.94652344 36.54921875 50.95554688 37.3484375 50.96484375 38.171875 C50.97644531 38.77515625 50.98804688 39.3784375 51 40 C51.33 39.01 51.66 38.02 52 37 C54.0625 36.3125 54.0625 36.3125 56 36 C55.40509313 33.76834429 54.79867874 31.53975435 54.1875 29.3125 C53.85105469 28.07113281 53.51460937 26.82976562 53.16796875 25.55078125 C52.10478134 22.3185493 50.87943655 19.81646223 49 17 C53.45978291 18.36271144 55.42299853 20.13449779 58 24 C59.03485877 26.31808364 60.0355414 28.65175298 61 31 C61.53625 31.804375 62.0725 32.60875 62.625 33.4375 C64.51886534 36.96697632 64.66272288 40.02012994 65 44 C64.34 44 63.68 44 63 44 C62.01 47.63 61.02 51.26 60 55 C58.35 55.33 56.7 55.66 55 56 C52.73534698 57.74630866 52.73534698 57.74630866 50.75 59.9375 C50.06421875 60.64777344 49.3784375 61.35804688 48.671875 62.08984375 C46.94375609 63.90201951 46.94375609 63.90201951 46 66 C45.01 66 44.02 66 43 66 C42.71125 66.804375 42.4225 67.60875 42.125 68.4375 C41 71 41 71 39 72 C38.66073053 74.33247761 38.32759934 76.66585471 38 79 C37.34 79.66 36.68 80.32 36 81 C35.67 81.845625 35.34 82.69125 35 83.5625 C34 86 34 86 32 87 C28.86315488 87.60854795 26.12277509 87.72586244 23 87 C20.19100676 84.74497157 18.44053014 82.29432712 17 79 C17.125 75.5 17.125 75.5 18 73 C17.38125 72.7525 16.7625 72.505 16.125 72.25 C13.55750184 70.73970696 13.28184271 69.63908792 12 67 C10.38025441 65.28769752 8.7041054 63.62836738 7 62 C6.15501953 61.08927734 6.15501953 61.08927734 5.29296875 60.16015625 C0.99884201 55.54532498 0.99884201 55.54532498 -5 54 C-6.20272819 51.59454362 -6.10071472 50.05003047 -6.0625 47.375 C-6.05347656 46.55773437 -6.04445313 45.74046875 -6.03515625 44.8984375 C-6.02355469 44.27195313 -6.01195313 43.64546875 -6 43 C-7.485 43.495 -7.485 43.495 -9 44 C-9.96226224 36.78303321 -6.65849226 32.03517701 -3 26 C-2.22269531 24.69289062 -2.22269531 24.69289062 -1.4296875 23.359375 C0.29505061 20.51308588 2.14025743 17.75961801 4 15 C4.66 14.01 5.32 13.02 6 12 C4.68 10.35 3.36 8.7 2 7 C2.33 8.98 2.66 10.96 3 13 C2.01 13.33 1.02 13.66 0 14 C-0.99293628 11.02119115 -1.13406411 8.98398802 -1.125 5.875 C-1.12757812 4.98554688 -1.13015625 4.09609375 -1.1328125 3.1796875 C-1 1 -1 1 0 0 Z " fill="#3A3770" transform="translate(126,170)"/>
<path d="M0 0 C1.45241833 0.03015401 2.90489735 0.05752021 4.35742188 0.08203125 C7.88539359 0.1475606 11.41104984 0.25077314 14.9375 0.375 C12.35965154 3.02252004 10.02101902 5.31932065 6.9375 7.375 C6.35401248 10.0306728 6.35401248 10.0306728 6.25 13 C6.146875 14.77375 6.04375 16.5475 5.9375 18.375 C1.6475 18.045 -2.6425 17.715 -7.0625 17.375 C-7.0625 14.735 -7.0625 12.095 -7.0625 9.375 C-8.7125 9.375 -10.3625 9.375 -12.0625 9.375 C-12.0625 13.005 -12.0625 16.635 -12.0625 20.375 C-10.763125 20.478125 -9.46375 20.58125 -8.125 20.6875 C-2.42842249 22.05287017 0.7255614 25.09721244 4.25 29.66796875 C8.07825632 36.57419042 6.58919486 45.79417344 5.9375 53.375 C-1.29196944 56.64567654 -4.67337407 56.30657189 -12 53.75 C-17.55292693 51.46843485 -22.33105007 47.83789987 -25.0625 42.375 C-25.19665472 39.7026379 -25.10568541 37.05249512 -25.0625 34.375 C-16.49107143 35.375 -16.49107143 35.375 -13.0625 36.375 C-13.0625 39.015 -13.0625 41.655 -13.0625 44.375 C-11.0825 44.705 -9.1025 45.035 -7.0625 45.375 C-7.0625 41.415 -7.0625 37.455 -7.0625 33.375 C-8.0525 33.354375 -9.0425 33.33375 -10.0625 33.3125 C-15.2977275 32.59957268 -18.45700157 28.96482235 -22.0625 25.375 C-22.619375 24.96636719 -23.17625 24.55773437 -23.75 24.13671875 C-25.90680793 21.24171763 -25.7368948 18.03718878 -25.8125 14.5625 C-25.874375 13.86318359 -25.93625 13.16386719 -26 12.44335938 C-26.07454603 9.12295497 -25.69117118 7.14862253 -23.57055664 4.5390625 C-16.56980945 -1.1008681 -8.46922857 -0.30740951 0 0 Z " fill="#F7F8FA" transform="translate(269.0625,125.625)"/>
<path d="M0 0 C4.28656134 -0.14925086 8.57171473 -0.2576289 12.86010742 -0.32958984 C14.31610483 -0.35961041 15.77192369 -0.40044228 17.22729492 -0.45263672 C30.86287457 -0.92911124 30.86287457 -0.92911124 35.46875 2.59375 C37.67659267 5.02011635 38.01575822 6.07906123 38.68359375 9.4296875 C38.60238281 10.56664062 38.52117187 11.70359375 38.4375 12.875 C38.34275391 14.60363281 38.34275391 14.60363281 38.24609375 16.3671875 C38.16488281 17.23601562 38.08367187 18.10484375 38 19 C34.04 19.33 30.08 19.66 26 20 C26 16.37 26 12.74 26 9 C24.35 9 22.7 9 21 9 C21.495 26.82 21.495 26.82 22 45 C23.485 44.505 23.485 44.505 25 44 C25.33 39.71 25.66 35.42 26 31 C29.98386386 29.82827534 33.92270288 28.781658 38 28 C39.35124583 40.66167388 39.35124583 40.66167388 36.34765625 45.859375 C31.50432811 50.93252715 25.89121768 54.49397229 19 56 C14.66218985 55.86007064 11.78231538 54.98121282 8 53 C8.0030162 52.43703217 8.00603241 51.87406433 8.00914001 51.29403687 C8.03375137 45.42084245 8.00953256 39.54927244 7.95727539 33.67626953 C7.94415638 31.48620456 7.94338237 29.29602875 7.95532227 27.10595703 C7.9703531 23.95234438 7.94062343 20.80179905 7.90234375 17.6484375 C7.91659897 16.67321136 7.93085419 15.69798523 7.94554138 14.69320679 C7.88418933 9.46291247 7.88418933 9.46291247 5.38162231 5.04180908 C3.64811327 3.57054429 1.86812431 2.29040545 0 1 C0 0.67 0 0.34 0 0 Z " fill="#F4F5F8" transform="translate(26,126)"/>
<path d="M0 0 C3.79128809 0.21664503 5.08048804 1.07042704 8 3.625 C10.68111501 6.26858982 10.68111501 6.26858982 13.4375 5.9375 C14.283125 5.628125 15.12875 5.31875 16 5 C22.6807973 2.63388429 28.95141879 2.80921134 36 3 C36.495 3.99 36.495 3.99 37 5 C36.08476562 5.19335938 35.16953125 5.38671875 34.2265625 5.5859375 C33.03804687 5.84632813 31.84953125 6.10671875 30.625 6.375 C29.44164062 6.63023437 28.25828125 6.88546875 27.0390625 7.1484375 C23.91803033 7.75523965 23.91803033 7.75523965 22 10 C22.66 9.67 23.32 9.34 24 9 C25.62165752 8.87851695 27.24884327 8.82456348 28.875 8.8125 C30.17050781 8.79123047 30.17050781 8.79123047 31.4921875 8.76953125 C34.13447988 9.01235874 35.67137863 9.80544748 38 11 C38.66 10.67 39.32 10.34 40 10 C46 16 46 16 46.25 18.6875 C45.957876 22.55814294 45.09880936 24.74322685 43 28 C40.375 29.75 40.375 29.75 38 31 C37.67 31.66 37.34 32.32 37 33 C34.9375 33.625 34.9375 33.625 33 34 C33.66 34.66 34.32 35.32 35 36 C35 36.33 35 36.66 35 37 C35.99 37.33 36.98 37.66 38 38 C37.01 38.495 37.01 38.495 36 39 C35.690625 39.969375 35.38125 40.93875 35.0625 41.9375 C34 45 34 45 31 47 C27.16896958 46.68074747 25.23319447 46.15546298 22 44 C21.62690101 42.34178227 21.29299023 40.67422986 21 39 C20.34 38.34 19.68 37.68 19 37 C20.485 36.505 20.485 36.505 22 36 C19.43434332 31.72390553 17.37600515 29.36540819 13 27 C12.67 26.34 12.34 25.68 12 25 C12.66 26.65 13.32 28.3 14 30 C14.66 30 15.32 30 16 30 C16 31.32 16 32.64 16 34 C16.66 34.33 17.32 34.66 18 35 C17.67 35.99 17.34 36.98 17 38 C15.02 37.67 13.04 37.34 11 37 C11 36.34 11 35.68 11 35 C10.34 35 9.68 35 9 35 C9 36.98 9 38.96 9 41 C8.67 41 8.34 41 8 41 C7.67 37.7 7.34 34.4 7 31 C6.67 31 6.34 31 6 31 C5.97305149 29.04174127 5.95362782 27.08337774 5.9375 25.125 C5.92589844 24.03445312 5.91429687 22.94390625 5.90234375 21.8203125 C6 19 6 19 7 17 C5.35 17.66 3.7 18.32 2 19 C3.20381448 16.50638429 4.45428722 14.31856917 6 12 C4.68 10.35 3.36 8.7 2 7 C2.33 8.98 2.66 10.96 3 13 C2.01 13.33 1.02 13.66 0 14 C-0.99293628 11.02119115 -1.13406411 8.98398802 -1.125 5.875 C-1.12757812 4.98554688 -1.13015625 4.09609375 -1.1328125 3.1796875 C-1 1 -1 1 0 0 Z " fill="#CF1A24" transform="translate(126,170)"/>
<path d="M0 0 C2.12508244 3.18762365 2.5020163 5.26512223 3 9 C2.34 9 1.68 9 1 9 C-0.625 7 -0.625 7 -2 5 C-2 6.65 -2 8.3 -2 10 C4.40089262 13.41058058 4.40089262 13.41058058 11.1875 15.875 C15.36128518 17.54451407 18.19404691 20.52927566 21 24 C21.495 25.485 21.495 25.485 22 27 C23.56985676 28.26370285 23.56985676 28.26370285 25.4375 29.375 C28.62252825 31.52228339 30.01616492 33.17397469 31 37 C30.01 37.33 29.02 37.66 28 38 C28 38.66 28 39.32 28 40 C24.75 40.75 24.75 40.75 21 41 C18.5625 39.0625 18.5625 39.0625 17 37 C17.99 36.01 18.98 35.02 20 34 C19.34 33.01 18.68 32.02 18 31 C14.08406554 31.78318689 10.63593365 33.39179858 7 35 C9.31 35.66 11.62 36.32 14 37 C14 37.33 14 37.66 14 38 C11.03 38 8.06 38 5 38 C5.165 38.66 5.33 39.32 5.5 40 C6.12183299 43.73099794 6.06408926 47.21873378 6 51 C4.68 51.66 3.36 52.32 2 53 C1.34 51.68 0.68 50.36 0 49 C-0.99 49.495 -0.99 49.495 -2 50 C-2 52.31 -2 54.62 -2 57 C-1.34 57 -0.68 57 0 57 C0.33 56.34 0.66 55.68 1 55 C3 56.8125 3 56.8125 5 59 C5 59.99 5 60.98 5 62 C2.9375 63.3125 2.9375 63.3125 0 64 C-2.98962097 62.9671052 -5.00381434 61.44324808 -7 59 C-7.79048837 56.40621002 -8.17599825 54.0032737 -8.41796875 51.3046875 C-9.1718605 48.31947855 -10.51438905 47.68364028 -13 46 C-13 45.34 -13 44.68 -13 44 C-15.06516938 45.24575371 -17.12708989 46.49641715 -19.1875 47.75 C-19.76564453 48.09804687 -20.34378906 48.44609375 -20.93945312 48.8046875 C-24.50733057 50.98169747 -27.79429514 53.31952362 -31 56 C-29.66294386 50.31751143 -25.51850632 48.13953798 -21 45 C-17.97153393 42.69573234 -16.1175906 41.1763859 -14 38 C-13.175 37.54625 -12.35 37.0925 -11.5 36.625 C-8.55505695 34.71078701 -7.98275834 33.30564167 -7 30 C-6.67 30 -6.34 30 -6 30 C-6 33.3 -6 36.6 -6 40 C-4.68 39.34 -3.36 38.68 -2 38 C-2.66 38 -3.32 38 -4 38 C-4.9623757 31.62426099 -5.09760128 25.44168468 -5 19 C-5 18.34 -5 17.68 -5 17 C-7.46920528 21.24909075 -7.78728685 25.61684128 -8.4375 30.41796875 C-8.623125 31.27003906 -8.80875 32.12210938 -9 33 C-9.99 33.495 -9.99 33.495 -11 34 C-10.99097656 33.36835938 -10.98195312 32.73671875 -10.97265625 32.0859375 C-11.26923936 23.1368645 -14.72649035 16.64322221 -19 9 C-18.21625 9.33 -17.4325 9.66 -16.625 10 C-14.15667503 11.11866511 -14.15667503 11.11866511 -12 11 C-13.98 9.35 -15.96 7.7 -18 6 C-15 5 -15 5 -12.95703125 5.77734375 C-12.24933594 6.16019531 -11.54164063 6.54304687 -10.8125 6.9375 C-10.09707031 7.31777344 -9.38164062 7.69804687 -8.64453125 8.08984375 C-8.10183594 8.39019531 -7.55914062 8.69054687 -7 9 C-6.9175 8.2575 -6.835 7.515 -6.75 6.75 C-5.79113195 3.23415048 -3.97054162 0 0 0 Z " fill="#CE1D28" transform="translate(205,183)"/>
<path d="M0 0 C6.27 0 12.54 0 19 0 C19.99958787 4.92909017 20.99741288 9.85846882 21.99072266 14.78881836 C22.32919948 16.46611218 22.66871141 18.14319747 23.00927734 19.82006836 C23.49849075 22.2297653 23.98398225 24.64018656 24.46875 27.05078125 C24.62186646 27.80087967 24.77498291 28.55097809 24.93273926 29.32380676 C25.5222714 32.2705143 26 34.98632147 26 38 C22.04 38.66 18.08 39.32 14 40 C13.67 38.02 13.34 36.04 13 34 C10.69 34.66 8.38 35.32 6 36 C6.0825 37.051875 6.165 38.10375 6.25 39.1875 C6.015625 41.109375 6.015625 41.109375 5 43 C1.38115043 45.11273876 -3.69872306 48 -8 48 C-7.38074633 42.07838678 -6.61157026 36.22225359 -5.625 30.3515625 C-5.43091553 29.1827504 -5.43091553 29.1827504 -5.23291016 27.99032593 C-4.96180612 26.36167822 -4.68949686 24.73323069 -4.41601562 23.10498047 C-3.99764257 20.61094675 -3.58452795 18.11607956 -3.171875 15.62109375 C-2.90656231 14.03119785 -2.64094818 12.44135222 -2.375 10.8515625 C-2.25205566 10.10782379 -2.12911133 9.36408508 -2.00244141 8.59780884 C-1.50172916 5.63406715 -0.9523392 2.85701761 0 0 Z " fill="#F7F7FA" transform="translate(74,126)"/>
<path d="M0 0 C5.94 0 11.88 0 18 0 C19.14128057 5.08990753 20.2812811 10.18006595 21.41796875 15.27099609 C21.80522736 17.00358851 22.19324526 18.7360114 22.58203125 20.46826172 C23.14000906 22.95496383 23.69527339 25.44225838 24.25 27.9296875 C24.42499023 28.70682098 24.59998047 29.48395447 24.78027344 30.28463745 C26 35.77225659 26 35.77225659 26 38 C21.83861737 38.08159574 18.0527516 37.98248524 14 37 C13.67 34.69 13.34 32.38 13 30 C10.36 30 7.72 30 5 30 C5 31.98 5 33.96 5 36 C3.56260487 36.02712066 2.12506137 36.04645067 0.6875 36.0625 C-0.11300781 36.07410156 -0.91351563 36.08570313 -1.73828125 36.09765625 C-4 36 -4 36 -7 35 C-5.83225466 27.4403854 -4.43123548 19.93859121 -2.9375 12.4375 C-2.7631543 11.55674805 -2.58880859 10.67599609 -2.40917969 9.76855469 C-2.1582959 8.51993652 -2.1582959 8.51993652 -1.90234375 7.24609375 C-1.75273193 6.50029053 -1.60312012 5.7544873 -1.44897461 4.98608398 C-1 3 -1 3 0 0 Z " fill="#F8F8FA" transform="translate(188,126)"/>
<path d="M0 0 C4.20626034 1.50223584 5.73900021 4.28550034 8 8 C9.98 7.67 11.96 7.34 14 7 C13.01 8.65 12.02 10.3 11 12 C13.64 10.68 16.28 9.36 19 8 C17.87735949 10.24528103 16.72866551 12.47940446 15.4921875 14.6640625 C11.83630867 21.35767639 10.08799772 26.36620316 11 34 C9.00390013 32.33924491 8.08744049 31.42714291 7.55859375 28.84375 C7.49865234 27.68359375 7.49865234 27.68359375 7.4375 26.5 C7.24476145 22.99566274 7.04700375 22.07050563 5 19 C4.67 25.27 4.34 31.54 4 38 C2.02 38 0.04 38 -2 38 C-0.68 39.32 0.64 40.64 2 42 C1.505 42.99 1.505 42.99 1 44 C0.21625 43.360625 -0.5675 42.72125 -1.375 42.0625 C-4.67344012 39.47086848 -6.5291233 38.84708767 -10.625 38.4375 C-11.44226563 38.35371094 -12.25953125 38.26992187 -13.1015625 38.18359375 C-14.04128906 38.09271484 -14.04128906 38.09271484 -15 38 C-12.64046906 35.64046906 -11.22104383 35.50858587 -8 35 C-11.22515763 33.26337666 -14.51329166 32.1094072 -18 31 C-18.99 32.485 -18.99 32.485 -20 34 C-19.19838209 36.67145537 -19.19838209 36.67145537 -18 39 C-21.13498292 40.85776765 -23.37471432 41.20140476 -27 41 C-27.495 39.515 -27.495 39.515 -28 38 C-28.99 37.67 -29.98 37.34 -31 37 C-30.43867066 33.4628562 -29.30442253 32.00738321 -26.5625 29.75 C-25.94503906 29.22921875 -25.32757813 28.7084375 -24.69140625 28.171875 C-23 27 -23 27 -21 27 C-20.938125 26.443125 -20.87625 25.88625 -20.8125 25.3125 C-19.47757963 21.51311125 -16.66174685 18.87043883 -13.11328125 17.01171875 C-12.41589844 16.67785156 -11.71851562 16.34398437 -11 16 C-8.73271313 14.71866358 -6.47443018 13.42274481 -4.21875 12.12109375 C-2.13081882 11.06610036 -0.28371779 10.46193383 2 10 C2 8.35 2 6.7 2 5 C0.35 6.32 -1.3 7.64 -3 9 C-2.25 2.25 -2.25 2.25 0 0 Z " fill="#D01B26" transform="translate(103,183)"/>
<path d="M0 0 C3.485625 -0.0825 6.97125 -0.165 10.5625 -0.25 C11.64732666 -0.28641602 12.73215332 -0.32283203 13.84985352 -0.36035156 C20.14698322 -0.43217974 23.84657786 0.32827707 29 4 C29 8.62 29 13.24 29 18 C23.06920931 22.12576744 19.19577498 22.39428904 12 22 C12 26.29 12 30.58 12 35 C6.06 35.495 6.06 35.495 0 36 C0 24.12 0 12.24 0 0 Z " fill="#FDFDFD" transform="translate(104,127)"/>
<path d="M0 0 C1 3 1 3 0.29418945 4.99853516 C-0.09551025 5.75440918 -0.48520996 6.5102832 -0.88671875 7.2890625 C-1.32435547 8.13984375 -1.76199219 8.990625 -2.21289062 9.8671875 C-2.69951172 10.77726563 -3.18613281 11.68734375 -3.6875 12.625 C-4.43483398 14.03265625 -4.43483398 14.03265625 -5.19726562 15.46875 C-23.84220822 49.82572288 -52.31918518 75.91453961 -86.25 94.75 C-86.8577124 95.09764404 -87.4654248 95.44528809 -88.09155273 95.8034668 C-91.92015347 97.85582932 -93.86917564 98.14481839 -98 97 C-100.18139648 96.03540039 -100.18139648 96.03540039 -102.37109375 94.84765625 C-103.18570068 94.40615234 -104.00030762 93.96464844 -104.83959961 93.50976562 C-105.69690674 93.03216797 -106.55421387 92.55457031 -107.4375 92.0625 C-108.32767822 91.56814453 -109.21785645 91.07378906 -110.13500977 90.56445312 C-122.89150796 83.36240673 -133.98183386 74.59646728 -145 65 C-145.7734375 64.3503125 -146.546875 63.700625 -147.34375 63.03125 C-152.0529471 59.04654476 -156.04264015 54.72277514 -160 50 C-160.75023437 49.14921875 -161.50046875 48.2984375 -162.2734375 47.421875 C-172.27607842 35.87308453 -182.14506648 22.20039845 -188 8 C-187.67 7.01 -187.34 6.02 -187 5 C-186.45472656 6.00417969 -185.90945312 7.00835937 -185.34765625 8.04296875 C-174.11289026 28.51168554 -160.20325582 48.1229205 -142 63 C-141.50467773 63.41830078 -141.00935547 63.83660156 -140.49902344 64.26757812 C-130.92294785 72.35354213 -120.84991764 79.26815006 -110.11328125 85.72705078 C-108.26246735 86.84190102 -106.42740843 87.97840333 -104.59375 89.12109375 C-103.6553125 89.67925781 -102.716875 90.23742187 -101.75 90.8125 C-100.98171875 91.27269531 -100.2134375 91.73289062 -99.421875 92.20703125 C-95.26630752 93.56764447 -91.83082969 92.83213767 -87.88525391 91.03881836 C-85.52429153 89.77934587 -83.22969708 88.44312835 -80.9375 87.0625 C-80.10331543 86.56814453 -79.26913086 86.07378906 -78.40966797 85.56445312 C-44.62042199 65.27146781 -16.42316112 36.11280732 0 0 Z " fill="#EFEFF4" transform="translate(249,207)"/>
<path d="M0 0 C3.34753133 3.25959268 6.39521871 6.60206508 9.3125 10.25 C15.73649321 18.16299826 22.16542486 25.46662178 30 32 C31.29164062 33.12341797 31.29164062 33.12341797 32.609375 34.26953125 C45.66544185 45.47304807 60.0210484 54.59152192 75 63 C76.02867187 63.58394531 77.05734375 64.16789062 78.1171875 64.76953125 C82.44782537 67.2898188 82.44782537 67.2898188 87.28125 67.85546875 C90.99319663 66.68748554 94.33663423 64.9627555 97.75 63.125 C98.4915332 62.72788818 99.23306641 62.33077637 99.99707031 61.92163086 C123.07518318 49.34839075 142.18795442 33.06583323 160.56201172 14.45410156 C162.69874571 12.29342455 164.84928571 10.14675349 167 8 C159.02946001 25.45548257 139.40599979 41.10159163 124 52 C123.32001953 52.48130371 122.64003906 52.96260742 121.93945312 53.45849609 C113.57788079 59.31272363 104.99162294 64.75527443 96.125 69.8125 C95.36993164 70.25150635 94.61486328 70.6905127 93.83691406 71.14282227 C92.77682129 71.73148071 92.77682129 71.73148071 91.6953125 72.33203125 C90.7674292 72.85373901 90.7674292 72.85373901 89.82080078 73.38598633 C86.87357411 74.37985534 84.86063521 73.37443004 82.10327148 72.17480469 C64.22446752 63.12860113 47.90905913 52.40309356 33 39 C31.95186323 38.07417311 30.90368578 37.14839228 29.85546875 36.22265625 C21.25683155 28.55733982 13.65696632 20.2547865 6.5625 11.1875 C6.13694824 10.64818848 5.71139648 10.10887695 5.27294922 9.55322266 C2.93200367 6.50175134 1.23343766 3.64639221 0 0 Z " fill="#F0AA27" transform="translate(68,241)"/>
<path d="M0 0 C4.29 0 8.58 0 13 0 C13 11.88 13 23.76 13 36 C15.97 36.66 18.94 37.32 22 38 C23 39 23 39 23.0625 42.5625 C23.041875 43.696875 23.02125 44.83125 23 46 C2.91489362 41.91489362 2.91489362 41.91489362 0 39 C-0.08865208 36.1156618 -0.11521296 33.25537842 -0.09765625 30.37109375 C-0.0962413 29.50686295 -0.09482635 28.64263214 -0.09336853 27.75221252 C-0.08775239 24.98060708 -0.07519719 22.2090812 -0.0625 19.4375 C-0.05748708 17.5631522 -0.05292381 15.68880315 -0.04882812 13.81445312 C-0.03777772 9.20960456 -0.0205023 4.60481579 0 0 Z " fill="#F4F5F8" transform="translate(218,126)"/>
<path d="M0 0 C2.62365106 2.38842717 2.6571075 2.96950773 2.9296875 6.37109375 C2.94297136 8.08072714 2.92892051 9.79074395 2.890625 11.5 C2.91962891 12.78874023 2.91962891 12.78874023 2.94921875 14.10351562 C2.91783144 18.14934051 2.7952689 20.36370835 0.30859375 23.64453125 C-3.9088367 25.60977805 -7.46415827 25.49912834 -12.046875 25.3125 C-16.3471875 25.18875 -16.3471875 25.18875 -20.734375 25.0625 C-20.734375 18.7925 -20.734375 12.5225 -20.734375 6.0625 C-22.384375 5.7325 -24.034375 5.4025 -25.734375 5.0625 C-26.394375 4.4025 -27.054375 3.7425 -27.734375 3.0625 C-8.13817548 -2.79023159 -8.13817548 -2.79023159 0 0 Z " fill="#F3F5F9" transform="translate(122.734375,93.9375)"/>
<path d="M0 0 C2.12508244 3.18762365 2.5020163 5.26512223 3 9 C2.34 9 1.68 9 1 9 C-0.625 7 -0.625 7 -2 5 C-2 6.65 -2 8.3 -2 10 C4.40089262 13.41058058 4.40089262 13.41058058 11.1875 15.875 C15.36128518 17.54451407 18.19404691 20.52927566 21 24 C21.495 25.485 21.495 25.485 22 27 C23.56985676 28.26370285 23.56985676 28.26370285 25.4375 29.375 C28.62252825 31.52228339 30.01616492 33.17397469 31 37 C30.01 37.33 29.02 37.66 28 38 C28 38.66 28 39.32 28 40 C24.75 40.75 24.75 40.75 21 41 C18.5625 39.0625 18.5625 39.0625 17 37 C17.99 36.01 18.98 35.02 20 34 C19.43637698 31.95163118 19.43637698 31.95163118 18 30 C14.94091587 29.18415432 14.94091587 29.18415432 12 29 C12 28.67 12 28.34 12 28 C13.65 27.67 15.3 27.34 17 27 C15.19038423 25.37168238 15.19038423 25.37168238 13 24 C12.01 24.33 11.02 24.66 10 25 C9.979375 24.4225 9.95875 23.845 9.9375 23.25 C8.4233745 19.61609879 5.44043825 18.75149584 2 17 C2 17.66 2 18.32 2 19 C2.73669922 19.65935547 2.73669922 19.65935547 3.48828125 20.33203125 C5.48633518 22.53660238 5.31458514 23.76454184 5.1875 26.6875 C5.16042969 27.49574219 5.13335937 28.30398437 5.10546875 29.13671875 C5.07066406 29.75160156 5.03585938 30.36648437 5 31 C4.44570312 30.566875 3.89140625 30.13375 3.3203125 29.6875 C2.59585938 29.130625 1.87140625 28.57375 1.125 28 C0.40570313 27.443125 -0.31359375 26.88625 -1.0546875 26.3125 C-2.8852085 24.81356623 -2.8852085 24.81356623 -5 25 C-5 22.33333333 -5 19.66666667 -5 17 C-7.46920528 21.24909075 -7.78728685 25.61684128 -8.4375 30.41796875 C-8.623125 31.27003906 -8.80875 32.12210938 -9 33 C-9.99 33.495 -9.99 33.495 -11 34 C-10.99097656 33.36835938 -10.98195312 32.73671875 -10.97265625 32.0859375 C-11.26923936 23.1368645 -14.72649035 16.64322221 -19 9 C-17.824375 9.495 -17.824375 9.495 -16.625 10 C-14.15667503 11.11866511 -14.15667503 11.11866511 -12 11 C-13.98 9.35 -15.96 7.7 -18 6 C-15 5 -15 5 -12.95703125 5.77734375 C-12.24933594 6.16019531 -11.54164063 6.54304687 -10.8125 6.9375 C-10.09707031 7.31777344 -9.38164062 7.69804687 -8.64453125 8.08984375 C-8.10183594 8.39019531 -7.55914062 8.69054687 -7 9 C-6.9175 8.2575 -6.835 7.515 -6.75 6.75 C-5.79113195 3.23415048 -3.97054162 0 0 0 Z " fill="#CD232E" transform="translate(205,183)"/>
<path d="M0 0 C2.97 0.33 5.94 0.66 9 1 C9 4.96 9 8.92 9 13 C10.32 13 11.64 13 13 13 C13 9.37 13 5.74 13 2 C19.93359375 1.90234375 19.93359375 1.90234375 22 2 C23 3 23 3 23.11352539 5.50024414 C23.10828857 6.58426514 23.10305176 7.66828613 23.09765625 8.78515625 C23.09443359 9.95498047 23.09121094 11.12480469 23.08789062 12.33007812 C23.07951172 13.56177734 23.07113281 14.79347656 23.0625 16.0625 C23.05798828 17.29806641 23.05347656 18.53363281 23.04882812 19.80664062 C23.03699608 22.87114117 23.02051173 25.93554721 23 29 C19.7 29 16.4 29 13 29 C13 25.37 13 21.74 13 18 C11.68 18 10.36 18 9 18 C9 21.63 9 25.26 9 29 C6.03 29 3.06 29 0 29 C0 19.43 0 9.86 0 0 Z " fill="#F6F8FB" transform="translate(170,90)"/>
<path d="M0 0 C8.91 0 17.82 0 27 0 C27 2.31 27 4.62 27 7 C24.69 7 22.38 7 20 7 C20 16.24 20 25.48 20 35 C16.04 35 12.08 35 8 35 C8 25.76 8 16.52 8 7 C5.36 7 2.72 7 0 7 C0 4.69 0 2.38 0 0 Z " fill="#F6F6F9" transform="translate(153,126)"/>
<path d="M0 0 C3.79128809 0.21664503 5.08048804 1.07042704 8 3.625 C10.68111501 6.26858982 10.68111501 6.26858982 13.4375 5.9375 C14.283125 5.628125 15.12875 5.31875 16 5 C22.6807973 2.63388429 28.95141879 2.80921134 36 3 C36.495 3.99 36.495 3.99 37 5 C35.64455078 5.29003906 35.64455078 5.29003906 34.26171875 5.5859375 C32.49248047 5.97652344 32.49248047 5.97652344 30.6875 6.375 C28.92986328 6.75785156 28.92986328 6.75785156 27.13671875 7.1484375 C23.87079555 7.85695531 23.87079555 7.85695531 21 10 C21 10.99 21 11.98 21 13 C20.6937566 14.33981486 20.36548445 15.67511887 20 17 C23.465 16.505 23.465 16.505 27 16 C27.66 16.99 28.32 17.98 29 19 C27.98679688 19.36351562 27.98679688 19.36351562 26.953125 19.734375 C20.21530749 22.19836927 20.21530749 22.19836927 15 27 C13.68 25.68 12.36 24.36 11 23 C11.99 25.31 12.98 27.62 14 30 C14.66 30 15.32 30 16 30 C16 31.32 16 32.64 16 34 C16.66 34.33 17.32 34.66 18 35 C17.67 35.99 17.34 36.98 17 38 C15.02 37.67 13.04 37.34 11 37 C11 36.34 11 35.68 11 35 C10.34 35 9.68 35 9 35 C9 36.98 9 38.96 9 41 C8.67 41 8.34 41 8 41 C7.67 37.7 7.34 34.4 7 31 C6.67 31 6.34 31 6 31 C5.97305149 29.04174127 5.95362782 27.08337774 5.9375 25.125 C5.92589844 24.03445312 5.91429687 22.94390625 5.90234375 21.8203125 C6 19 6 19 7 17 C5.35 17.66 3.7 18.32 2 19 C3.20381448 16.50638429 4.45428722 14.31856917 6 12 C4.68 10.35 3.36 8.7 2 7 C2.33 8.98 2.66 10.96 3 13 C2.01 13.33 1.02 13.66 0 14 C-0.99293628 11.02119115 -1.13406411 8.98398802 -1.125 5.875 C-1.12757812 4.98554688 -1.13015625 4.09609375 -1.1328125 3.1796875 C-1 1 -1 1 0 0 Z " fill="#CE232E" transform="translate(126,170)"/>
<path d="M0 0 C4.29 0 8.58 0 13 0 C13.0246519 4.82380802 13.04283693 9.64757967 13.05493164 14.47143555 C13.05997174 16.11369464 13.06680378 17.75594923 13.07543945 19.39819336 C13.08751926 21.75375479 13.09323139 24.10925709 13.09765625 26.46484375 C13.10281754 27.20339096 13.10797882 27.94193817 13.11329651 28.7028656 C13.1134925 30.46898088 13.06194719 32.23497146 13 34 C12.505 34.495 12.505 34.495 12 35 C8.04 35 4.08 35 0 35 C0 23.45 0 11.9 0 0 Z " fill="#F2F3F7" transform="translate(137,126)"/>
<path d="M0 0 C1.60294922 0.01353516 1.60294922 0.01353516 3.23828125 0.02734375 C4.04652344 0.03894531 4.85476562 0.05054687 5.6875 0.0625 C5.6875 2.0425 5.6875 4.0225 5.6875 6.0625 C3.3775 6.0625 1.0675 6.0625 -1.3125 6.0625 C-1.3125 7.7125 -1.3125 9.3625 -1.3125 11.0625 C0.6675 11.0625 2.6475 11.0625 4.6875 11.0625 C4.6875 12.7125 4.6875 14.3625 4.6875 16.0625 C2.3775 16.0625 0.0675 16.0625 -2.3125 16.0625 C-2.3125 18.3725 -2.3125 20.6825 -2.3125 23.0625 C0.6575 23.0625 3.6275 23.0625 6.6875 23.0625 C6.6875 25.0425 6.6875 27.0225 6.6875 29.0625 C0.7475 29.0625 -5.1925 29.0625 -11.3125 29.0625 C-11.3125 19.8225 -11.3125 10.5825 -11.3125 1.0625 C-7.25072627 0.25014525 -4.07899908 -0.04482417 0 0 Z " fill="#F9FAFC" transform="translate(140.3125,89.9375)"/>
<path d="M0 0 C0.66 0.33 1.32 0.66 2 1 C0.98679688 1.80050781 0.98679688 1.80050781 -0.046875 2.6171875 C-0.93890625 3.36226562 -1.8309375 4.10734375 -2.75 4.875 C-3.63171875 5.59429687 -4.5134375 6.31359375 -5.421875 7.0546875 C-11.71545786 14.24462913 -12.61412872 22.37340114 -12.75 31.625 C-12.79447266 33.13126953 -12.79447266 33.13126953 -12.83984375 34.66796875 C-12.9096748 37.11205537 -12.9627929 39.55523679 -13 42 C-16.1653986 43.5826993 -19.64641509 43.65696549 -23.125 44.0625 C-23.87910156 44.15337891 -24.63320312 44.24425781 -25.41015625 44.33789062 C-27.27304188 44.56190852 -29.13647252 44.78138573 -31 45 C-30.3078344 36.24410518 -30.3078344 36.24410518 -27.15625 33.24609375 C-25.71900152 32.29053181 -24.27492001 31.34516837 -22.82421875 30.41015625 C-19.92977086 28.17269225 -19.75614543 25.489902 -19 22 C-15.08956699 12.56627056 -9.6997159 4.19447174 0 0 Z " fill="#F3F6FA" transform="translate(140,37)"/>
<path d="M0 0 C2.97 0 5.94 0 9 0 C9 7.59 9 15.18 9 23 C11.64 23 14.28 23 17 23 C17 24.98 17 26.96 17 29 C11.39 29 5.78 29 0 29 C0 19.43 0 9.86 0 0 Z " fill="#FEFEFE" transform="translate(150,90)"/>
<path d="M0 0 C4.45978291 1.36271144 6.42299853 3.13449779 9 7 C10.03485877 9.31808364 11.0355414 11.65175298 12 14 C12.53625 14.804375 13.0725 15.60875 13.625 16.4375 C15.51886534 19.96697632 15.66272288 23.02012994 16 27 C15.34 27 14.68 27 14 27 C13.01 30.63 12.02 34.26 11 38 C8.525 38.495 8.525 38.495 6 39 C3.73534698 40.74630866 3.73534698 40.74630866 1.75 42.9375 C1.06421875 43.64777344 0.3784375 44.35804688 -0.328125 45.08984375 C-2.05624391 46.90201951 -2.05624391 46.90201951 -3 49 C-3.99 49 -4.98 49 -6 49 C-6.28875 49.804375 -6.5775 50.60875 -6.875 51.4375 C-8 54 -8 54 -10 55 C-10.32590971 51.72574427 -10.1658393 49.09451174 -9 46 C-6.31374177 43.5760221 -3.54887131 41.71754074 -0.46875 39.82421875 C2.29846263 37.77945879 2.43730111 37.22614029 3 34 C3.99288153 32.65021781 5.03868326 31.33829059 6.125 30.0625 C8.50149193 27.11905468 8.50149193 27.11905468 9.0625 23.5 C8.711875 22.675 8.36125 21.85 8 21 C7.51558332 19.73115858 7.03694623 18.46010317 6.5625 17.1875 C6.29566406 16.50429687 6.02882812 15.82109375 5.75390625 15.1171875 C5.00983554 13.02762104 4.48558049 10.97516941 4 8.8125 C3.08528165 5.32513628 2.02511526 2.9456222 0 0 Z " fill="#EEEEF3" transform="translate(175,187)"/>
<path d="M0 0 C0 3 0 3 -0.875 5.0625 C-2.21502023 8.5614417 -2.81023547 12.01013339 -3.4375 15.6953125 C-4 18 -4 18 -6 21 C-6 26.34052829 -3.52852494 29.31830855 -0.27734375 33.265625 C1 35 1 35 1 37 C2.41686917 38.51397736 2.41686917 38.51397736 4.25 40 C4.85328125 40.515625 5.4565625 41.03125 6.078125 41.5625 C7.9422082 43.08749236 7.9422082 43.08749236 10.1875 43.8671875 C12 45 12 45 12.609375 47.3828125 C12.65578125 48.28773438 12.7021875 49.19265625 12.75 50.125 C12.80671875 51.03507812 12.8634375 51.94515625 12.921875 52.8828125 C12.94765625 53.58148438 12.9734375 54.28015625 13 55 C10.389662 52.49407552 7.98846897 49.86054502 5.625 47.125 C-0.39401964 39.4900306 -0.39401964 39.4900306 -9 36 C-10.20272819 33.59454362 -10.10071472 32.05003047 -10.0625 29.375 C-10.05347656 28.55773437 -10.04445313 27.74046875 -10.03515625 26.8984375 C-10.02355469 26.27195313 -10.01195313 25.64546875 -10 25 C-10.99 25.33 -11.98 25.66 -13 26 C-13.96226224 18.78303321 -10.65849226 14.03517701 -7 8 C-6.484375 7.10152344 -5.96875 6.20304688 -5.4375 5.27734375 C-3.90230684 2.84523067 -2.38875922 1.56504914 0 0 Z " fill="#F1F1F5" transform="translate(130,188)"/>
<path d="M0 0 C3.78458933 3.44053576 5.16824871 6.61256317 5.5625 11.6875 C5.59506307 14.64181288 5.59506307 14.64181288 7 17 C6.87625 15.14375 6.87625 15.14375 6.75 13.25 C6.7262052 9.89493302 6.80358323 9.24552096 9 6.5 C9.66 6.005 10.32 5.51 11 5 C12.04005702 8.38018531 12.08004482 11.4780279 12 15 C12.66 15 13.32 15 14 15 C14.06058594 15.59167969 14.12117188 16.18335938 14.18359375 16.79296875 C14.62012371 20.90978208 15.08671346 24.95544533 16 29 C14.2925002 27.71937515 12.62626404 26.38232443 11 25 C11 24.34 11 23.68 11 23 C10.21625 22.896875 9.4325 22.79375 8.625 22.6875 C6 22 6 22 4 19 C4 21.31 4 23.62 4 26 C2.35 25.67 0.7 25.34 -1 25 C-0.34 25.99 0.32 26.98 1 28 C1 29.32 1 30.64 1 32 C0.34 32 -0.32 32 -1 32 C-1.33 32.99 -1.66 33.98 -2 35 C-4.5625 36.6875 -4.5625 36.6875 -7 38 C-9 36 -9 36 -9.1953125 33.8359375 C-9.17210938 33.02382812 -9.14890625 32.21171875 -9.125 31.375 C-9.10695313 30.55773437 -9.08890625 29.74046875 -9.0703125 28.8984375 C-9.04710938 28.27195313 -9.02390625 27.64546875 -9 27 C-4.125 26 -4.125 26 -3 26 C-3.99 24.68 -4.98 23.36 -6 22 C-3.69 22.33 -1.38 22.66 1 23 C1.02911321 19.9166866 1.04683682 16.83340875 1.0625 13.75 C1.07087891 12.87730469 1.07925781 12.00460938 1.08789062 11.10546875 C1.09111328 10.26113281 1.09433594 9.41679687 1.09765625 8.546875 C1.10289307 7.77182617 1.10812988 6.99677734 1.11352539 6.19824219 C1.00036998 4.00716402 0.60552448 2.10362139 0 0 Z " fill="#39316B" transform="translate(106,198)"/>
<path d="M0 0 C3.650625 0.680625 3.650625 0.680625 7.375 1.375 C8.13989746 1.51341309 8.90479492 1.65182617 9.69287109 1.79443359 C14.77777778 2.77777778 14.77777778 2.77777778 17 5 C14.35261084 6.4606285 13.10551666 7 10 7 C10 13.27 10 19.54 10 26 C6.7 26 3.4 26 0 26 C0 17.42 0 8.84 0 0 Z " fill="#F2F4F8" transform="translate(197,93)"/>
<path d="M0 0 C0.99773437 0.02320313 1.99546875 0.04640625 3.0234375 0.0703125 C4.52777344 0.09738281 4.52777344 0.09738281 6.0625 0.125 C6.83335938 0.14820313 7.60421875 0.17140625 8.3984375 0.1953125 C8.3984375 1.1853125 8.3984375 2.1753125 8.3984375 3.1953125 C7.7384375 3.8553125 7.0784375 4.5153125 6.3984375 5.1953125 C6.3984375 6.5153125 6.3984375 7.8353125 6.3984375 9.1953125 C6.7284375 8.5353125 7.0584375 7.8753125 7.3984375 7.1953125 C9.8734375 7.6903125 9.8734375 7.6903125 12.3984375 8.1953125 C12.3984375 8.8553125 12.3984375 9.5153125 12.3984375 10.1953125 C11.8003125 10.4634375 11.2021875 10.7315625 10.5859375 11.0078125 C8.42618942 12.18024717 7.04053494 13.38900532 5.3984375 15.1953125 C4.7384375 13.2153125 4.0784375 11.2353125 3.3984375 9.1953125 C3.0684375 9.1953125 2.7384375 9.1953125 2.3984375 9.1953125 C2.3984375 7.5453125 2.3984375 5.8953125 2.3984375 4.1953125 C-1.20669653 6.25538909 -4.40487262 8.5466266 -7.6015625 11.1953125 C-4.6315625 11.6903125 -4.6315625 11.6903125 -1.6015625 12.1953125 C-3.98729629 14.08744619 -5.67331598 15.21923033 -8.6015625 16.1953125 C-8.6015625 18.81644958 -8.28863805 20.70466362 -7.6015625 23.1953125 C-10.73654542 25.05308015 -12.97627682 25.39671726 -16.6015625 25.1953125 C-16.9315625 24.2053125 -17.2615625 23.2153125 -17.6015625 22.1953125 C-18.5915625 21.8653125 -19.5815625 21.5353125 -20.6015625 21.1953125 C-20.04023316 17.6581687 -18.90598503 16.20269571 -16.1640625 13.9453125 C-15.54660156 13.42453125 -14.92914063 12.90375 -14.29296875 12.3671875 C-12.6015625 11.1953125 -12.6015625 11.1953125 -10.6015625 11.1953125 C-10.5396875 10.6384375 -10.4778125 10.0815625 -10.4140625 9.5078125 C-9.26281427 6.23118293 -7.11996586 4.52944244 -4.6015625 2.1953125 C-2.6015625 0.1953125 -2.6015625 0.1953125 0 0 Z " fill="#CE1B26" transform="translate(92.6015625,198.8046875)"/>
<path d="M0 0 C0.33 0 0.66 0 1 0 C1 3.3 1 6.6 1 10 C2.32 9.67 3.64 9.34 5 9 C4.814375 10.11375 4.62875 11.2275 4.4375 12.375 C3.79677193 17.34064255 4.34208963 22.06061137 5 27 C5.66 27 6.32 27 7 27 C7.33 26.34 7.66 25.68 8 25 C10 26.8125 10 26.8125 12 29 C12 29.99 12 30.98 12 32 C9.9375 33.3125 9.9375 33.3125 7 34 C4.01037903 32.9671052 1.99618566 31.44324808 0 29 C-0.79048837 26.40621002 -1.17599825 24.0032737 -1.41796875 21.3046875 C-2.1718605 18.31947855 -3.51438905 17.68364028 -6 16 C-6 15.34 -6 14.68 -6 14 C-8.06516938 15.24575371 -10.12708989 16.49641715 -12.1875 17.75 C-12.76564453 18.09804687 -13.34378906 18.44609375 -13.93945312 18.8046875 C-17.50733057 20.98169747 -20.79429514 23.31952362 -24 26 C-22.66294386 20.31751143 -18.51850632 18.13953798 -14 15 C-10.97153393 12.69573234 -9.1175906 11.1763859 -7 8 C-6.175 7.54625 -5.35 7.0925 -4.5 6.625 C-1.55505695 4.71078701 -0.98275834 3.30564167 0 0 Z " fill="#EEEEF3" transform="translate(198,213)"/>
<path d="M0 0 C0.5775 0.804375 1.155 1.60875 1.75 2.4375 C3.66403024 5.12357598 3.66403024 5.12357598 5.9375 5.4375 C8.78026282 6.21279895 9.76128414 8.05611554 11.5078125 10.3125 C13.741151 12.8381603 16.38924489 14.66789084 19.1328125 16.60546875 C20.9307269 17.94826256 22.45679901 19.37532567 24 21 C23.67 21.66 23.34 22.32 23 23 C22.48050781 22.60167969 21.96101563 22.20335937 21.42578125 21.79296875 C14.67877824 16.5743939 14.67877824 16.5743939 7 13 C3.27257545 15.89227069 3.27257545 15.89227069 1.69140625 20.16015625 C1.66949219 20.93230469 1.64757812 21.70445312 1.625 22.5 C1.46784274 25.26411886 1.35263252 26.57414324 -0.4296875 28.7265625 C-3.41887137 31.02297415 -5.11016221 32.05679816 -8.9375 31.8125 C-9.618125 31.544375 -10.29875 31.27625 -11 31 C-11 29.68 -11 28.36 -11 27 C-9.576875 26.5359375 -9.576875 26.5359375 -8.125 26.0625 C-4.72362398 23.81759183 -4.46087883 23.41922746 -3.5625 19.6875 C-2.82277874 15.14561149 -2.90780387 11.18439225 -5 7 C-3.02 7.66 -1.04 8.32 1 9 C0.67 8.34 0.34 7.68 0 7 C-0.04022391 4.6670134 -0.04320247 2.33293334 0 0 Z " fill="#F3F3F6" transform="translate(109,215)"/>
<path d="M0 0 C4.20626034 1.50223584 5.73900021 4.28550034 8 8 C9.98 7.67 11.96 7.34 14 7 C13.01 8.65 12.02 10.3 11 12 C13.64 10.68 16.28 9.36 19 8 C17.87735949 10.24528103 16.72866551 12.47940446 15.4921875 14.6640625 C11.83630867 21.35767639 10.08799772 26.36620316 11 34 C9.07318334 32.38494943 8.09195471 31.49945928 7.62890625 28.984375 C7.60699219 28.24703125 7.58507812 27.5096875 7.5625 26.75 C7.1174323 21.06611462 5.07740912 17.07740912 1 13 C1.33 12.01 1.66 11.02 2 10 C2.03874921 8.33378384 2.0450286 6.66605828 2 5 C0.35 6.32 -1.3 7.64 -3 9 C-2.25 2.25 -2.25 2.25 0 0 Z " fill="#CE1A24" transform="translate(103,183)"/>
<path d="M0 0 C4.97246821 0.15068085 7.26353376 2.85621928 10.546875 6.2109375 C12 8 12 8 13 11 C14.56985676 12.26370285 14.56985676 12.26370285 16.4375 13.375 C19.62252825 15.52228339 21.01616492 17.17397469 22 21 C21.01 21.33 20.02 21.66 19 22 C19 22.66 19 23.32 19 24 C15.75 24.75 15.75 24.75 12 25 C9.5625 23.0625 9.5625 23.0625 8 21 C8.99 20.01 9.98 19.02 11 18 C10.67 17.443125 10.34 16.88625 10 16.3125 C9 14 9 14 9.125 11.5625 C8.95012851 7.9776345 7.45516969 6.5253174 5 4 C4.01 3.67 3.02 3.34 2 3 C2 2.34 2 1.68 2 1 C1.34 0.67 0.68 0.34 0 0 Z " fill="#B82233" transform="translate(214,199)"/>
<path d="M0 0 C0.33 0.66 0.66 1.32 1 2 C0.42504564 3.5695357 -0.21838592 5.11413606 -0.890625 6.64453125 C-3.64319708 13.89905104 -3.67105061 21.01563874 -3.75 28.6875 C-3.77823211 30.08271807 -3.80816932 31.47790271 -3.83984375 32.87304688 C-3.90992764 36.24875447 -3.96293046 39.62379589 -4 43 C-5.32 43 -6.64 43 -8 43 C-8.40878448 27.29429066 -8.73551408 13.67297856 0 0 Z " fill="#ECF1F7" transform="translate(149,35)"/>
<path d="M0 0 C1.65 0.33 3.3 0.66 5 1 C5.268125 2.093125 5.53625 3.18625 5.8125 4.3125 C6.87663739 7.61692663 7.34654664 8.94960422 10 11 C9.34 12.32 8.68 13.64 8 15 C1.6 15.36923077 1.6 15.36923077 -1.4375 13.5 C-1.953125 13.005 -2.46875 12.51 -3 12 C-2.67 11.34 -2.34 10.68 -2 10 C-2.33 9.34 -2.66 8.68 -3 8 C-3.33 7.34 -3.66 6.68 -4 6 C-3.67 5.34 -3.34 4.68 -3 4 C-1.68 4.99 -0.36 5.98 1 7 C0.2575 6.319375 0.2575 6.319375 -0.5 5.625 C-2 4 -2 4 -2 2 C-1.34 2 -0.68 2 0 2 C0 1.34 0 0.68 0 0 Z " fill="#E8E8EE" transform="translate(142,209)"/>
<path d="M0 0 C0.66 0 1.32 0 2 0 C2 3.63 2 7.26 2 11 C0.35 10.67 -1.3 10.34 -3 10 C-2.01 11.485 -2.01 11.485 -1 13 C-1 14.32 -1 15.64 -1 17 C-1.66 17 -2.32 17 -3 17 C-3.33 17.99 -3.66 18.98 -4 20 C-6.5625 21.6875 -6.5625 21.6875 -9 23 C-11 21 -11 21 -11.1953125 18.8359375 C-11.17210938 18.02382812 -11.14890625 17.21171875 -11.125 16.375 C-11.10695313 15.55773437 -11.08890625 14.74046875 -11.0703125 13.8984375 C-11.04710938 13.27195313 -11.02390625 12.64546875 -11 12 C-6.125 11 -6.125 11 -5 11 C-5.99 9.68 -6.98 8.36 -8 7 C-5.69 7 -3.38 7 -1 7 C-0.67 4.69 -0.34 2.38 0 0 Z " fill="#4A4176" transform="translate(108,213)"/>
<path d="M0 0 C1.32 0 2.64 0 4 0 C5 2 5 2 5 5 C4.01 6.485 4.01 6.485 3 8 C4.65 6.68 6.3 5.36 8 4 C7.34 5.65 6.68 7.3 6 9 C6.33 9.33 6.66 9.66 7 10 C5.25 13.875 5.25 13.875 3 15 C0.6670134 15.04022391 -1.66706666 15.04320247 -4 15 C-4.66 13.68 -5.32 12.36 -6 11 C-5.38125 10.29875 -4.7625 9.5975 -4.125 8.875 C-1.9572991 5.94222819 -0.97344445 3.48817594 0 0 Z " fill="#E6E6ED" transform="translate(163,209)"/>
<path d="M0 0 C0.99 0.33 1.98 0.66 3 1 C1.515 2.485 1.515 2.485 0 4 C1.65 3.34 3.3 2.68 5 2 C6.3271261 5.9813783 6.06915913 9.85045227 6 14 C4.02 14.99 4.02 14.99 2 16 C1.34 14.68 0.68 13.36 0 12 C-0.99 12.33 -1.98 12.66 -3 13 C-4.47692308 5.73846154 -4.47692308 5.73846154 -2.0625 2 C-1.381875 1.34 -0.70125 0.68 0 0 Z " fill="#362D67" transform="translate(205,220)"/>
<path d="M0 0 C-0.495 0.5775 -0.99 1.155 -1.5 1.75 C-3.36980013 4.10400629 -3.36980013 4.10400629 -3 8 C-2.67 7.34 -2.34 6.68 -2 6 C0.475 6.495 0.475 6.495 3 7 C3 7.66 3 8.32 3 9 C2.401875 9.268125 1.80375 9.53625 1.1875 9.8125 C-0.97224808 10.98493467 -2.35790256 12.19369282 -4 14 C-4.66 12.02 -5.32 10.04 -6 8 C-6.33 8 -6.66 8 -7 8 C-7 6.35 -7 4.7 -7 3 C-10.60513403 5.06007659 -13.80331012 7.3513141 -17 10 C-14.03 10.495 -14.03 10.495 -11 11 C-11 11.33 -11 11.66 -11 12 C-13.64 12 -16.28 12 -19 12 C-18.41435372 8.04688761 -16.80790963 5.80790963 -14 3 C-9.45814747 0.30035681 -5.24619423 -2.03078486 0 0 Z " fill="#C72B38" transform="translate(102,200)"/>
<path d="M0 0 C1.2065625 1.2375 1.2065625 1.2375 2.4375 2.5 C5.81172968 5.29989271 8.49629372 5.66760134 12.80859375 5.44140625 C16.25947305 4.74630935 18.29683075 3.21798502 21 1 C20.29337199 4.67446567 18.81159884 7.73912209 17 11 C13.44865867 12.77567067 9.84369842 12.90780817 6 12 C3.32312312 9.7140666 1.48354345 7.18816397 0 4 C0 2.68 0 1.36 0 0 Z " fill="#F4F4F7" transform="translate(143,245)"/>
<path d="M0 0 C1 3 1 3 0.29418945 4.99853516 C-0.09551025 5.75440918 -0.48520996 6.5102832 -0.88671875 7.2890625 C-1.32483887 8.14048828 -1.76295898 8.99191406 -2.21435547 9.86914062 C-2.70049316 10.77857422 -3.18663086 11.68800781 -3.6875 12.625 C-4.18137207 13.55763672 -4.67524414 14.49027344 -5.18408203 15.45117188 C-11.13001793 26.42770952 -17.87630162 37.3739579 -27 46 C-27 41.2455102 -26.32569606 40.83494441 -23.25 37.4375 C-13.77131025 26.26672187 -6.0621678 13.32081608 0 0 Z " fill="#DDDDE7" transform="translate(249,207)"/>
<path d="M0 0 C2.5 1.625 2.5 1.625 5 4 C5.375 7.1875 5.375 7.1875 5 10 C4 11 4 11 1.96875 11.1328125 C1.1540625 11.13023437 0.339375 11.12765625 -0.5 11.125 C-1.3146875 11.12757813 -2.129375 11.13015625 -2.96875 11.1328125 C-5 11 -5 11 -6 10 C-5.30232558 3.60465116 -5.30232558 3.60465116 -4 1 C-3.34 1 -2.68 1 -2 1 C-1.67 1.66 -1.34 2.32 -1 3 C-0.67 2.01 -0.34 1.02 0 0 Z " fill="#CD1924" transform="translate(154,232)"/>
<path d="M0 0 C0.33 0.66 0.66 1.32 1 2 C0.67 2.66 0.34 3.32 0 4 C-0.08342159 5.44848582 -0.10732861 6.90070869 -0.09765625 8.3515625 C-0.09443359 9.20234375 -0.09121094 10.053125 -0.08789062 10.9296875 C-0.07951172 11.81914062 -0.07113281 12.70859375 -0.0625 13.625 C-0.05798828 14.5221875 -0.05347656 15.419375 -0.04882812 16.34375 C-0.03702591 18.56256648 -0.02056155 20.78125018 0 23 C1.32 22.67 2.64 22.34 4 22 C3.67 22.66 3.34 23.32 3 24 C0.4375 24.625 0.4375 24.625 -2 25 C-2.33 22.69 -2.66 20.38 -3 18 C-3.99 19.32 -4.98 20.64 -6 22 C-6.99 21.67 -7.98 21.34 -9 21 C-8.34 19.68 -7.68 18.36 -7 17 C-6.67 17.33 -6.34 17.66 -6 18 C-5.90203125 17.20335937 -5.8040625 16.40671875 -5.703125 15.5859375 C-4.82635407 9.37295727 -4.05194808 4.86233769 0 0 Z " fill="#2D2966" transform="translate(201,198)"/>
<path d="M0 0 C0.86625 0.350625 1.7325 0.70125 2.625 1.0625 C6.86764082 2.24101134 10.05239049 1.97380476 14 0 C13.52498242 2.21674869 12.9801301 4.03857099 11.9375 6.0625 C10.78221954 8.09134681 10.78221954 8.09134681 11 11 C8.36 11 5.72 11 3 11 C3.2475 10.278125 3.495 9.55625 3.75 8.8125 C4.32068381 5.82624326 4.32068381 5.82624326 2.0625 3.25 C1.381875 2.5075 0.70125 1.765 0 1 C0 0.67 0 0.34 0 0 Z " fill="#38356F" transform="translate(147,214)"/>
<path d="M0 0 C1.26237731 2.52475462 1.09856404 4.31200466 1.0625 7.125 C1.05347656 8.03507813 1.04445312 8.94515625 1.03515625 9.8828125 C1.02355469 10.58148438 1.01195312 11.28015625 1 12 C-0.98 12.99 -0.98 12.99 -3 14 C-4.65 12.35 -6.3 10.7 -8 9 C-6.35 8.34 -4.7 7.68 -3 7 C-3 6.34 -3 5.68 -3 5 C-4.98 5.33 -6.96 5.66 -9 6 C-4.5 0 -4.5 0 0 0 Z " fill="#C71C29" transform="translate(183,170)"/>
<path d="M0 0 C1.65 1.32 3.3 2.64 5 4 C4.78537109 4.79664063 4.78537109 4.79664063 4.56640625 5.609375 C3.8879064 8.47311231 3.41106361 11.34547652 2.9375 14.25 C2.76089844 15.32765625 2.58429688 16.4053125 2.40234375 17.515625 C2.26957031 18.33546875 2.13679687 19.1553125 2 20 C1.67 20 1.34 20 1 20 C0.67 17.03 0.34 14.06 0 11 C-0.99 12.32 -1.98 13.64 -3 15 C-4.65 14.67 -6.3 14.34 -8 14 C-5 12 -5 12 -3 12 C-2.01 8.04 -1.02 4.08 0 0 Z " fill="#C71D2A" transform="translate(173,193)"/>
<path d="M0 0 C2.22189824 2.22189824 2.92598892 4.08482708 4 7 C4.66 7 5.32 7 6 7 C6 8.32 6 9.64 6 11 C6.66 11.33 7.32 11.66 8 12 C7.67 12.99 7.34 13.98 7 15 C4.03 14.505 4.03 14.505 1 14 C1 13.34 1 12.68 1 12 C0.34 12 -0.32 12 -1 12 C-1 13.98 -1 15.96 -1 18 C-1.33 18 -1.66 18 -2 18 C-2 14.04 -2 10.08 -2 6 C-1.34 6 -0.68 6 0 6 C0 4.02 0 2.04 0 0 Z " fill="#D11A23" transform="translate(136,193)"/>
<path d="M0 0 C0 3 0 3 -1 6 C-1.99 6 -2.98 6 -4 6 C-4 6.66 -4 7.32 -4 8 C-4.99 8 -5.98 8 -7 8 C-7 7.34 -7 6.68 -7 6 C-11.455 5.01 -11.455 5.01 -16 4 C-10.58499818 0.38999879 -6.48719367 -1.7404666 0 0 Z " fill="#3F2F67" transform="translate(226,214)"/>
<path d="M0 0 C0 0.99 0 1.98 0 3 C0.33 3.99 0.66 4.98 1 6 C-2.12296038 7.85064319 -4.37940768 8.29356154 -8 8 C-9 7 -9 7 -9.0625 3.9375 C-9.041875 2.968125 -9.02125 1.99875 -9 1 C-5.57367167 -0.61798838 -3.61944899 -1.34053666 0 0 Z " fill="#EAE9EF" transform="translate(84,216)"/>
<path d="M0 0 C0 1.32 0 2.64 0 4 C-0.66 4 -1.32 4 -2 4 C-2.66 6.31 -3.32 8.62 -4 11 C-4.66 11 -5.32 11 -6 11 C-6.66 12.32 -7.32 13.64 -8 15 C-8.36923077 9.58461538 -8.36923077 9.58461538 -6.5 6.625 C-6.005 6.08875 -5.51 5.5525 -5 5 C-7.31 5 -9.62 5 -12 5 C-12 4.34 -12 3.68 -12 3 C-4.71428571 -1.71428571 -4.71428571 -1.71428571 0 0 Z " fill="#CA2431" transform="translate(106,195)"/>
<path d="M0 0 C3.375 0.25 3.375 0.25 7 1 C8.94241961 3.5335908 9 4.78187214 9 8 C5.75 8.75 5.75 8.75 2 9 C-0.4375 7.0625 -0.4375 7.0625 -2 5 C-1.01 4.01 -0.02 3.02 1 2 C0.67 1.34 0.34 0.68 0 0 Z " fill="#EFEEF3" transform="translate(224,215)"/>
<path d="M0 0 C0.86882812 0.26425781 1.73765625 0.52851563 2.6328125 0.80078125 C4.875 1.6875 4.875 1.6875 6.875 3.6875 C5.60660474 4.19365298 4.33516898 4.69219099 3.0625 5.1875 C2.00095703 5.60515625 2.00095703 5.60515625 0.91796875 6.03125 C-1.125 6.6875 -1.125 6.6875 -4.125 6.6875 C-5.115 6.0275 -6.105 5.3675 -7.125 4.6875 C-7.125 3.6975 -7.125 2.7075 -7.125 1.6875 C-7.785 1.0275 -8.445 0.3675 -9.125 -0.3125 C-5.64299235 -1.51905614 -3.47962394 -1.09582187 0 0 Z " fill="#3C2D66" transform="translate(90.125,214.3125)"/>
<path d="M0 0 C0.66 0 1.32 0 2 0 C2.33848652 1.89492006 2.67056911 3.79098466 3 5.6875 C3.185625 6.74324219 3.37125 7.79898438 3.5625 8.88671875 C3.95068074 11.64904062 4.08259976 14.21742043 4 17 C2.35 17.33 0.7 17.66 -1 18 C-1.11269443 11.8894576 -0.89604368 6.04829486 0 0 Z " fill="#404E89" transform="translate(82,135)"/>
<path d="M0 0 C0 4.39033649 -2.72409237 6.55156858 -5.5 9.6875 C-6.04301758 10.31092285 -6.58603516 10.9343457 -7.14550781 11.57666016 C-11.24314399 16.24253742 -15.48985794 20.72863016 -20 25 C-20.99 24.67 -21.98 24.34 -23 24 C-22.44538086 23.45061768 -21.89076172 22.90123535 -21.31933594 22.33520508 C-18.79356709 19.83029944 -16.27175563 17.32144555 -13.75 14.8125 C-12.87730469 13.94818359 -12.00460938 13.08386719 -11.10546875 12.19335938 C-9.83896484 10.93168945 -9.83896484 10.93168945 -8.546875 9.64453125 C-7.77182617 8.87471924 -6.99677734 8.10490723 -6.19824219 7.31176758 C-3.97778625 4.97663905 -1.97542657 2.54405036 0 0 Z " fill="#E4A431" transform="translate(234,249)"/>
<path d="M0 0 C5.99506529 0.73110552 11.08477878 2.08477878 15.4375 6.4375 C17 9 17 9 17 13 C14.69 13 12.38 13 10 13 C10 12.67 10 12.34 10 12 C11.65 11.67 13.3 11.34 15 11 C13.19038423 9.37168238 13.19038423 9.37168238 11 8 C10.01 8.33 9.02 8.66 8 9 C7.979375 8.4225 7.95875 7.845 7.9375 7.25 C6.4233745 3.61609879 3.44043825 2.75149584 0 1 C0 0.67 0 0.34 0 0 Z " fill="#DFB6BF" transform="translate(207,199)"/>
<path d="M0 0 C2.13000109 2.75453482 4.00243761 5.5600562 5.77734375 8.5546875 C6.29103516 9.41707031 6.80472656 10.27945313 7.33398438 11.16796875 C8.12772461 12.50794922 8.12772461 12.50794922 8.9375 13.875 C12.17628888 19.33524039 15.41206059 24.76074389 19 30 C18.01 30 17.02 30 16 30 C14.24480432 27.5922703 12.70496351 25.2397536 11.1875 22.6875 C10.74680176 21.96216064 10.30610352 21.23682129 9.85205078 20.48950195 C0 4.16267907 0 4.16267907 0 0 Z " fill="#DFDFE8" transform="translate(61,212)"/>
<path d="M0 0 C0 0.66 0 1.32 0 2 C0.94875 2.103125 1.8975 2.20625 2.875 2.3125 C6 3 6 3 8 6 C6.89140625 5.98839844 5.7828125 5.97679687 4.640625 5.96484375 C3.17708502 5.95546208 1.71354322 5.94636229 0.25 5.9375 C-0.47960937 5.92912109 -1.20921875 5.92074219 -1.9609375 5.91210938 C-5.48670558 5.89608316 -8.61034916 6.04707287 -12 7 C-8.5063473 3.20689136 -5.42241937 0 0 0 Z " fill="#342762" transform="translate(156,181)"/>
<path d="M0 0 C2 3 2 3 3.3125 6 C5.1842414 9.32754027 6.7127073 10.22308503 10 12 C10 12.66 10 13.32 10 14 C10.99 14.33 11.98 14.66 13 15 C13 15.99 13 16.98 13 18 C11.02 18.33 9.04 18.66 7 19 C7.33 18.01 7.66 17.02 8 16 C6.68 15.34 5.36 14.68 4 14 C4.66 14 5.32 14 6 14 C6 13.01 6 12.02 6 11 C5.34 11 4.68 11 4 11 C3.67 11.66 3.34 12.32 3 13 C2.49242138 11.58603098 1.99425075 10.16868271 1.5 8.75 C1.08234375 7.56664062 1.08234375 7.56664062 0.65625 6.359375 C0 4 0 4 0 0 Z " fill="#522D5E" transform="translate(136,189)"/>
<path d="M0 0 C0.33 0.66 0.66 1.32 1 2 C-0.62318979 2.36237263 -2.2486358 2.71465157 -3.875 3.0625 C-5.23238281 3.35833984 -5.23238281 3.35833984 -6.6171875 3.66015625 C-9 4 -9 4 -11 3 C-12.37342831 2.9310528 -13.75002102 2.91532292 -15.125 2.9375 C-17.043125 2.9684375 -17.043125 2.9684375 -19 3 C-14.26173124 -3.13187722 -6.55748908 -2.5329357 0 0 Z " fill="#392760" transform="translate(163,191)"/>
<path d="M0 0 C0.33 0.66 0.66 1.32 1 2 C0.41754344 3.43468247 -0.2189623 4.84743664 -0.875 6.25 C-4.40613375 15.32136084 -3.85250688 25.39133169 -4 35 C-4.33 35 -4.66 35 -5 35 C-5.06058594 34.03578125 -5.12117187 33.0715625 -5.18359375 32.078125 C-5.26738281 30.81484375 -5.35117188 29.5515625 -5.4375 28.25 C-5.51871094 26.99703125 -5.59992188 25.7440625 -5.68359375 24.453125 C-5.87658228 21.18480567 -5.87658228 21.18480567 -6.609375 18.84765625 C-7.93538832 12.57561323 -3.22343545 5.11303554 0 0 Z " fill="#B5C9E3" transform="translate(149,35)"/>
<path d="M0 0 C0.33 0 0.66 0 1 0 C0.07021792 8.05811138 0.07021792 8.05811138 -2 11 C-4.125 12.25 -4.125 12.25 -6 13 C-5.01 13.66 -4.02 14.32 -3 15 C-2.67 15.66 -2.34 16.32 -2 17 C-3.32 17.33 -4.64 17.66 -6 18 C-5.67 17.01 -5.34 16.02 -5 15 C-6.32 15 -7.64 15 -9 15 C-9.33 16.98 -9.66 18.96 -10 21 C-10.33 21 -10.66 21 -11 21 C-11.3125 18.3125 -11.3125 18.3125 -11 15 C-8.6875 12.125 -8.6875 12.125 -6 10 C-5.01 10 -4.02 10 -3 10 C-2.690625 8.72125 -2.38125 7.4425 -2.0625 6.125 C-1.52394756 3.89898325 -1.0263 2.05260001 0 0 Z " fill="#524679" transform="translate(172,194)"/>
<path d="M0 0 C-0.875 6.875 -0.875 6.875 -2 8 C-3.51928038 8.07179964 -5.04167482 8.08392007 -6.5625 8.0625 C-7.38878906 8.05347656 -8.21507813 8.04445312 -9.06640625 8.03515625 C-9.70449219 8.02355469 -10.34257813 8.01195312 -11 8 C-4.73913043 0 -4.73913043 0 0 0 Z " fill="#472D62" transform="translate(95,203)"/>
<path d="M0 0 C0 2.75 0 2.75 -1 6 C-3.46602881 7.83732696 -6.05074638 9.12547694 -9 10 C-9.66 9.67 -10.32 9.34 -11 9 C-10.67 8.67 -10.34 8.34 -10 8 C-10.66 7.34 -11.32 6.68 -12 6 C-10.35 5.67 -8.7 5.34 -7 5 C-6.67 4.01 -6.34 3.02 -6 2 C-3.85412616 0.684787 -2.52986895 0 0 0 Z " fill="#5C3362" transform="translate(170,198)"/>
<path d="M0 0 C0.33 4.62 0.66 9.24 1 14 C-0.65 14.33 -2.3 14.66 -4 15 C-4.08107583 13.06318839 -4.13922475 11.1254066 -4.1875 9.1875 C-4.22230469 8.10855469 -4.25710937 7.02960938 -4.29296875 5.91796875 C-4 3 -4 3 -2.55078125 1.11328125 C-1 0 -1 0 0 0 Z " fill="#D41922" transform="translate(136,186)"/>
<path d="M0 0 C0.66 0 1.32 0 2 0 C2.66 4.95 3.32 9.9 4 15 C2.35 15 0.7 15 -1 15 C-0.67 10.05 -0.34 5.1 0 0 Z " fill="#3C4C88" transform="translate(196,134)"/>
<path d="M0 0 C1.32 0.33 2.64 0.66 4 1 C4 3.64 4 6.28 4 9 C2.02 9.99 2.02 9.99 0 11 C-1.6875 8.875 -1.6875 8.875 -3 6 C-1.6875 2.6875 -1.6875 2.6875 0 0 Z " fill="#C21A29" transform="translate(207,225)"/>
<path d="M0 0 C1.65 0 3.3 0 5 0 C5 3.3 5 6.6 5 10 C3.35 10 1.7 10 0 10 C0 6.7 0 3.4 0 0 Z " fill="#3C4F8C" transform="translate(116,133)"/>
<path d="M0 0 C-0.50789063 0.24234375 -1.01578125 0.4846875 -1.5390625 0.734375 C-6.760908 3.27684659 -11.85210814 5.85210814 -16 10 C-13.03 10.495 -13.03 10.495 -10 11 C-10 11.33 -10 11.66 -10 12 C-12.64 12 -15.28 12 -18 12 C-17.41435372 8.04688761 -15.80790963 5.80790963 -13 3 C-4.92132179 -1.72246263 -4.92132179 -1.72246263 0 0 Z " fill="#F6D6D8" transform="translate(101,200)"/>
<path d="M0 0 C3.01563895 2.74148996 4.85210625 5.21344355 5.1953125 9.359375 C5.16050781 10.54273438 5.16050781 10.54273438 5.125 11.75 C5.10695313 12.54921875 5.08890625 13.3484375 5.0703125 14.171875 C5.03550781 15.07679688 5.03550781 15.07679688 5 16 C4.01 15.67 3.02 15.34 2 15 C2 17.31 2 19.62 2 22 C1.67 22 1.34 22 1 22 C1.01740234 20.12054688 1.01740234 20.12054688 1.03515625 18.203125 C1.04453716 16.55208483 1.05363704 14.90104304 1.0625 13.25 C1.07087891 12.425 1.07925781 11.6 1.08789062 10.75 C1.09272461 9.55117187 1.09272461 9.55117187 1.09765625 8.328125 C1.10289307 7.5949707 1.10812988 6.86181641 1.11352539 6.10644531 C0.9975109 3.9538151 0.59073271 2.0685865 0 0 Z " fill="#312965" transform="translate(106,198)"/>
<path d="M0 0 C0.66 0.33 1.32 0.66 2 1 C1 4 1 4 -2.01953125 5.71875 C-3.27906948 6.32258354 -4.54366541 6.91595353 -5.8125 7.5 C-9.80048795 9.36949691 -13.58053908 11.17485345 -17 14 C-17.66 13.67 -18.32 13.34 -19 13 C-16.77252265 11.39344326 -14.54310558 9.78970321 -12.3125 8.1875 C-11.68666016 7.73568359 -11.06082031 7.28386719 -10.41601562 6.81835938 C-3.20377604 1.64518229 -3.20377604 1.64518229 0 0 Z " fill="#D5DDEB" transform="translate(73,89)"/>
<path d="M0 0 C6.74736892 0.29336387 11.58453374 3.06319148 17 7 C19.625 9.875 19.625 9.875 21 12 C20.67 12.66 20.34 13.32 20 14 C19.34257812 13.34644531 19.34257812 13.34644531 18.671875 12.6796875 C13.04964152 7.40027314 6.99052745 4.18068999 0 1 C0 0.67 0 0.34 0 0 Z " fill="#B4C9E3" transform="translate(162,35)"/>
<path d="M0 0 C0.99 1.485 0.99 1.485 2 3 C4.13253645 3.47687303 4.13253645 3.47687303 6.5 3.375 C7.2940625 3.38273438 8.088125 3.39046875 8.90625 3.3984375 C9.5971875 3.26695312 10.288125 3.13546875 11 3 C11.66 2.01 12.32 1.02 13 0 C13 1.98 13 3.96 13 6 C9.10835652 7.29721449 6.10570774 7.13033993 2 7 C1.34 6.67 0.68 6.34 0 6 C0 4.02 0 2.04 0 0 Z " fill="#332B67" transform="translate(147,239)"/>
<path d="M0 0 C0.99 0.99 1.98 1.98 3 3 C2.01 4.32 1.02 5.64 0 7 C-0.515625 6.855625 -1.03125 6.71125 -1.5625 6.5625 C-4.68509571 5.84190099 -7.82550692 5.42733561 -11 5 C-11 4.34 -11 3.68 -11 3 C-5.555 2.505 -5.555 2.505 0 2 C0 1.34 0 0.68 0 0 Z " fill="#9899B7" transform="translate(160,243)"/>
<path d="M0 0 C0.33 0.66 0.66 1.32 1 2 C1.66 2 2.32 2 3 2 C3 2.99 3 3.98 3 5 C5.64 5 8.28 5 11 5 C11.33 5.99 11.66 6.98 12 8 C3.80743982 8.4726477 3.80743982 8.4726477 0.4375 6.5 C-0.036875 6.005 -0.51125 5.51 -1 5 C-0.67 3.35 -0.34 1.7 0 0 Z " fill="#545587" transform="translate(146,243)"/>
<path d="M0 0 C1.32 1.32 2.64 2.64 4 4 C3.67 4.66 3.34 5.32 3 6 C4.32 5.34 5.64 4.68 7 4 C8.32 5.65 9.64 7.3 11 9 C3.57690141 9.48676056 3.57690141 9.48676056 1 7.3125 C-0.13489245 4.6880612 -0.23590819 2.83089822 0 0 Z " fill="#473065" transform="translate(212,202)"/>
<path d="M0 0 C0.99 0 1.98 0 3 0 C3 4.62 3 9.24 3 14 C2.01 14 1.02 14 0 14 C0 9.38 0 4.76 0 0 Z " fill="#264E96" transform="translate(112,99)"/>
<path d="M0 0 C1.875 0.3125 1.875 0.3125 4 1 C6 4 6 4 5.8125 6.0625 C5 8 5 8 2 10 C0 8 0 8 -0.1953125 6.0546875 C-0.13020833 4.03645833 -0.06510417 2.01822917 0 0 Z " fill="#CF1924" transform="translate(97,226)"/>
<path d="M0 0 C0 0.99 0 1.98 0 3 C1.43750191 4.68798827 1.43750191 4.68798827 3 6 C2.67 6.66 2.34 7.32 2 8 C1.21625 7.360625 0.4325 6.72125 -0.375 6.0625 C-3.67344012 3.47086848 -5.5291233 2.84708767 -9.625 2.4375 C-10.44226563 2.35371094 -11.25953125 2.26992187 -12.1015625 2.18359375 C-12.72804688 2.12300781 -13.35453125 2.06242188 -14 2 C-9.92616313 -2.07383687 -5.32200558 -0.93917746 0 0 Z " fill="#C41A28" transform="translate(102,219)"/>
<path d="M0 0 C2.12508244 3.18762365 2.5020163 5.26512223 3 9 C1 9 1 9 -1.625 6.5 C-2.40875 5.675 -3.1925 4.85 -4 4 C-4.66 5.32 -5.32 6.64 -6 8 C-6.33 7.01 -6.66 6.02 -7 5 C-2.25 0 -2.25 0 0 0 Z " fill="#BC1D2D" transform="translate(205,183)"/>
<path d="M0 0 C2.22189824 2.22189824 2.92598892 4.08482708 4 7 C4.66 7 5.32 7 6 7 C6 8.32 6 9.64 6 11 C6.66 11.66 7.32 12.32 8 13 C5.6875 12.875 5.6875 12.875 3 12 C0.26935582 7.9511138 -0.34512904 4.83180659 0 0 Z " fill="#D1ABB7" transform="translate(136,193)"/>
<path d="M0 0 C0.66 0 1.32 0 2 0 C2.46733615 4.57989423 2.17261016 7.24854513 -0.5 10.9375 C-1.325 11.948125 -2.15 12.95875 -3 14 C-4 12 -4 12 -3.22265625 9.1796875 C-2.83980469 8.08914062 -2.45695313 6.99859375 -2.0625 5.875 C-1.68222656 4.77929688 -1.30195313 3.68359375 -0.91015625 2.5546875 C-0.60980469 1.71164063 -0.30945313 0.86859375 0 0 Z " fill="#D6D6E2" transform="translate(178,207)"/>
<path d="M0 0 C1.32 0.66 2.64 1.32 4 2 C4 2.99 4 3.98 4 5 C3.401875 5.28875 2.80375 5.5775 2.1875 5.875 C-0.19327792 7.04742026 -0.19327792 7.04742026 -3 9 C-2.25 2.25 -2.25 2.25 0 0 Z " fill="#BB1E2F" transform="translate(103,183)"/>
<path d="M0 0 C2.375 0.125 2.375 0.125 5 1 C6.8125 3.5625 6.8125 3.5625 8 6 C7.01 6.99 6.02 7.98 5 9 C4.34 7.02 3.68 5.04 3 3 C2.01 3.33 1.02 3.66 0 4 C-0.33 3.01 -0.66 2.02 -1 1 C-0.67 0.67 -0.34 0.34 0 0 Z " fill="#42265D" transform="translate(98,224)"/>
<path d="M0 0 C0.66 0.33 1.32 0.66 2 1 C0.61211198 2.30020011 -0.78569258 3.5898193 -2.1875 4.875 C-2.96480469 5.59429687 -3.74210938 6.31359375 -4.54296875 7.0546875 C-6.97689776 8.9817092 -9.07536646 10.01300111 -12 11 C-10.50253294 7.11002809 -8.29577922 5.53051948 -4.875 3.25 C-3.50988281 2.32960937 -3.50988281 2.32960937 -2.1171875 1.390625 C-1.06917969 0.70226563 -1.06917969 0.70226563 0 0 Z " fill="#C5D5E9" transform="translate(140,37)"/>
<path d="M0 0 C1.32 0 2.64 0 4 0 C3 3 3 3 0.1875 4.4375 C-0.864375 4.953125 -1.91625 5.46875 -3 6 C-5.31418291 8.06167261 -5.31418291 8.06167261 -7 10 C-6.52727227 5.74545047 -4.03562624 3.80795427 -1 1 C-0.67 0.67 -0.34 0.34 0 0 Z " fill="#C82B38" transform="translate(90,199)"/>
<path d="M0 0 C1.28802683 2.57605367 0.84689719 3.71447977 0.25 6.5 C0.01023438 7.69109375 0.01023438 7.69109375 -0.234375 8.90625 C-1 11 -1 11 -4 13 C-4.45732667 7.28341664 -3.52273754 4.51350747 0 0 Z " fill="#4F2558" transform="translate(201,198)"/>
<path d="M0 0 C2.09715785 3.14573677 2.52004559 5.01456251 3.125 8.6875 C3.29257813 9.68136719 3.46015625 10.67523438 3.6328125 11.69921875 C3.75398437 12.45847656 3.87515625 13.21773437 4 14 C1.3557092 11.4792063 -0.00219484 9.57546849 -1 6 C-0.625 2.6875 -0.625 2.6875 0 0 Z " fill="#D7D7E2" transform="translate(129,205)"/>
<path d="M0 0 C2 3 2 3 3.3125 6 C5.16992465 9.30208826 6.64326472 10.36699365 10 12 C8.68 12.33 7.36 12.66 6 13 C6 12.34 6 11.68 6 11 C5.34 11 4.68 11 4 11 C3.67 11.66 3.34 12.32 3 13 C2.49242138 11.58603098 1.99425075 10.16868271 1.5 8.75 C1.08234375 7.56664062 1.08234375 7.56664062 0.65625 6.359375 C0 4 0 4 0 0 Z " fill="#483D72" transform="translate(136,189)"/>
<path d="M0 0 C4.39683488 1.19913678 7.09840934 2.4288115 10 6 C10 6.66 10 7.32 10 8 C9.01 8 8.02 8 7 8 C6.34 7.01 5.68 6.02 5 5 C4.13375 4.484375 3.2675 3.96875 2.375 3.4375 C1.59125 2.963125 0.8075 2.48875 0 2 C0 1.34 0 0.68 0 0 Z " fill="#E9D2D8" transform="translate(139,195)"/>
<path d="M0 0 C0 0.99 0 1.98 0 3 C-1.63631892 4.04892238 -3.30485863 5.04906703 -5 6 C-5.33 6.66 -5.66 7.32 -6 8 C-6.99 7.67 -7.98 7.34 -9 7 C-4.56923077 1.21538462 -4.56923077 1.21538462 -1.6875 0.125 C-0.8521875 0.063125 -0.8521875 0.063125 0 0 Z " fill="#E6CAD0" transform="translate(169,195)"/>
<path d="M0 0 C0.66 0.33 1.32 0.66 2 1 C1.67 1.33 1.34 1.66 1 2 C1.66 2.66 2.32 3.32 3 4 C1.68 4.33 0.36 4.66 -1 5 C-1.33 6.32 -1.66 7.64 -2 9 C-2.99 8.67 -3.98 8.34 -5 8 C-4.45773019 4.20411134 -2.79872437 2.52788007 0 0 Z " fill="#A6253D" transform="translate(77,212)"/>
<path d="M0 0 C4.98012761 1.50912958 8.24259942 4.55661849 12 8 C8.32965255 8 6.9000569 6.9247108 3.8125 5 C2.91144531 4.443125 2.01039063 3.88625 1.08203125 3.3125 C0.39496094 2.879375 -0.29210937 2.44625 -1 2 C-0.67 1.34 -0.34 0.68 0 0 Z " fill="#CED7E8" transform="translate(244,94)"/>
<path d="M0 0 C0.66 0 1.32 0 2 0 C3.5078125 1.96875 3.5078125 1.96875 5.125 4.5 C5.66382812 5.3353125 6.20265625 6.170625 6.7578125 7.03125 C7.16773437 7.6809375 7.57765625 8.330625 8 9 C4.84143557 8.40279244 4.07613063 8.08036011 1.75 5.625 C0 3 0 3 0 0 Z " fill="#E8E8EE" transform="translate(79,242)"/>
<path d="M0 0 C0.33 0 0.66 0 1 0 C0.01923077 8.5 0.01923077 8.5 -2 11 C-5.125 11.75 -5.125 11.75 -8 12 C-7.34 11.34 -6.68 10.68 -6 10 C-5.01 10 -4.02 10 -3 10 C-2.690625 8.72125 -2.38125 7.4425 -2.0625 6.125 C-1.52394756 3.89898325 -1.0263 2.05260001 0 0 Z " fill="#D9BDC7" transform="translate(172,194)"/>
<path d="M0 0 C1.65 0.33 3.3 0.66 5 1 C5 2.32 5 3.64 5 5 C2.69 4.67 0.38 4.34 -2 4 C-2 3.34 -2 2.68 -2 2 C-1.34 2 -0.68 2 0 2 C0 1.34 0 0.68 0 0 Z " fill="#CCCCDB" transform="translate(142,209)"/>
<path d="M0 0 C1.32 0.33 2.64 0.66 4 1 C4 1.66 4 2.32 4 3 C2.68 3 1.36 3 0 3 C0 3.99 0 4.98 0 6 C-1.65 6 -3.3 6 -5 6 C-3.35 4.02 -1.7 2.04 0 0 Z " fill="#635380" transform="translate(89,205)"/>
<path d="M0 0 C3.875 0.875 3.875 0.875 5 2 C5.04063832 3.66617115 5.042721 5.33388095 5 7 C3.02 5.68 1.04 4.36 -1 3 C-0.67 2.01 -0.34 1.02 0 0 Z " fill="#F5E4E6" transform="translate(204,206)"/>
<path d="M0 0 C3.61177699 3.52271948 4.95149613 5.54488379 5.125 10.75 C5.08375 11.8225 5.0425 12.895 5 14 C2.42924159 10.98552165 1.47792934 8.64020229 0.8125 4.75 C0.65394531 3.85796875 0.49539062 2.9659375 0.33203125 2.046875 C0.22246094 1.37140625 0.11289063 0.6959375 0 0 Z " fill="#542455" transform="translate(106,198)"/>
<path d="M0 0 C2.5 1.4375 2.5 1.4375 5 4 C5.4451258 7.04256578 5.29359745 9.9465865 5 13 C4.67 13 4.34 13 4 13 C3.566875 11.453125 3.566875 11.453125 3.125 9.875 C2.17691202 6.54992003 1.11743406 3.27248547 0 0 Z " fill="#4B2F63" transform="translate(205,201)"/>
<path d="M0 0 C0.99 0.66 1.98 1.32 3 2 C3 3.32 3 4.64 3 6 C1.35 6.66 -0.3 7.32 -2 8 C-1.125 1.125 -1.125 1.125 0 0 Z " fill="#D46B75" transform="translate(107,187)"/>
<path d="M0 0 C0.33 0 0.66 0 1 0 C1.66 2.97 2.32 5.94 3 9 C2.01 9.33 1.02 9.66 0 10 C-1.125 2.25 -1.125 2.25 0 0 Z " fill="#C71A27" transform="translate(126,174)"/>
<path d="M0 0 C1.24546405 2.49092811 0.7767578 3.41080733 0 6 C-0.66 6 -1.32 6 -2 6 C-2.66 7.32 -3.32 8.64 -4 10 C-4.25 7.25 -4.25 7.25 -4 4 C-2 1.625 -2 1.625 0 0 Z " fill="#492E62" transform="translate(102,200)"/>
<path d="M0 0 C0.99 0.33 1.98 0.66 3 1 C1.02 2.98 -0.96 4.96 -3 7 C-3.99 6.67 -4.98 6.34 -6 6 C-4.02 4.02 -2.04 2.04 0 0 Z " fill="#E9A322" transform="translate(217,267)"/>
<path d="M0 0 C0.6875 1.75 0.6875 1.75 1 4 C-0.4375 6.25 -0.4375 6.25 -2 8 C-2.99 7.67 -3.98 7.34 -5 7 C-4.34 5.68 -3.68 4.36 -3 3 C-2.67 3.33 -2.34 3.66 -2 4 C-1.34 2.68 -0.68 1.36 0 0 Z " fill="#422D64" transform="translate(197,212)"/>
<path d="M0 0 C1.65 0.33 3.3 0.66 5 1 C5 1.66 5 2.32 5 3 C3.02 3.99 1.04 4.98 -1 6 C-0.67 4.02 -0.34 2.04 0 0 Z " fill="#F9EDEE" transform="translate(100,206)"/>
<path d="M0 0 C5.35048061 0.37328935 7.50912907 1.9957657 11 6 C6.80639551 5.32902328 3.59665648 3.1441606 0 1 C0 0.67 0 0.34 0 0 Z " fill="#F3DEE1" transform="translate(207,199)"/>
<path d="M0 0 C-0.6875 2.875 -0.6875 2.875 -2 6 C-4.625 7.375 -4.625 7.375 -7 8 C-6.484375 7.21625 -5.96875 6.4325 -5.4375 5.625 C-4.963125 4.75875 -4.48875 3.8925 -4 3 C-4.33 2.34 -4.66 1.68 -5 1 C-2 0 -2 0 0 0 Z " fill="#552455" transform="translate(120,188)"/>
<path d="M0 0 C3 1 3 1 6 3 C2.04 3.66 -1.92 4.32 -6 5 C-2 1 -2 1 0 0 Z " fill="#4E2558" transform="translate(152,176)"/>
<path d="M0 0 C0.99 0.33 1.98 0.66 3 1 C0.42215154 3.64752004 -1.91648098 5.94432065 -5 8 C-3.8141763 4.62496331 -2.72426311 2.35277269 0 0 Z " fill="#D3D3E0" transform="translate(179,231)"/>
<path d="M0 0 C0.66 0.33 1.32 0.66 2 1 C1.34 2.32 0.68 3.64 0 5 C0 4.34 0 3.68 0 3 C-1.98 4.32 -3.96 5.64 -6 7 C-5.8125 5.1875 -5.8125 5.1875 -5 3 C-2.5625 1.1875 -2.5625 1.1875 0 0 Z " fill="#4D2559" transform="translate(208,222)"/>
<path d="M0 0 C3.25543229 0.34879632 4.01873107 1.02133261 6.25 3.5625 C6.8275 4.366875 7.405 5.17125 8 6 C7.67 6.66 7.34 7.32 7 8 C5.8274869 7.04882866 4.66212985 6.08882991 3.5 5.125 C2.8503125 4.59132813 2.200625 4.05765625 1.53125 3.5078125 C1.0259375 3.01023438 0.520625 2.51265625 0 2 C0 1.34 0 0.68 0 0 Z " fill="#C5D5E9" transform="translate(175,41)"/>
<path d="M0 0 C1.98 0.495 1.98 0.495 4 1 C4 1.66 4 2.32 4 3 C5.45833358 4.62514468 5.45833358 4.62514468 7 6 C6.67 6.66 6.34 7.32 6 8 C3.56070254 6.07423885 1.19909405 4.19909405 -1 2 C-0.67 1.34 -0.34 0.68 0 0 Z " fill="#A81D33" transform="translate(98,219)"/>
<path d="M0 0 C1 3 1 3 0.0625 5.1875 C-0.4634375 6.0846875 -0.4634375 6.0846875 -1 7 C-3.475 6.01 -3.475 6.01 -6 5 C-5.01 4.34 -4.02 3.68 -3 3 C-1.98131338 2.01904252 -0.97648017 1.02297922 0 0 Z " fill="#EADCE1" transform="translate(181,175)"/>
<path d="M0 0 C0.33 0.66 0.66 1.32 1 2 C0.22265625 3.7265625 0.22265625 3.7265625 -0.9375 5.625 C-1.618125 6.73875 -2.29875 7.8525 -3 9 C-3.66 8.34 -4.32 7.68 -5 7 C-3.35 4.69 -1.7 2.38 0 0 Z " fill="#E0E0E9" transform="translate(240,225)"/>
<path d="M0 0 C1.98 0.495 1.98 0.495 4 1 C3.1875 2.9375 3.1875 2.9375 2 5 C1.01 5.33 0.02 5.66 -1 6 C-0.67 4.02 -0.34 2.04 0 0 Z " fill="#CFCFDD" transform="translate(223,224)"/>
<path d="M0 0 C1.32 0 2.64 0 4 0 C4 1.98 4 3.96 4 6 C2.62437146 4.71034824 1.29233607 3.37310707 0 2 C0 1.34 0 0.68 0 0 Z " fill="#CFCFDD" transform="translate(143,225)"/>
</svg>
