<?xml version="1.0" encoding="UTF-8"?>
<svg version="1.1" xmlns="http://www.w3.org/2000/svg" width="800" height="600">
<path d="M0 0 C264 0 528 0 800 0 C800 198 800 396 800 600 C536 600 272 600 0 600 C0 402 0 204 0 0 Z " fill="#FEFEFE" transform="translate(0,0)"/>
<path d="M0 0 C8.6068082 1.87908822 17.17787299 3.90737968 25.75 5.9375 C26.56402283 6.1301947 27.37804565 6.3228894 28.21673584 6.52142334 C55.70940699 13.03544725 83.15304125 19.75590015 110.55029297 26.65991211 C117.59784065 28.42628758 124.6637627 30.08423738 131.75 31.6875 C146.69719282 35.0729446 161.54718477 38.85243858 176.40722656 42.59838867 C178.39252765 43.09834499 180.37787872 43.59810289 182.36328125 44.09765625 C183.33299362 44.34167175 184.30270599 44.58568726 185.30180359 44.83709717 C192.85540442 46.73026903 200.42489913 48.5510012 208.008255 50.32118225 C215.0768738 51.98089043 222.0460133 53.90796031 229 56 C229.01417969 56.82242188 229.02835938 57.64484375 229.04296875 58.4921875 C229.42916353 67.53123299 230.9496507 74.7307129 237.3125 81.4375 C248.54200821 87.96628384 255.73518948 86.35159952 270 87 C269.67 108.12 269.34 129.24 269 151 C266.03 151 263.06 151 260 151 C259.42706506 145.53769013 258.85749723 140.07504346 258.29101562 134.61206055 C258.09792578 132.75454275 257.90392414 130.89711949 257.70898438 129.03979492 C257.42857627 126.36661864 257.15147348 123.69311698 256.875 121.01953125 C256.78750488 120.19226028 256.70000977 119.36498932 256.60986328 118.51264954 C256.21419304 114.65673063 255.89033517 110.88282049 256 107 C255.41734375 107.03480469 254.8346875 107.06960937 254.234375 107.10546875 C239.59120949 107.5889695 225.65395536 102.1499396 214.5 92.6875 C210.02763868 88.3922619 206.61750814 83.62870652 204 78 C204 77.34 204 76.68 204 76 C203.38666306 75.8880278 202.77332611 75.7760556 202.1414032 75.66069031 C196.17105045 74.52548415 190.43425418 73.04306479 184.64453125 71.20703125 C183.7884729 70.94018021 182.93241455 70.67332916 182.05041504 70.39839172 C179.30299544 69.5409817 176.5577803 68.67673217 173.8125 67.8125 C171.908628 67.2173577 170.00457418 66.62279678 168.1003418 66.02880859 C164.38277484 64.86902387 160.66578998 63.70740484 156.94921875 62.54443359 C151.07878715 60.70978474 145.19883366 58.9080106 139.3125 57.125 C138.44407471 56.86130615 137.57564941 56.5976123 136.6809082 56.32592773 C133.14803544 55.25400637 129.61421743 54.18526137 126.07958984 53.11914062 C106.62841442 47.25157267 106.62841442 47.25157267 98.375 44.4375 C93.65176117 42.832115 88.91719197 41.39878479 84.10961914 40.07714844 C14.67545343 20.9366653 14.67545343 20.9366653 0 3 C0 2.01 0 1.02 0 0 Z " fill="#D66824" transform="translate(104,145)"/>
<path d="M0 0 C-2.62592891 8.15863475 -10.50525875 11.77718359 -17.73046875 15.4921875 C-28.56461704 20.86069865 -39.63203335 25.34100222 -51.04492188 29.31103516 C-53.50763032 30.17888771 -55.93851095 31.12391538 -58.375 32.0625 C-64.46899673 34.28022198 -70.7233958 35.96164877 -76.96166992 37.71899414 C-87.21416926 40.60872277 -97.36185607 43.75838508 -107.44921875 47.17944336 C-115.52013801 49.91288624 -123.63198183 52.37611509 -131.83520508 54.68164062 C-141.28992642 57.34392505 -150.67661383 60.21856572 -160.06640625 63.10009766 C-164.02230199 64.31359896 -167.97938402 65.52314627 -171.93798828 66.7277832 C-173.88070305 67.32125592 -175.82182463 67.91997167 -177.76123047 68.52416992 C-182.14387259 69.88062985 -186.50060545 71.15243511 -190.9765625 72.1640625 C-198.88572217 73.85026228 -198.88572217 73.85026228 -205.31640625 78.47265625 C-207.09448121 81.28241147 -207.09448121 81.28241147 -208.5546875 84.22265625 C-214.01063003 94.70691338 -225.61132209 100.7691495 -236.4375 104.3125 C-242.94237785 106.26838844 -249.11827904 106.9412737 -256 108 C-257.65 122.19 -259.3 136.38 -261 151 C-263.64 151 -266.28 151 -269 151 C-269.86878893 143.08793165 -270.13489941 135.28778712 -270.09765625 127.33203125 C-270.0962413 126.17120529 -270.09482635 125.01037933 -270.09336853 123.81437683 C-270.08782058 120.1470571 -270.07527805 116.47980093 -270.0625 112.8125 C-270.05747826 110.30924568 -270.05291654 107.80599039 -270.04882812 105.30273438 C-270.03786826 99.20180163 -270.02118287 93.10090536 -270 87 C-269.42523422 86.97625305 -268.85046844 86.9525061 -268.25828552 86.92803955 C-265.62897645 86.81650965 -263.00006333 86.69737958 -260.37109375 86.578125 C-259.46693726 86.54090332 -258.56278076 86.50368164 -257.63122559 86.46533203 C-249.93377106 86.10722924 -243.21879682 85.60243147 -237.0625 80.625 C-232.21965606 74.46138044 -230.97944925 69.99213221 -230.4375 62.25 C-230.35371094 61.07953125 -230.26992188 59.9090625 -230.18359375 58.703125 C-230.09271484 57.36507812 -230.09271484 57.36507812 -230 56 C-223.4379013 53.6730792 -216.83910415 51.8949807 -210.0625 50.3125 C-208.45435425 49.93121948 -208.45435425 49.93121948 -206.8137207 49.54223633 C-201.24490817 48.22429323 -195.67220807 46.9230278 -190.09938049 45.62219238 C-186.62848086 44.8117929 -183.15791295 43.99998089 -179.6875 43.1875 C-178.97445709 43.02068726 -178.26141418 42.85387451 -177.52676392 42.68200684 C-165.65993847 39.90207604 -153.83251948 36.98089804 -142.01513672 33.99847412 C-129.28554831 30.78800316 -116.52265259 27.73741277 -103.74169922 24.73864746 C-93.46929182 22.32615671 -83.23872552 19.80994365 -73.04248047 17.09033203 C-65.28567687 15.03593459 -57.47925712 13.24230756 -49.65307617 11.47338867 C-42.89915097 9.93396832 -36.17074221 8.3107076 -29.453125 6.62109375 C-28.63466599 6.41524155 -27.81620697 6.20938934 -26.97294617 5.99729919 C-22.89481143 4.96957943 -18.81839221 3.93540187 -14.7434082 2.89526367 C-13.24691472 2.51608498 -11.7504144 2.13693331 -10.25390625 1.7578125 C-9.56447937 1.57999741 -8.87505249 1.40218231 -8.16473389 1.21897888 C-5.35209993 0.50853447 -2.91541726 0 0 0 Z " fill="#D66723" transform="translate(696,145)"/>
<path d="M0 0 C0.49543545 12.20009803 -4.95126113 23.06502815 -13 32 C-22.08531784 40.64253159 -32.84714801 44.571162 -44.8125 47.5625 C-47.14236058 48.1662985 -49.47179507 48.77174375 -51.80078125 49.37890625 C-52.83372314 49.6426001 -53.86666504 49.90629395 -54.9309082 50.17797852 C-59.12313889 51.30082003 -63.25152391 52.60298798 -67.38671875 53.91796875 C-72.66441416 55.49842456 -77.98899855 56.89526168 -83.3125 58.3125 C-92.92423142 60.8736132 -102.48752912 63.56198282 -112.02856445 66.37426758 C-119.16960154 68.47608919 -126.32825306 70.50562531 -133.5 72.5 C-141.32765221 74.6794192 -149.14100512 76.89912302 -156.9375 79.1875 C-175.26155463 84.56243044 -193.63216762 89.77704387 -212 95 C-212.73148254 95.20810303 -213.46296509 95.41620605 -214.21661377 95.63061523 C-218.47633478 96.84209438 -222.73755239 98.04814001 -227 99.25 C-228.01312256 99.53746094 -229.02624512 99.82492187 -230.07006836 100.12109375 C-230.9750708 100.37503906 -231.88007324 100.62898438 -232.8125 100.890625 C-233.96685547 101.21595215 -233.96685547 101.21595215 -235.14453125 101.54785156 C-237 102 -237 102 -239 102 C-238.67 99.36 -238.34 96.72 -238 94 C-236.29457031 93.58041016 -236.29457031 93.58041016 -234.5546875 93.15234375 C-216.49175182 88.53835626 -201.37705791 81.45295093 -190 66 C-189.59230377 65.18402344 -189.18460754 64.36804688 -188.76455688 63.52734375 C-186.57466202 60.39079591 -185.14438759 59.93599857 -181.51318359 58.859375 C-180.38705658 58.51551758 -179.26092957 58.17166016 -178.10067749 57.81738281 C-176.87893829 57.46514648 -175.6571991 57.11291016 -174.3984375 56.75 C-173.12016913 56.36718296 -171.8423948 55.98271281 -170.56509399 55.59667969 C-167.19309236 54.5824643 -163.81482288 53.59094383 -160.43475342 52.60400391 C-157.05921526 51.61415812 -153.69006416 50.60308254 -150.3203125 49.59375 C-142.88724712 47.371688 -135.4448821 45.18216488 -128 43 C-126.23863767 42.48259369 -124.4773196 41.96503667 -122.71606445 41.44726562 C-120.58507572 40.820815 -118.45408514 40.19437395 -116.32286072 39.56872559 C-110.68431197 37.91199311 -105.05805486 36.21667268 -99.4375 34.5 C-98.46353271 34.20303223 -97.48956543 33.90606445 -96.48608398 33.60009766 C-86.96056764 30.69102773 -77.45410135 27.72328519 -67.95703125 24.72265625 C-66.59646019 24.29393422 -65.23578342 23.86554751 -63.875 23.4375 C-63.21363037 23.22923584 -62.55226074 23.02097168 -61.87084961 22.80639648 C-56.4398895 21.10901221 -50.97116948 19.56916101 -45.4765625 18.08984375 C-40.87444285 16.6471568 -36.46227441 14.82316497 -32 13 C-30.3458976 12.34291963 -28.69095779 11.68794307 -27.03515625 11.03515625 C-18.87088023 7.80011737 -10.74281936 4.56736716 -2.80078125 0.8125 C-1 0 -1 0 0 0 Z " fill="#EDAB14" transform="translate(686,167)"/>
<path d="M0 0 C0.94875 0.47308594 1.8975 0.94617188 2.875 1.43359375 C24.34413172 11.93821964 47.18651009 19.88828732 70.24926758 26.10644531 C76.25315273 27.74262308 82.14474603 29.63679348 88.02148438 31.68164062 C92.88382432 33.35587019 97.7941903 34.83509921 102.73095703 36.27246094 C110.84215592 38.64666206 118.92931995 41.09414608 127.00925636 43.57239532 C129.34278024 44.28809057 131.67667942 45.00255071 134.01066589 45.71673584 C139.7874426 47.48464211 145.56362841 49.25447551 151.33978271 51.02441406 C156.26802068 52.53446773 161.19650685 54.04370595 166.12534142 55.55181122 C168.4189209 56.25395806 170.71212853 56.95731005 173.00532532 57.66070557 C174.40563101 58.08929486 175.80595454 58.5178259 177.20629883 58.94628906 C179.03467033 59.50657806 179.03467033 59.50657806 180.89997864 60.07818604 C183.85094559 60.99927194 183.85094559 60.99927194 186.3132782 61.496521 C189.07486776 62.32084328 189.96989161 64.39919711 191.5 66.75 C192.11230469 67.65878906 192.72460938 68.56757813 193.35546875 69.50390625 C193.89816406 70.32761719 194.44085938 71.15132813 195 72 C203.13344588 84.059937 218.67156237 89.24380394 232 93 C232.78632813 93.22816406 233.57265625 93.45632813 234.3828125 93.69140625 C235.91940971 94.13621071 237.45919236 94.57000717 239 95 C239 97.31 239 99.62 239 102 C231.69905142 101.36464771 224.93085508 99.45053468 217.90234375 97.4296875 C216.63644913 97.0703714 215.3705545 96.7110553 214.06629944 96.34085083 C211.38487786 95.57945227 208.70459083 94.81422562 206.02514648 94.04589844 C202.66530365 93.08252382 199.30358503 92.12592434 195.94107437 91.17190838 C182.43777411 87.33956114 168.96602991 83.41936589 155.5483551 79.29563904 C148.69215583 77.19340372 141.81466449 75.24797312 134.875 73.4375 C132.68196647 72.85539041 130.48926207 72.27203959 128.296875 71.6875 C127.23791016 71.40519531 126.17894531 71.12289062 125.08789062 70.83203125 C114.59017114 68.00342372 104.14985524 64.96665139 93.74853516 61.80322266 C85.28788697 59.23060223 76.79561534 56.83792236 68.25 54.5625 C59.4849837 52.21932546 50.72753331 49.85463016 42 47.375 C41.0399707 47.11017822 40.07994141 46.84535645 39.09082031 46.57250977 C26.01699036 42.8123476 14.82940382 36.72663368 7.5625 24.8125 C6.69137349 23.21747963 5.83488085 21.61428788 5 20 C4.4225 18.989375 3.845 17.97875 3.25 16.9375 C0.9026474 11.4212214 -0.13679143 5.98725579 0 0 Z " fill="#EDAB13" transform="translate(113,166)"/>
<path d="M0 0 C8.03627684 0.91078123 15.97349485 3.11990063 23.8125 5.046875 C25.020271 5.34055969 26.22804199 5.63424438 27.47241211 5.93682861 C31.31568068 6.87154903 35.15794279 7.81031379 39 8.75 C54.93851269 12.64626354 70.88232216 16.46366454 86.90855408 19.98394775 C94.66443926 21.69058353 102.37344551 23.51153757 110.0625 25.5 C119.77180641 28.00116761 129.52018403 30.28873756 139.29190063 32.53166199 C151.87631012 35.42319932 164.44104496 38.39666888 177.00415039 41.37915039 C180.34334151 42.17180982 183.68301072 42.96243633 187.02278805 43.75262165 C190.25376635 44.51744038 193.48427814 45.28422121 196.71484375 46.05078125 C197.90834946 46.33303055 199.10185516 46.61527985 200.33152771 46.90608215 C201.4286055 47.166931 202.52568329 47.42777985 203.65600586 47.6965332 C205.10057411 48.03911919 205.10057411 48.03911919 206.57432556 48.3886261 C209 49 209 49 212 50 C213.60725635 53.21451269 213.05748185 56.43612536 213 60 C205.953949 59.35422452 198.96259799 58.48446176 191.9609375 57.46875 C190.90755692 57.31729523 189.85417633 57.16584045 188.76887512 57.00979614 C185.30375822 56.50985884 181.83929976 56.00556739 178.375 55.5 C177.16872955 55.32426453 175.96245911 55.14852905 174.71963501 54.96746826 C148.33979476 51.11530856 122.01107738 46.97045181 95.70996094 42.61444092 C93.16907369 42.1936211 90.62805119 41.77361732 88.08691406 41.35430908 C80.07109468 40.03151375 72.05791642 38.69404572 64.04751587 37.33880615 C61.5028039 36.90943316 58.95754436 36.48329108 56.41171265 36.06060791 C52.87030607 35.47123221 49.33146867 34.86827005 45.79296875 34.26171875 C44.24198486 34.00745872 44.24198486 34.00745872 42.65966797 33.74806213 C28.81351489 31.33369103 15.04280452 26.27042221 6 15 C-0.24616363 5.85686002 -0.24616363 5.85686002 -1 1 C-0.67 0.67 -0.34 0.34 0 0 Z " fill="#D3D3D3" transform="translate(141,224)"/>
<path d="M0 0 C-2.66361627 11.05469758 -9.8589057 18.82663735 -19.03125 25.28125 C-26.3743255 29.53250424 -33.34380253 31.77373279 -41.6875 33.1875 C-42.82300293 33.38835205 -43.95850586 33.5892041 -45.12841797 33.79614258 C-48.59517385 34.40270376 -52.06383102 34.99543661 -55.53399658 35.58203125 C-58.18716033 36.03172225 -60.83946562 36.48626243 -63.49169922 36.94140625 C-98.9141827 43.01025093 -134.41557688 48.5306648 -169.9453125 53.92675781 C-176.06896674 54.85715978 -182.19103805 55.7974876 -188.3125 56.7421875 C-190.62098615 57.09717255 -192.9295324 57.45176204 -195.23812866 57.80603027 C-197.23362936 58.1128723 -199.22876129 58.42210961 -201.22387695 58.73144531 C-202.36300537 58.90514648 -203.50213379 59.07884766 -204.67578125 59.2578125 C-205.62364502 59.4036377 -206.57150879 59.54946289 -207.5480957 59.69970703 C-210 60 -210 60 -214 60 C-214 57.03 -214 54.06 -214 51 C-208.29764836 48.74405388 -202.67166306 47.04937024 -196.70776367 45.64331055 C-195.81362259 45.4281781 -194.91948151 45.21304565 -193.99824524 44.99139404 C-191.05598843 44.28485086 -188.11203825 43.58566675 -185.16796875 42.88671875 C-183.09164869 42.39010002 -181.01542252 41.89308861 -178.93928528 41.39570618 C-174.5816073 40.35285423 -170.22313749 39.31340276 -165.86401367 38.27661133 C-160.35843768 36.96706723 -154.85437879 35.65128364 -149.35083389 34.33323288 C-128.07848398 29.23984909 -106.80480907 24.18251608 -85.43069458 19.53152466 C-80.06817673 18.35889257 -74.72031258 17.12354327 -69.375 15.875 C-68.2111377 15.60421631 -67.04727539 15.33343262 -65.84814453 15.05444336 C-57.33207037 13.0569979 -48.8360647 10.98279314 -40.34375 8.88671875 C-39.23705963 8.61394104 -38.13036926 8.34116333 -36.99014282 8.06011963 C-31.40891948 6.68387773 -25.82915299 5.30212206 -20.25146484 3.91162109 C-18.18591044 3.40056235 -16.12031962 2.88965077 -14.0546875 2.37890625 C-13.09872681 2.13863205 -12.14276611 1.89835785 -11.15783691 1.65080261 C-9.83036438 1.32394218 -9.83036438 1.32394218 -8.47607422 0.99047852 C-7.70496307 0.79841324 -6.93385193 0.60634796 -6.13937378 0.40846252 C-4 0 -4 0 0 0 Z " fill="#D3D3D3" transform="translate(660,224)"/>
<path d="M0 0 C0.33 0 0.66 0 1 0 C1.07347656 1.15628906 1.07347656 1.15628906 1.1484375 2.3359375 C1.22320312 3.33882812 1.29796875 4.34171875 1.375 5.375 C1.44460938 6.37273437 1.51421875 7.37046875 1.5859375 8.3984375 C1.76363964 11.15508879 1.76363964 11.15508879 4 13 C8.59272828 13.54301355 8.59272828 13.54301355 12.6796875 11.8046875 C14.40690424 9.44381728 14.49921047 7.71215884 14.6875 4.8125 C14.75324219 3.91144531 14.81898438 3.01039063 14.88671875 2.08203125 C14.92410156 1.39496094 14.96148437 0.70789063 15 0 C15.66 0.33 16.32 0.66 17 1 C17 1.66 17 2.32 17 3 C21.95 4.485 21.95 4.485 27 6 C27.74994195 16.95559374 28.26804649 27.89796633 28.5625 38.875 C28.59426834 40.0114093 28.59426834 40.0114093 28.62667847 41.17077637 C29.09292625 58.11809977 29.07183921 75.04594578 29 92 C15.14 92 1.28 92 -13 92 C-13.10825102 63.31348003 -12.71231844 34.67650064 -12 6 C-11.07767578 5.72736328 -11.07767578 5.72736328 -10.13671875 5.44921875 C-8.92435547 5.07216797 -8.92435547 5.07216797 -7.6875 4.6875 C-6.48673828 4.32205078 -6.48673828 4.32205078 -5.26171875 3.94921875 C-2.89319287 2.95517421 -1.70870567 1.87694746 0 0 Z " fill="#0658E0" transform="translate(392,225)"/>
<path d="M0 0 C7.48808157 -0.18068384 14.76209273 0.36752194 22.19921875 1.20703125 C23.9273455 1.39612312 23.9273455 1.39612312 25.69038391 1.58903503 C28.12370477 1.85636715 30.55674156 2.12629634 32.98950195 2.39868164 C36.63104975 2.80618303 40.27341059 3.20558813 43.91601562 3.60351562 C55.97674244 4.93078197 68.01750817 6.35758238 80.04516602 7.9571228 C88.41422992 9.06754071 96.79461057 10.02766283 105.1875 10.9375 C106.71674263 11.10513999 108.24595738 11.27303452 109.77514648 11.44116211 C112.93365193 11.78823511 116.09227061 12.134249 119.25097656 12.47949219 C126.26404189 13.246957 133.27553631 14.02854988 140.28713989 14.80923462 C144.010373 15.22365959 147.73370632 15.63718215 151.45703125 16.05078125 C152.89404346 16.21044478 154.33105519 16.3701127 155.76806641 16.52978516 C156.46869202 16.60763245 157.16931763 16.68547974 157.89117432 16.76568604 C161.34802246 17.14978027 164.80487061 17.53387451 168.26171875 17.91796875 C170.16618774 18.12957642 170.16618774 18.12957642 172.10913086 18.34545898 C175.52587891 18.72509766 178.94262695 19.10473633 182.359375 19.484375 C183.71240723 19.63471191 183.71240723 19.63471191 185.09277344 19.78808594 C185.7221582 19.85801758 186.35154297 19.92794922 187 20 C187 22.97 187 25.94 187 29 C164.05847981 29.067682 141.12655922 28.8882818 118.1875 28.5625 C117.37607292 28.55103691 116.56464584 28.53957382 115.72863007 28.52776337 C105.99396513 28.38996705 96.25940742 28.24584004 86.52490234 28.09720993 C81.87587797 28.02674648 77.22681669 27.96238288 72.57763672 27.90283203 C67.47741348 27.83741639 62.37757595 27.7598718 57.27774048 27.66915894 C55.54211552 27.64026679 53.80640717 27.61593397 52.07064819 27.59671021 C35.05508222 27.40141172 21.3878489 25.18124251 8.625 13.0625 C0 3.97608025 0 3.97608025 0 0 Z " fill="#7BBB29" transform="translate(168,267)"/>
<path d="M0 0 C-6.75442911 13.22742368 -16.7467286 20.78356891 -30.4571991 25.93419456 C-36.07239334 27.6234525 -41.42962862 27.74755923 -47.25976562 27.7512207 C-48.51540314 27.77145798 -49.77104065 27.79169525 -51.06472778 27.81254578 C-54.47051638 27.86273229 -57.87518288 27.89173713 -61.2811985 27.91082788 C-64.8803557 27.93615411 -68.47911524 27.98912911 -72.07800293 28.03886414 C-78.89834091 28.12896981 -85.71868073 28.19439501 -92.53937101 28.25086039 C-100.22532445 28.3157653 -107.91084122 28.40946888 -115.5964632 28.50513327 C-139.3969769 28.79934642 -163.19730424 29.06217307 -187 29 C-187 26.03 -187 23.06 -187 20 C-160.66984221 16.91801329 -134.33724851 13.89149552 -107.97097778 11.13375854 C-93.0450845 9.56972859 -78.14167177 7.85937395 -63.24285889 6.05648804 C-48.79301514 4.30905795 -34.33623454 2.71162262 -19.85107422 1.28295898 C-17.9511939 1.09440261 -16.05176809 0.9012089 -14.15283203 0.70336914 C-13.26966309 0.61176514 -12.38649414 0.52016113 -11.4765625 0.42578125 C-10.70908691 0.34497314 -9.94161133 0.26416504 -9.15087891 0.1809082 C-6.08746262 -0.07675258 -3.07232431 -0.06678966 0 0 Z " fill="#7ABA27" transform="translate(632,267)"/>
<path d="M0 0 C52.8 0 105.6 0 160 0 C160 5.28 160 10.56 160 16 C143.32645291 16.06972256 126.65296684 16.12312405 109.97930908 16.15543652 C102.23582975 16.1708447 94.49244319 16.19181709 86.74902344 16.22631836 C79.99258162 16.2564075 73.23620705 16.27561884 66.47970009 16.28226548 C62.90876555 16.28614505 59.33802323 16.29513289 55.76715088 16.31719017 C13.91723808 16.56552807 13.91723808 16.56552807 2.5 5.9375 C0 3 0 3 0 0 Z " fill="#228939" transform="translate(213,301)"/>
<path d="M0 0 C52.14 0 104.28 0 158 0 C155.32427464 6.6893134 151.87957222 9.35446629 145.5 12.1875 C135.04081491 15.98124008 123.86020439 16.29728195 112.84423828 16.22705078 C110.99774689 16.22748886 110.99774689 16.22748886 109.11395264 16.22793579 C105.78834002 16.22679394 102.46298616 16.2168722 99.13741922 16.20278788 C95.64344983 16.19015247 92.14947577 16.18910005 88.65548706 16.18673706 C82.06146783 16.18055947 75.46751615 16.16419991 68.87352645 16.14403808 C61.3570303 16.12156213 53.84053066 16.11065646 46.32400918 16.10064721 C30.8826328 16.07982967 15.44132783 16.04431705 0 16 C0 10.72 0 5.44 0 0 Z " fill="#218939" transform="translate(427,301)"/>
<path d="M0 0 C17.16 0 34.32 0 52 0 C52 11.22 52 22.44 52 34 C37.42505546 40.47775313 22.60893031 42.38332974 7 38 C1.72727273 35.72727273 1.72727273 35.72727273 0 34 C-0.08846834 31.47931819 -0.11534524 28.98545583 -0.09765625 26.46484375 C-0.09664917 25.79747192 -0.09564209 25.1301001 -0.09460449 24.44250488 C-0.08935808 21.9408192 -0.07539691 19.43915794 -0.0625 16.9375 C-0.041875 11.348125 -0.02125 5.75875 0 0 Z " fill="#0357E1" transform="translate(374,424)"/>
<path d="M0 0 C3.96 0 7.92 0 12 0 C15.96 8.91 19.92 17.82 24 27 C23.690625 24.215625 23.38125 21.43125 23.0625 18.5625 C22.375 12.375 21.6875 6.1875 21 0 C24.3 0 27.6 0 31 0 C35.2094504 29.75737265 35.2094504 29.75737265 35 44 C30.05 44 25.1 44 20 44 C18.7077776 40.93773343 17.4162025 37.87519658 16.125 34.8125 C15.76019531 33.94818359 15.39539063 33.08386719 15.01953125 32.19335938 C13.3120665 28.14201121 11.60952368 24.09157862 10 20 C10.0721875 20.72703125 10.144375 21.4540625 10.21875 22.203125 C10.89252975 29.50240567 11.08725924 36.67022405 11 44 C6.05 44 1.1 44 -4 44 C-6.28524488 38.36096072 -8.56372505 32.71925442 -10.8359375 27.07495117 C-11.61011692 25.15460301 -12.38615035 23.23500121 -13.1640625 21.31616211 C-14.28091105 18.5603668 -15.39109793 15.80196956 -16.5 13.04296875 C-17.0249707 11.75376778 -17.0249707 11.75376778 -17.56054688 10.43852234 C-17.88087891 9.63791885 -18.20121094 8.83731537 -18.53125 8.01245117 C-18.81548828 7.3085173 -19.09972656 6.60458344 -19.39257812 5.87931824 C-20 4 -20 4 -20 1 C-16.37 1 -12.74 1 -9 1 C-5.31576987 9.55995596 -2.05856432 18.2017469 1 27 C1.1723784 17.95971078 0.6331684 9.01134307 0 0 Z " fill="#0D57D8" transform="translate(496,323)"/>
<path d="M0 0 C6.68487013 2.88838906 10.20849299 8.50812323 13 15 C14.8378203 19.63646596 15.29741948 23.58090275 15.3125 28.5625 C15.32925781 29.84253906 15.34601563 31.12257813 15.36328125 32.44140625 C14.84952634 37.47399464 13.15824523 39.92862317 9.5 43.3125 C4.57259578 45.68821275 0.37530364 45.88444712 -5 45 C-10.8106947 42.64091596 -15.02896252 38.83115078 -17.90234375 33.24609375 C-21.00275955 25.71651251 -21.64725915 15.36415158 -19.23828125 7.51953125 C-14.87308959 -0.57246436 -8.46520227 -1.30401062 0 0 Z " fill="#0959DE" transform="translate(465,323)"/>
<path d="M0 0 C1.47906892 -0.02689216 2.95827483 -0.04634621 4.4375 -0.0625 C5.26121094 -0.07410156 6.08492188 -0.08570313 6.93359375 -0.09765625 C9 0 9 0 10 1 C10.30325312 3.57869854 10.54819353 6.13955409 10.75390625 8.7265625 C10.85166603 9.89812393 10.85166603 9.89812393 10.95140076 11.09335327 C11.08883648 12.75264911 11.22402797 14.41213208 11.35717773 16.07177734 C11.5600006 18.59391942 11.77061622 21.11531695 11.98242188 23.63671875 C12.11505273 25.24996148 12.2472283 26.86324171 12.37890625 28.4765625 C12.44139053 29.2247525 12.50387482 29.9729425 12.56825256 30.74380493 C12.91981459 35.17889991 13.05820332 39.55092371 13 44 C9.1727322 44.62288264 5.80765948 44.82327773 2 44 C-1.16341614 41.14578995 -2.98034897 37.71776558 -5 34 C-6.14172551 32.12249583 -7.28734198 30.24735027 -8.4375 28.375 C-9.7059375 26.209375 -9.7059375 26.209375 -11 24 C-11 30.93 -11 37.86 -11 45 C-14.63 45 -18.26 45 -22 45 C-22 30.48 -22 15.96 -22 1 C-18.37 1 -14.74 1 -11 1 C-8.22443079 4.14375696 -6.69363508 6.30844656 -4.875 9.9375 C-4.40835937 10.78763672 -3.94171875 11.63777344 -3.4609375 12.51367188 C-2.60409714 14.07665828 -1.76469744 15.64942275 -0.94873047 17.23413086 C-0.12469035 18.97138983 -0.12469035 18.97138983 1 20 C1.16213913 15.49161525 1.16213913 15.49161525 0.5 11.0625 C-0.06693284 8.72390203 -0.09783433 6.65273419 -0.0625 4.25 C-0.05347656 3.45078125 -0.04445313 2.6515625 -0.03515625 1.828125 C-0.02355469 1.22484375 -0.01195312 0.6215625 0 0 Z " fill="#3275CB" transform="translate(429,323)"/>
<path d="M0 0 C3.60940238 -0.91605223 6.40204487 -1.03208275 10 0 C13.86777498 3.10538313 16.79834926 7.24783244 19.69482422 11.23901367 C21.40056673 13.54045787 23.21046915 15.76308644 25 18 C23.68 12.06 22.36 6.12 21 0 C23.64 0 26.28 0 29 0 C29.67226564 2.01679691 30.34430941 4.0336679 31.015625 6.05078125 C31.7313219 8.19503188 32.45054134 10.33810777 33.171875 12.48046875 C35.26095555 18.70257594 37.3279173 24.93113823 39.3125 31.1875 C39.80169922 32.72470703 39.80169922 32.72470703 40.30078125 34.29296875 C41 37 41 37 41 41 C37.45674345 41.74634553 34.53461142 41.85468063 31 41 C27.04975737 37.8244307 24.08913401 33.99681787 21 30 C20.2059375 29.02417969 19.411875 28.04835938 18.59375 27.04296875 C16.70205541 24.71498544 14.83976192 22.3690789 13 20 C13.3609375 21.26457031 13.721875 22.52914063 14.09375 23.83203125 C14.56270439 25.49212978 15.03144318 27.15228922 15.5 28.8125 C15.73847656 29.64587891 15.97695313 30.47925781 16.22265625 31.33789062 C16.44824219 32.14033203 16.67382812 32.94277344 16.90625 33.76953125 C17.11572266 34.50792236 17.32519531 35.24631348 17.54101562 36.00708008 C18 38 18 38 18 41 C14.7 41 11.4 41 8 41 C5.75116679 32.32763789 3.63721975 23.63378895 1.75 14.875 C1.57500977 14.08246826 1.40001953 13.28993652 1.21972656 12.47338867 C0.32352417 8.23806599 -0.19491585 4.35776158 0 0 Z " fill="#0C54D4" transform="translate(478,376)"/>
<path d="M0 0 C3.06303578 -0.08115993 6.12390815 -0.14057409 9.1875 -0.1875 C10.48397461 -0.22520508 10.48397461 -0.22520508 11.80664062 -0.26367188 C16.69054544 -0.31980871 20.07963204 -0.26570457 24 3 C26.82816059 7.24224088 26.67205835 11.0130216 26 16 C25.03125 17.89453125 25.03125 17.89453125 23.875 19.5625 C21.59005111 23.75157297 21.95460086 25.36689286 23.21484375 29.7890625 C24.33081893 32.93155978 25.65713112 35.94802528 27 39 C27 39.99 27 40.98 27 42 C22.71 42 18.42 42 14 42 C11 29.375 11 29.375 11 26 C10.34 26 9.68 26 9 26 C8.67 31.28 8.34 36.56 8 42 C4.04 42 0.08 42 -4 42 C-3.85834107 39.60385425 -3.71181159 37.20817103 -3.5625 34.8125 C-3.52318359 34.13896484 -3.48386719 33.46542969 -3.44335938 32.77148438 C-3.26808852 30.00759777 -3.06325827 27.31273468 -2.51367188 24.59570312 C-1.99135548 21.95631726 -1.69988912 19.37873595 -1.46484375 16.69921875 C-1.37783203 15.72275391 -1.29082031 14.74628906 -1.20117188 13.74023438 C-1.11416016 12.73283203 -1.02714844 11.72542969 -0.9375 10.6875 C-0.84662109 9.66076172 -0.75574219 8.63402344 -0.66210938 7.57617188 C-0.43895346 5.05098649 -0.21833289 2.5256062 0 0 Z " fill="#0D56D7" transform="translate(359,375)"/>
<path d="M0 0 C3.3 0 6.6 0 10 0 C9.06000153 3.75999388 7.95258526 5.44633275 5.70996094 8.46655273 C3.13610113 12.12739572 0.72627267 15.57093938 1.24804688 20.20117188 C2.96498332 26.21827741 6.02226054 31.61540638 9.16210938 36.98876953 C12 41.849599 12 41.849599 12 44 C7.05 44 2.1 44 -3 44 C-4.98 38.39 -6.96 32.78 -9 27 C-9.33 32.61 -9.66 38.22 -10 44 C-14.29 44 -18.58 44 -23 44 C-23.21738241 34.88805382 -22.37018212 25.93112351 -21.5 16.875 C-21.35504592 15.3307688 -21.21051141 13.78649815 -21.06640625 12.2421875 C-20.7157706 8.49431961 -20.35947018 4.74703043 -20 1 C-16.37 1 -12.74 1 -9 1 C-8.67 5.62 -8.34 10.24 -8 15 C-5.36 10.05 -2.72 5.1 0 0 Z " fill="#3170CA" transform="translate(393,323)"/>
<path d="M0 0 C3.96 0 7.92 0 12 0 C11.06558764 4.82779721 10.09367587 9.63684443 8.9765625 14.42578125 C8.79577148 15.20904785 8.61498047 15.99231445 8.42871094 16.79931641 C8.06587021 18.364267 7.6969458 19.92782235 7.32128906 21.48974609 C6.25481626 26.11549626 5.81137145 30.2528482 6 35 C8.42919865 35.13440778 8.42919865 35.13440778 11 34 C13.98586377 27.46987715 15.25381511 20.64174241 16.625 13.625 C17.05226501 11.47087226 17.48183419 9.31719984 17.9140625 7.1640625 C18.0992041 6.21998535 18.2843457 5.2759082 18.47509766 4.30322266 C19 2 19 2 20 0 C22.97 0 25.94 0 29 0 C28.38976693 7.40416126 27.21776515 14.49723011 25.625 21.75 C25.41617188 22.75160156 25.20734375 23.75320313 24.9921875 24.78515625 C23.33463905 32.4159433 21.79860678 38.46759548 15 43 C11.22776372 44.79599646 8.16851949 45.29654903 4 45.3125 C2.989375 45.32925781 1.97875 45.34601563 0.9375 45.36328125 C-2.47163409 44.94167291 -4.28579498 44.08748754 -7 42 C-9.5022626 38.33199488 -9.13699236 35.49497407 -8.61328125 31.2421875 C-7.25076608 24.03908183 -5.08286476 17.02204129 -3 10 C-2.67128906 8.88367188 -2.34257812 7.76734375 -2.00390625 6.6171875 C-1.34628936 4.40834992 -0.67526783 2.20350556 0 0 Z " fill="#2A3A94" transform="translate(308,323)"/>
<path d="M0 0 C4.62 0 9.24 0 14 0 C16.26691652 5.03247088 18.52704758 10.06791315 20.78100586 15.10620117 C21.54836291 16.81894469 22.31755193 18.53086868 23.08862305 20.24194336 C24.19805412 22.70472298 25.30081499 25.17039638 26.40234375 27.63671875 C26.74716293 28.39836838 27.09198212 29.16001801 27.44725037 29.94474792 C27.76750687 30.66511734 28.08776337 31.38548676 28.41772461 32.12768555 C28.69974228 32.75611862 28.98175995 33.3845517 29.27232361 34.0320282 C30 36 30 36 31 41 C27.04 41 23.08 41 19 41 C17.515 36.05 17.515 36.05 16 31 C12.7 31 9.4 31 6 31 C6 34.3 6 37.6 6 41 C2.37 41 -1.26 41 -5 41 C-4.32753872 31.85452665 -3.22839792 22.82733876 -1.9375 13.75 C-1.74904385 12.40759488 -1.56089115 11.06514713 -1.37304688 9.72265625 C-0.9183317 6.4813532 -0.45958604 3.240616 0 0 Z " fill="#2D3D98" transform="translate(453,376)"/>
<path d="M0 0 C3.63 0 7.26 0 11 0 C9.75151786 6.86665175 7.59860085 13.20223438 5.12060547 19.70678711 C3.34501918 24.50442347 2.46458808 28.90100239 2 34 C4.43530507 33.65060634 4.43530507 33.65060634 7 32 C10.77107051 25.56176763 12.85576777 17.96501498 15.25 10.9375 C15.61351562 9.88111328 15.97703125 8.82472656 16.3515625 7.73632812 C17.23796611 5.15875972 18.12069557 2.57999696 19 0 C21.97 0 24.94 0 28 0 C26.08994578 8.12039811 24.07633858 16.18690175 21.5 24.125 C21.1184375 25.30320312 20.736875 26.48140625 20.34375 27.6953125 C18.1524582 33.08436152 15.20093211 38.4651502 9.80859375 41.05078125 C4.64334603 42.79647693 -0.62733041 42.66040497 -6 42 C-9.3125 39.9375 -9.3125 39.9375 -11 37 C-11.42250738 31.66503804 -10.47308906 27.72988353 -8.59375 22.75390625 C-8.34959351 22.09792953 -8.10543701 21.44195282 -7.85388184 20.76609802 C-7.07988832 18.6940516 -6.2902853 16.62838003 -5.5 14.5625 C-4.9690045 13.14948177 -4.43904624 11.73607329 -3.91015625 10.32226562 C-2.61872809 6.87691832 -1.31324239 3.43710079 0 0 Z " fill="#293A97" transform="translate(271,375)"/>
<path d="M0 0 C1.32 0.66 2.64 1.32 4 2 C4 4.97 4 7.94 4 11 C2.68 10.67 1.36 10.34 0 10 C-2.82067453 9.66974828 -5.11381358 9.77093759 -8 10 C-10.70684768 12.42513955 -10.99213925 13.92282941 -11.36328125 17.56640625 C-11.34652344 18.88511719 -11.32976562 20.20382812 -11.3125 21.5625 C-11.31572266 22.23474609 -11.31894531 22.90699219 -11.32226562 23.59960938 C-11.28217649 27.26958778 -11.08504922 28.87242617 -9 32 C-7.68 32.33 -6.36 32.66 -5 33 C-5 29.04 -5 25.08 -5 21 C-1.37 21 2.26 21 6 21 C6.96205088 27.37358711 7.10655578 33.55929529 7 40 C3.24629436 42.4311565 -0.54811142 42.36706075 -4.875 42.375 C-5.56980469 42.39949219 -6.26460938 42.42398438 -6.98046875 42.44921875 C-12.16309319 42.47849911 -15.00825831 41.2288755 -19 38 C-24.62126301 31.9229589 -24.51690472 25.88184061 -24.34375 17.84765625 C-23.72942406 10.97139426 -21.20647774 6.31680162 -16.5 1.375 C-11.11734326 -0.73961515 -5.71265258 -0.63473918 0 0 Z " fill="#293996" transform="translate(421,375)"/>
<path d="M0 0 C2.56314499 -0.08132187 5.12368418 -0.14064175 7.6875 -0.1875 C8.40873047 -0.21263672 9.12996094 -0.23777344 9.87304688 -0.26367188 C14.48829346 -0.32689443 17.32151677 0.18142194 21 3 C23.33944729 5.33944729 23.31880066 5.87599739 23.375 9.0625 C23.24814599 14.30579919 21.76763756 18.55932109 19 23 C15.13244285 26.68338776 12.65161694 28.13788024 7.375 28.0625 C6.14910156 28.04896484 6.14910156 28.04896484 4.8984375 28.03515625 C4.27195312 28.02355469 3.64546875 28.01195312 3 28 C2.95101563 28.59167969 2.90203125 29.18335938 2.8515625 29.79296875 C2.77679688 30.58316406 2.70203125 31.37335938 2.625 32.1875 C2.55539062 32.96480469 2.48578125 33.74210937 2.4140625 34.54296875 C2 37 2 37 0 42 C-3.96 42 -7.92 42 -12 42 C-10.17204554 34.38352308 -8.14532175 26.84500724 -6 19.3125 C-5.7510498 18.43440674 -5.50209961 17.55631348 -5.24560547 16.65161133 C-3.6396136 11.04957094 -1.89030797 5.51256034 0 0 Z " fill="#0F57D6" transform="translate(305,375)"/>
<path d="M0 0 C-0.33 3.63 -0.66 7.26 -1 11 C-1.99 10.67 -2.98 10.34 -4 10 C-8.06083007 9.5210106 -8.06083007 9.5210106 -12 10 C-16.15582045 14.68861794 -17.14153261 18.96722457 -17.1875 25.0625 C-17.20876953 26.34833984 -17.20876953 26.34833984 -17.23046875 27.66015625 C-17.15846085 30.27198309 -17.15846085 30.27198309 -15 33 C-12.89689618 33.40197129 -12.89689618 33.40197129 -10.5625 33.25 C-9.38880859 33.22679687 -9.38880859 33.22679687 -8.19140625 33.203125 C-5.82318041 33.0673481 -5.82318041 33.0673481 -3 32 C-3.06000106 33.6260287 -3.1487885 35.25101549 -3.25 36.875 C-3.31960938 38.23238281 -3.31960938 38.23238281 -3.390625 39.6171875 C-4 42 -4 42 -5.65234375 43.296875 C-11.67088949 45.09943446 -19.44622102 45.29343031 -25.125 42.375 C-29.1433811 39.05546779 -30.75294366 35.87851846 -31.43359375 30.703125 C-31.44616247 19.59238028 -29.50971439 11.76012342 -21.70703125 3.62890625 C-15.40165474 -2.38789467 -8.18957157 -2.04739289 0 0 Z " fill="#095ADF" transform="translate(368,324)"/>
<path d="M0 0 C7.26 0 14.52 0 22 0 C21 8 21 8 20 9 C18.14712498 9.07226502 16.29166122 9.0838122 14.4375 9.0625 C13.42558594 9.05347656 12.41367187 9.04445313 11.37109375 9.03515625 C10.19740234 9.01775391 10.19740234 9.01775391 9 9 C9 11.31 9 13.62 9 16 C12.3 16 15.6 16 19 16 C18.67 18.64 18.34 21.28 18 24 C14.37 24 10.74 24 7 24 C6.67 26.97 6.34 29.94 6 33 C9.96 33 13.92 33 18 33 C17.67 35.97 17.34 38.94 17 42 C8.75 42 0.5 42 -8 42 C-7.34 38.37 -6.68 34.74 -6 31 C-5.02091619 25.34208507 -5.02091619 25.34208507 -4.05664062 19.68164062 C-3.11134709 14.22269417 -3.11134709 14.22269417 -2 12 C-1.79777644 10.33727297 -1.63588613 8.66945815 -1.5 7 C-1.11111111 2.22222222 -1.11111111 2.22222222 0 0 Z " fill="#1159D7" transform="translate(333,375)"/>
<path d="M0 0 C1.1446875 0.02835937 2.289375 0.05671875 3.46875 0.0859375 C5.18578125 0.10527344 5.18578125 0.10527344 6.9375 0.125 C9.96875 0.4609375 9.96875 0.4609375 12.96875 2.4609375 C14.21875 4.8984375 14.21875 4.8984375 14.96875 7.4609375 C14.63875 8.4509375 14.30875 9.4409375 13.96875 10.4609375 C13.30875 10.1309375 12.64875 9.8009375 11.96875 9.4609375 C9.96914988 9.4209455 7.96827758 9.41746951 5.96875 9.4609375 C7.45103496 13.93804309 10.92972053 15.48299552 14.78125 17.7109375 C20.24229723 21.06024137 24.92782938 24.06101358 26.96875 30.4609375 C27.49446144 33.44354526 27.38653388 35.37978139 26.96875 38.4609375 C25.42536909 40.63570151 24.33209727 41.27926387 21.96875 42.4609375 C20.20104673 42.58333885 18.42814538 42.63644903 16.65625 42.6484375 C15.23892578 42.66970703 15.23892578 42.66970703 13.79296875 42.69140625 C10.7781613 42.44538462 8.65578388 41.8374531 5.96875 40.4609375 C4.39936972 37.54637412 3.96875 35.78152081 3.96875 32.4609375 C7.26875 32.7909375 10.56875 33.1209375 13.96875 33.4609375 C13.95683987 31.08649387 13.95683987 31.08649387 12.96875 28.4609375 C10.85539445 26.90465893 8.94644679 25.6843651 6.65625 24.4609375 C0.4025049 20.98741279 -3.96674898 17.51464931 -6.03125 10.4609375 C-6.36303625 7.20943221 -6.4230229 5.22111439 -4.91796875 2.30078125 C-3.03125 0.4609375 -3.03125 0.4609375 0 0 Z " fill="#0F57D7" transform="translate(545.03125,374.5390625)"/>
<path d="M0 0 C-0.56054661 3.36327963 -1.41841038 5.99112219 -3 9 C-3.63808594 8.91621094 -4.27617187 8.83242188 -4.93359375 8.74609375 C-5.75988281 8.64425781 -6.58617187 8.54242188 -7.4375 8.4375 C-8.26121094 8.33308594 -9.08492188 8.22867187 -9.93359375 8.12109375 C-10.95646484 8.06115234 -10.95646484 8.06115234 -12 8 C-13.22173484 9.0292466 -13.22173484 9.0292466 -13.375 11.1875 C-13.23958976 14.2750023 -13.23958976 14.2750023 -10.4375 16.75 C-8.71592319 18.64764717 -8.04601487 19.60024585 -7.75 22.171875 C-8.27133044 28.64506125 -10.64656154 32.82759527 -15.4375 37.25 C-20.19434437 40.49857665 -23.9410031 41.25957693 -29.6875 41.1875 C-31.39486328 41.17783203 -31.39486328 41.17783203 -33.13671875 41.16796875 C-36 41 -36 41 -38 40 C-36.80100302 36.9168649 -35.52299523 33.93720508 -34 31 C-33.01 31.33 -32.02 31.66 -31 32 C-29.43881572 32.06740865 -27.8749748 32.08514456 -26.3125 32.0625 C-25.50425781 32.05347656 -24.69601563 32.04445313 -23.86328125 32.03515625 C-23.24839844 32.02355469 -22.63351563 32.01195312 -22 32 C-21.63839014 29.03479917 -21.43818069 26.83699612 -23.1484375 24.2890625 C-23.61507812 23.71929687 -24.08171875 23.14953125 -24.5625 22.5625 C-26.62770187 19.86593641 -26.98944649 19.18996324 -27.1875 15.625 C-25.22079459 9.62137297 -22.11508825 4.02270115 -16.75 0.4375 C-11.55902002 -2.11164196 -5.37320905 -1.79106968 0 0 Z " fill="#0C55D6" transform="translate(266,376)"/>
<path d="M0 0 C1.51400391 0.01740234 1.51400391 0.01740234 3.05859375 0.03515625 C4.07050781 0.04417969 5.08242188 0.05320312 6.125 0.0625 C7.29869141 0.07990234 7.29869141 0.07990234 8.49609375 0.09765625 C6.93477393 7.78099328 4.713481 15.18189871 2.37109375 22.66015625 C1.81228516 24.45936523 1.81228516 24.45936523 1.2421875 26.29492188 C0.33003449 29.2301835 -0.58540153 32.16437728 -1.50390625 35.09765625 C2.12609375 35.09765625 5.75609375 35.09765625 9.49609375 35.09765625 C8.50609375 38.06765625 7.51609375 41.03765625 6.49609375 44.09765625 C-1.42390625 44.09765625 -9.34390625 44.09765625 -17.50390625 44.09765625 C-16.37874123 37.34666615 -16.37874123 37.34666615 -15.21289062 34.03588867 C-14.95592407 33.29880173 -14.69895752 32.56171478 -14.4342041 31.80229187 C-14.15814331 31.0270668 -13.88208252 30.25184174 -13.59765625 29.453125 C-13.31289429 28.6427327 -13.02813232 27.83234039 -12.73474121 26.99739075 C-12.13524863 25.29471149 -11.53335737 23.59287508 -10.92919922 21.8918457 C-10.00146791 19.27828709 -9.08220933 16.66186094 -8.1640625 14.04492188 C-7.57992243 12.38914808 -6.99530396 10.73354297 -6.41015625 9.078125 C-6.13409546 8.29277878 -5.85803467 7.50743256 -5.5736084 6.69828796 C-3.2323076 0.12606504 -3.2323076 0.12606504 0 0 Z " fill="#0E58D8" transform="translate(286.50390625,322.90234375)"/>
<path d="M0 0 C8.25 0 16.5 0 25 0 C27 6 27 6 27 9 C25.02 9.33 23.04 9.66 21 10 C21.33322266 10.89831543 21.66644531 11.79663086 22.00976562 12.72216797 C23.24301143 16.04941642 24.47200485 19.37822201 25.69970703 22.70751953 C26.23207236 24.14935584 26.76559627 25.59076492 27.30029297 27.03173828 C28.06781766 29.1007798 28.8311884 31.17131251 29.59375 33.2421875 C29.95466736 34.21102371 29.95466736 34.21102371 30.32287598 35.19943237 C32 39.77225659 32 39.77225659 32 42 C28.04 42 24.08 42 20 42 C18.57007953 37.78439669 17.14608199 33.56685358 15.72753906 29.34741211 C15.24413754 27.91229357 14.75912183 26.47771771 14.27246094 25.04370117 C13.57321879 22.98236386 12.87980523 20.91914458 12.1875 18.85546875 C11.76855469 17.61434326 11.34960938 16.37321777 10.91796875 15.09448242 C10 12 10 12 10 9 C7.36 9 4.72 9 2 9 C1.34 6.03 0.68 3.06 0 0 Z " fill="#0E59DA" transform="translate(510,375)"/>
<path d="M0 0 C3.63 0 7.26 0 11 0 C15.10333571 9.5342212 18.61804879 19.19117931 22 29 C22.26554687 28.35546875 22.53109375 27.7109375 22.8046875 27.046875 C23.19914062 26.37140625 23.59359375 25.6959375 24 25 C27.125 24.25 27.125 24.25 30 24 C31.1569412 30.3631766 31.07262865 36.53604993 31 43 C26.05 43 21.1 43 16 43 C13.71475512 37.36096072 11.43627495 31.71925442 9.1640625 26.07495117 C8.38988308 24.15460301 7.61384965 22.23500121 6.8359375 20.31616211 C5.71908895 17.5603668 4.60890207 14.80196956 3.5 12.04296875 C2.9750293 10.75376778 2.9750293 10.75376778 2.43945312 9.43852234 C2.11912109 8.63791885 1.79878906 7.83731537 1.46875 7.01245117 C1.18451172 6.3085173 0.90027344 5.60458344 0.60742188 4.87931824 C0 3 0 3 0 0 Z " fill="#2A4BA5" transform="translate(476,324)"/>
<path d="M0 0 C3.63 0 7.26 0 11 0 C12.09047341 8.5149732 13.14498448 17.0340528 14.125 25.5625 C14.21249512 26.29903809 14.29999023 27.03557617 14.39013672 27.79443359 C14.89130622 32.22832149 15.08209092 36.5377723 15 41 C10.71 41 6.42 41 2 41 C1.34 27.47 0.68 13.94 0 0 Z " fill="#0C55D6" transform="translate(431,376)"/>
<path d="M0 0 C4.62 0 9.24 0 14 0 C15.50437846 3.45648861 17.00367422 6.91502747 18.5 10.375 C18.92925781 11.35984375 19.35851562 12.3446875 19.80078125 13.359375 C20.40986328 14.77089844 20.40986328 14.77089844 21.03125 16.2109375 C21.40830078 17.08024902 21.78535156 17.94956055 22.17382812 18.84521484 C23 21 23 21 23 23 C14.75 23 6.5 23 -2 23 C-2 14.71283949 -1.36830175 8.03877275 0 0 Z " fill="#0D55D5" transform="translate(453,376)"/>
<path d="M0 0 C1.84318331 3.68636662 1.35675217 7.96742635 1 12 C-0.62223159 15.73113266 -2.94467186 18.32658788 -6 21 C-10.62892839 22.54297613 -15.17153758 22.64654625 -20 22 C-22.58331026 20.59538643 -23.97405581 19.19020993 -26 17 C-24.47149403 10.73312553 -21.35663353 6.15152638 -15.921875 2.66796875 C-10.47119949 -0.02878155 -6.02912294 -0.38280146 0 0 Z " fill="#DE0716" transform="translate(414,272)"/>
<path d="M0 0 C3.60374463 -0.14500644 7.20674242 -0.23396763 10.8125 -0.3125 C11.83666016 -0.35439453 12.86082031 -0.39628906 13.91601562 -0.43945312 C16.69087163 -0.48494257 19.26370944 -0.46673971 22 0 C24.0625 2.19921875 24.0625 2.19921875 25 5 C25.38542969 5.84820312 25.77085937 6.69640625 26.16796875 7.5703125 C26.50441406 8.41335938 26.84085937 9.25640625 27.1875 10.125 C27.53167969 10.97320312 27.87585938 11.82140625 28.23046875 12.6953125 C29 15 29 15 29 18 C24.71 18 20.42 18 16 18 C13 5.375 13 5.375 13 2 C12.34 2 11.68 2 11 2 C10.67 7.28 10.34 12.56 10 18 C6.04 18 2.08 18 -2 18 C-1.8590651 15.56212615 -1.71245458 13.12482147 -1.5625 10.6875 C-1.52318359 9.99720703 -1.48386719 9.30691406 -1.44335938 8.59570312 C-1.25072585 5.52838465 -0.97677283 2.93031848 0 0 Z " fill="#32419A" transform="translate(357,399)"/>
<path d="M0 0 C1.32 0.66 2.64 1.32 4 2 C4 4.97 4 7.94 4 11 C2.68 10.67 1.36 10.34 0 10 C-2.82067453 9.66974828 -5.11381358 9.77093759 -8 10 C-11.21546091 13.07533761 -11.45256624 15.92721888 -11.6875 20.25 C-11.75324219 21.32765625 -11.81898438 22.4053125 -11.88671875 23.515625 C-11.92410156 24.33546875 -11.96148437 25.1553125 -12 26 C-12.33 25.34 -12.66 24.68 -13 24 C-16.63 24 -20.26 24 -24 24 C-24.56932371 16.02946811 -23.5464758 10.66168112 -19 4 C-13.88987414 -1.36563215 -6.95799492 -0.77311055 0 0 Z " fill="#0E58D9" transform="translate(421,375)"/>
<path d="M0 0 C0.33 0 0.66 0 1 0 C1.57083403 12.07208257 1.57083403 12.07208257 -2 16 C-6.46262975 20.12793252 -10.3815719 20.67653536 -16.24609375 20.453125 C-21.89684892 19.52335535 -25.52899626 16.50872178 -29.4375 12.5 C-31 10 -31 10 -32 5 C-26.555 4.505 -26.555 4.505 -21 4 C-20.4225 4.99 -19.845 5.98 -19.25 7 C-18.5075 7.99 -17.765 8.98 -17 10 C-15.68 10 -14.36 10 -13 10 C-12.34 7.69 -11.68 5.38 -11 3 C-10.67 3.66 -10.34 4.32 -10 5 C-6.7 5 -3.4 5 0 5 C0 3.35 0 1.7 0 0 Z " fill="#293F9B" transform="translate(479,348)"/>
<path d="M0 0 C3.96 0 7.92 0 12 0 C11.35388955 3.33823731 10.68145682 6.66885635 10 10 C9.8551416 10.73395996 9.7102832 11.46791992 9.56103516 12.22412109 C9.07480015 14.67313962 8.5699023 17.11778741 8.0625 19.5625 C7.90491211 20.37251465 7.74732422 21.1825293 7.58496094 22.01708984 C7.15722011 24.03535795 6.5891707 26.02281861 6 28 C3.11788698 28.96070434 1.30149956 29.10581883 -1.6875 29.0625 C-2.89986328 29.04896484 -2.89986328 29.04896484 -4.13671875 29.03515625 C-4.75160156 29.02355469 -5.36648438 29.01195312 -6 29 C-6 29.66 -6 30.32 -6 31 C-6.66 31 -7.32 31 -8 31 C-6.69141249 23.82519603 -4.92840997 16.8703488 -2.875 9.875 C-2.59785156 8.91851562 -2.32070313 7.96203125 -2.03515625 6.9765625 C-1.36044528 4.64997293 -0.68075115 2.32482941 0 0 Z " fill="#0E5BDC" transform="translate(308,323)"/>
<path d="M0 0 C3.63 0 7.26 0 11 0 C10.67 2.97 10.34 5.94 10 9 C13.96 9 17.92 9 22 9 C21.67 11.97 21.34 14.94 21 18 C12.75 18 4.5 18 -4 18 C-1.75 5.625 -1.75 5.625 0 0 Z " fill="#2F3E97" transform="translate(329,399)"/>
<path d="M0 0 C6.00738007 2.11070111 6.00738007 2.11070111 8 5 C9.38151403 10.64118231 9.2494786 16.34291185 8 22 C6.375 24.625 6.375 24.625 4 26 C-1.9301968 26.72826978 -1.9301968 26.72826978 -4.6640625 24.8671875 C-6.57831244 22.19171536 -6.59071222 19.94665261 -6.8125 16.6875 C-6.90144531 15.57761719 -6.99039062 14.46773437 -7.08203125 13.32421875 C-6.9944757 9.77613418 -6.40035455 7.25198614 -5 4 C-2.375 1.625 -2.375 1.625 0 0 Z " fill="#F1F5FD" transform="translate(399,213)"/>
<path d="M0 0 C2.97 0 5.94 0 9 0 C8.39175634 6.90791019 7.46598765 13.63531454 6.125 20.4375 C5.96386719 21.32115234 5.80273438 22.20480469 5.63671875 23.11523438 C5.47042969 23.96279297 5.30414063 24.81035156 5.1328125 25.68359375 C4.98730957 26.44212646 4.84180664 27.20065918 4.69189453 27.98217773 C3.86706624 30.38768438 3.03245162 31.47909953 1 33 C-2.6875 33.1875 -2.6875 33.1875 -6 33 C-7.10099115 29.66426183 -6.87551063 27.43958974 -6.07421875 24.04296875 C-5.85443359 23.09486328 -5.63464844 22.14675781 -5.40820312 21.16992188 C-5.17037109 20.18572266 -4.93253906 19.20152344 -4.6875 18.1875 C-4.46126953 17.21490234 -4.23503906 16.24230469 -4.00195312 15.24023438 C-2.798411 10.1173764 -1.49853772 5.04437346 0 0 Z " fill="#115EDF" transform="translate(328,323)"/>
<path d="M0 0 C3.63 0 7.26 0 11 0 C11.33 4.95 11.66 9.9 12 15 C12.99 14.01 13.98 13.02 15 12 C18.6875 11.8125 18.6875 11.8125 22 12 C21.01 14.97 20.02 17.94 19 21 C12.73 21 6.46 21 0 21 C-0.93825328 16.30873358 -0.92759102 12.38332585 -0.5625 7.6875 C-0.51029297 6.94693359 -0.45808594 6.20636719 -0.40429688 5.44335938 C-0.27549848 3.62847291 -0.13856738 1.81416675 0 0 Z " fill="#2984D5" transform="translate(373,324)"/>
<path d="M0 0 C0.66 0.66 1.32 1.32 2 2 C4.44012949 2.24287489 4.44012949 2.24287489 7.125 2.125 C8.03507812 2.10695313 8.94515625 2.08890625 9.8828125 2.0703125 C10.58148438 2.04710937 11.28015625 2.02390625 12 2 C12.33 1.34 12.66 0.68 13 0 C13.309375 0.825 13.61875 1.65 13.9375 2.5 C15.69379636 5.18064245 15.69379636 5.18064245 18.09765625 5.3671875 C21.69547556 5.37888773 24.56783141 5.1440562 28 4 C27.93999894 5.6260287 27.8512115 7.25101549 27.75 8.875 C27.68039062 10.23238281 27.68039062 10.23238281 27.609375 11.6171875 C27 14 27 14 25.34765625 15.296875 C19.32911051 17.09943446 11.55377898 17.29343031 5.875 14.375 C2.66736398 11.72521372 1.33553691 9.92804973 0 6 C-0.1875 2.625 -0.1875 2.625 0 0 Z " fill="#2D3E98" transform="translate(337,352)"/>
<path d="M0 0 C4.95 0 9.9 0 15 0 C13.90399749 6.57601507 12.41081242 9.77463469 7.5625 14.25 C2.80565563 17.49857665 -0.9410031 18.25957693 -6.6875 18.1875 C-8.39486328 18.17783203 -8.39486328 18.17783203 -10.13671875 18.16796875 C-13 18 -13 18 -15 17 C-13.80100302 13.9168649 -12.52299523 10.93720508 -11 8 C-10.01 8.33 -9.02 8.66 -8 9 C-6.43881572 9.06740865 -4.8749748 9.08514456 -3.3125 9.0625 C-2.50425781 9.05347656 -1.69601563 9.04445313 -0.86328125 9.03515625 C-0.24839844 9.02355469 0.36648437 9.01195312 1 9 C1.07427838 5.65747276 1.06546953 3.1964086 0 0 Z " fill="#2C3B96" transform="translate(243,399)"/>
<path d="M0 0 C4.71411979 -0.34032416 9.29435051 -0.51077489 14 0 C17.05769698 2.65886694 17.71452693 4.12856545 18.31640625 8.07421875 C18.49293894 11.15499896 18.43903654 13.38135761 16.625 15.9375 C13.49084687 17.98675397 11.41966526 18.16224854 7.6875 18.1875 C6.27017578 18.20876953 6.27017578 18.20876953 4.82421875 18.23046875 C1.8094113 17.98444712 -0.31296612 17.3765156 -3 16 C-4.56938028 13.08543662 -5 11.32058331 -5 8 C-1.7 8.33 1.6 8.66 5 9 C4.5139707 4.62573634 3.1638148 2.96133065 0 0 Z " fill="#293995" transform="translate(554,399)"/>
<path d="M0 0 C6.27 0 12.54 0 19 0 C24 13.33333333 24 13.33333333 24 18 C20.451665 18.74741525 17.53634554 18.87447675 14 18 C10.09531868 14.7719822 7.08007844 11.00410197 4 7 C3.24460937 6.09636719 2.48921875 5.19273437 1.7109375 4.26171875 C0 2 0 2 0 0 Z " fill="#2A3B98" transform="translate(495,399)"/>
<path d="M0 0 C3.63 0 7.26 0 11 0 C7.25531915 19.74468085 7.25531915 19.74468085 3 24 C1.31391034 24.07205511 -0.37500659 24.08386068 -2.0625 24.0625 C-2.98160156 24.05347656 -3.90070313 24.04445313 -4.84765625 24.03515625 C-5.55792969 24.02355469 -6.26820313 24.01195312 -7 24 C-8 22 -8 22 -7.37915039 19.75341797 C-7.03875732 18.84221191 -6.69836426 17.93100586 -6.34765625 16.9921875 C-5.80141602 15.51298828 -5.80141602 15.51298828 -5.24414062 14.00390625 C-4.85419922 12.97136719 -4.46425781 11.93882812 -4.0625 10.875 C-3.48338867 9.31458984 -3.48338867 9.31458984 -2.89257812 7.72265625 C-1.9351629 5.14590911 -0.96844214 2.57262309 0 0 Z " fill="#0C55D7" transform="translate(271,375)"/>
<path d="M0 0 C13.2 0 26.4 0 40 0 C39.67 1.65 39.34 3.3 39 5 C26.82206647 9.50637188 12.09432255 10.10514118 0 5 C0 3.35 0 1.7 0 0 Z " fill="#3B85F0" transform="translate(380,449)"/>
<path d="M0 0 C3.3 0 6.6 0 10 0 C11.78831859 9.46850826 12.23889655 18.40432207 12 28 C7.545 27.01 7.545 27.01 3 26 C2.49566711 22.60475892 1.99638043 19.20890484 1.5 15.8125 C1.35691406 14.85279297 1.21382812 13.89308594 1.06640625 12.90429688 C0.93105469 11.97294922 0.79570313 11.04160156 0.65625 10.08203125 C0.53056641 9.22843018 0.40488281 8.3748291 0.27539062 7.49536133 C0 5 0 5 0 0 Z " fill="#1259D7" transform="translate(517,323)"/>
<path d="M0 0 C7.26 0 14.52 0 22 0 C22 0.66 22 1.32 22 2 C18.93753253 3.78409802 16.77920727 4.22880021 13.25 4.125 C12.45078125 4.10695313 11.6515625 4.08890625 10.828125 4.0703125 C10.22484375 4.04710937 9.6215625 4.02390625 9 4 C8.95101563 4.59167969 8.90203125 5.18335938 8.8515625 5.79296875 C8.77679688 6.58316406 8.70203125 7.37335938 8.625 8.1875 C8.55539062 8.96480469 8.48578125 9.74210937 8.4140625 10.54296875 C8 13 8 13 6 18 C2.04 18 -1.92 18 -6 18 C-4.44247692 11.32490107 -3.08825885 6.17651769 0 0 Z " fill="#2E3E98" transform="translate(299,399)"/>
<path d="M0 0 C0.33 0.66 0.66 1.32 1 2 C1.58265625 1.98839844 2.1653125 1.97679687 2.765625 1.96484375 C9.56012255 1.89006154 16.23892255 2.34944959 23 3 C22.01 5.97 21.02 8.94 20 12 C12.08 12 4.16 12 -4 12 C-3.16687441 7.00124645 -2.34505694 4.28227788 0 0 Z " fill="#2A358F" transform="translate(273,355)"/>
<path d="M0 0 C3.04846865 0.32956418 4.58429646 0.5694499 6.75 2.8125 C8.68606585 6.20061523 9.12695069 9.24250885 9.09765625 13.109375 C9.09443359 13.86347656 9.09121094 14.61757813 9.08789062 15.39453125 C9.07951172 16.17183594 9.07113281 16.94914062 9.0625 17.75 C9.05798828 18.54277344 9.05347656 19.33554687 9.04882812 20.15234375 C9.03708565 22.10159508 9.01915146 24.05080738 9 26 C7.34597014 26.39124687 5.67661518 26.72098308 4 27 C0.67288965 24.90515274 -0.01642584 21.65327546 -1 18 C-3.39130435 5.08695652 -3.39130435 5.08695652 0 0 Z " fill="#F5F7FC" transform="translate(458,332)"/>
<path d="M0 0 C2.97 0 5.94 0 9 0 C4.96127563 16.8929385 4.96127563 16.8929385 2 24 C-2.95 24.495 -2.95 24.495 -8 25 C-5.80536765 16.45248454 -3.05452766 8.27016382 0 0 Z " fill="#1158D7" transform="translate(290,375)"/>
<path d="M0 0 C3.96 0 7.92 0 12 0 C12.33 5.94 12.66 11.88 13 18 C8.71 18 4.42 18 0 18 C0 12.06 0 6.12 0 0 Z " fill="#2C3C97" transform="translate(433,399)"/>
<path d="M0 0 C-0.28875 0.94875 -0.5775 1.8975 -0.875 2.875 C-2.21227135 7.52679391 -3.0887779 12.2486276 -4 17 C-7.63 17.33 -11.26 17.66 -15 18 C-16.98807394 12.03577817 -16.29811043 6.74527607 -14 1 C-9.27616037 0.34843591 -4.78025483 -0.11950637 0 0 Z " fill="#2B87D8" transform="translate(353,337)"/>
<path d="M0 0 C3.63 0 7.26 0 11 0 C12.00399524 2.62353518 13.00334445 5.24867795 14 7.875 C14.28617188 8.62136719 14.57234375 9.36773437 14.8671875 10.13671875 C17 15.7734375 17 15.7734375 17 18 C13.04 18 9.08 18 5 18 C4.16112944 15.56427941 3.32873471 13.12666783 2.5 10.6875 C2.14228516 9.65206055 2.14228516 9.65206055 1.77734375 8.59570312 C0.76791737 5.61068511 0 3.17341086 0 0 Z " fill="#2C3C97" transform="translate(525,399)"/>
<path d="M0 0 C3.25195722 4.87793583 3.11325659 9.22391379 3 15 C-0.83116361 15.62351668 -4.19275065 15.8483267 -8 15 C-12.10096865 11.20464946 -14.94349256 6.51445346 -16 1 C-13.3755252 0.75190045 -10.75232855 0.5258301 -8.125 0.3125 C-7.37863281 0.23966797 -6.63226563 0.16683594 -5.86328125 0.09179688 C-3.6953125 -0.07421875 -3.6953125 -0.07421875 0 0 Z " fill="#273D9A" transform="translate(439,352)"/>
<path d="M0 0 C3.63 0 7.26 0 11 0 C16.37129841 12.48519362 16.37129841 12.48519362 18 19 C12.140625 18.31640625 12.140625 18.31640625 10 18 C9.319375 17.96519531 8.63875 17.93039062 7.9375 17.89453125 C4.71629804 16.40732309 3.97409237 13.25392999 2.75 10.125 C2.481875 9.48691406 2.21375 8.84882813 1.9375 8.19140625 C0.75805335 5.30898305 0 3.14148355 0 0 Z " fill="#0958DC" transform="translate(476,324)"/>
<path d="M0 0 C0.66 0 1.32 0 2 0 C3.32972073 4.98645274 3.06829634 9.87777466 3 15 C-1.95 15 -6.9 15 -12 15 C-12.99 11.7 -13.98 8.4 -15 5 C-11.535 4.505 -11.535 4.505 -8 4 C-8 3.34 -8 2.68 -8 2 C-4.71023192 0.90341064 -3.28696233 1.20046862 0 2 C0 1.34 0 0.68 0 0 Z " fill="#284AA4" transform="translate(528,352)"/>
<path d="M0 0 C1.60546875 2.65234375 1.60546875 2.65234375 3.1875 5.9375 C3.71730469 7.01902344 4.24710937 8.10054688 4.79296875 9.21484375 C6 12 6 12 6 14 C1.05 14 -3.9 14 -9 14 C-10.32 9.71 -11.64 5.42 -13 1 C-3.375 -1.125 -3.375 -1.125 0 0 Z " fill="#2B3F9A" transform="translate(399,353)"/>
<path d="M0 0 C0 0.66 0 1.32 0 2 C2.475 2.495 2.475 2.495 5 3 C5 3.33 5 3.66 5 4 C4.3709375 4.07476562 3.741875 4.14953125 3.09375 4.2265625 C-3.68117079 5.26728828 -7.89375811 7.46428793 -13 12 C-12.42765625 11.55011719 -11.8553125 11.10023438 -11.265625 10.63671875 C-5.13562017 6.20831871 0.48931089 4.45376806 8 5 C8 5.66 8 6.32 8 7 C6.83984375 7.11214844 6.83984375 7.11214844 5.65625 7.2265625 C-4.05071229 8.45194635 -9.43387303 11.88669578 -16 19 C-16.33 17.68 -16.66 16.36 -17 15 C-17.66 15 -18.32 15 -19 15 C-19 11.07488565 -18.88776626 8.99312753 -16.22265625 6.01171875 C-10.40185839 0.92773074 -7.645258 -0.12331061 0 0 Z " fill="#856E64" transform="translate(404,264)"/>
<path d="M0 0 C3.63 0 7.26 0 11 0 C11 5.28 11 10.56 11 16 C7.04 16 3.08 16 -1 16 C-1.07411518 10.51547704 -1.13494249 5.39097682 0 0 Z " fill="#253C99" transform="translate(371,351)"/>
<path d="M0 0 C2.875 1.5 2.875 1.5 5 4 C5.60485913 7.47794 5.60776409 10.78447181 4 14 C1.07120629 13.37240135 -1.36095629 12.41377341 -4 11 C-4.433125 11.495 -4.86625 11.99 -5.3125 12.5 C-7 14 -7 14 -10 14 C-11.60776409 10.78447181 -11.60485913 7.47794 -11 4 C-7.72794548 0.1505241 -4.96702569 -0.82783761 0 0 Z " fill="#0B5CE2" transform="translate(403,135)"/>
<path d="M0 0 C0.33 1.32 0.66 2.64 1 4 C3.97 4.33 6.94 4.66 10 5 C12.16137791 9.46684769 12.86759248 14.07036605 13 19 C12 20 12 20 9.49609375 20.09765625 C8.48675781 20.08605469 7.47742188 20.07445312 6.4375 20.0625 C5.42558594 20.05347656 4.41367187 20.04445313 3.37109375 20.03515625 C2.58863281 20.02355469 1.80617188 20.01195312 1 20 C-0.14982602 15.90996141 -0.11094256 11.96822949 -0.0625 7.75 C-0.05798828 7.00492187 -0.05347656 6.25984375 -0.04882812 5.4921875 C-0.03709246 3.6614236 -0.0191585 1.83070127 0 0 Z " fill="#2877D1" transform="translate(445,333)"/>
<path d="M0 0 C2.70740662 2.70740662 3.1010554 5.2626766 4.125 8.9375 C4.47820312 10.18402344 4.83140625 11.43054688 5.1953125 12.71484375 C6 16 6 16 6 19 C2.7 19 -0.6 19 -4 19 C-5.85743168 12.88595404 -7.42765417 7.41481258 -7 1 C-3.625 0.375 -3.625 0.375 0 0 Z " fill="#2C3B97" transform="translate(490,398)"/>
<path d="M0 0 C2.02408755 0.09002398 4.04544287 0.24641038 6.0625 0.4375 C7.71958984 0.59025391 7.71958984 0.59025391 9.41015625 0.74609375 C10.26480469 0.82988281 11.11945313 0.91367187 12 1 C13.28571429 9.42857143 13.28571429 9.42857143 12 14 C11.30132812 13.97679687 10.60265625 13.95359375 9.8828125 13.9296875 C8.51769531 13.90261719 8.51769531 13.90261719 7.125 13.875 C6.22007812 13.85179687 5.31515625 13.82859375 4.3828125 13.8046875 C1.81193006 13.75675164 1.81193006 13.75675164 0 16 C-0.19389096 13.5211787 -0.38040123 11.04219069 -0.5625 8.5625 C-0.61857422 7.85544922 -0.67464844 7.14839844 -0.73242188 6.41992188 C-0.86190993 4.61572163 -0.93521608 2.80768048 -1 1 C-0.67 0.67 -0.34 0.34 0 0 Z " fill="#3277CF" transform="translate(467,339)"/>
<path d="M0 0 C7.1933922 -0.87724295 7.1933922 -0.87724295 11 0 C14.06005058 3.19309625 17 7.43485787 17 12 C11.72 11.67 6.44 11.34 1 11 C1 12.98 1 14.96 1 17 C0.67 17 0.34 17 0 17 C0 11.39 0 5.78 0 0 Z " fill="#0558DF" transform="translate(407,324)"/>
<path d="M0 0 C1.47906892 -0.02689216 2.95827483 -0.04634621 4.4375 -0.0625 C5.26121094 -0.07410156 6.08492188 -0.08570313 6.93359375 -0.09765625 C9 0 9 0 10 1 C10.07258946 3.18639453 10.08373783 5.37500389 10.0625 7.5625 C10.05347656 8.76003906 10.04445313 9.95757812 10.03515625 11.19140625 C10.02355469 12.11824219 10.01195312 13.04507812 10 14 C7.69 14 5.38 14 3 14 C3.33 16.97 3.66 19.94 4 23 C2.68 23 1.36 23 0 23 C-1.51953125 21.3203125 -1.51953125 21.3203125 -2.8125 19.125 C-3.25207031 18.40570313 -3.69164062 17.68640625 -4.14453125 16.9453125 C-4.56798828 15.98238281 -4.56798828 15.98238281 -5 15 C-4.67 14.34 -4.34 13.68 -4 13 C-1.525 16.465 -1.525 16.465 1 20 C1.16213913 15.49161525 1.16213913 15.49161525 0.5 11.0625 C-0.06693284 8.72390203 -0.09783433 6.65273419 -0.0625 4.25 C-0.05347656 3.45078125 -0.04445313 2.6515625 -0.03515625 1.828125 C-0.02355469 1.22484375 -0.01195312 0.6215625 0 0 Z " fill="#1964DF" transform="translate(429,323)"/>
<path d="M0 0 C-0.25537572 2.1060986 -0.52985374 4.20988754 -0.8125 6.3125 C-0.96332031 7.48425781 -1.11414063 8.65601563 -1.26953125 9.86328125 C-2.00262367 13.01126636 -2.3339117 14.23937565 -5 16 C-8.6875 16.1875 -8.6875 16.1875 -12 16 C-13.3805087 12.23331402 -12.59568159 9.55210827 -11.5625 5.75 C-11.27503906 4.67234375 -10.98757813 3.5946875 -10.69140625 2.484375 C-10.46324219 1.66453125 -10.23507812 0.8446875 -10 0 C-6.30458414 -0.95024979 -3.69541586 -0.95024979 0 0 Z " fill="#2D7FD5" transform="translate(334,340)"/>
<path d="M0 0 C3.3 0 6.6 0 10 0 C10 4.29 10 8.58 10 13 C6.04 13 2.08 13 -2 13 C-1.125 2.25 -1.125 2.25 0 0 Z " fill="#2C3C97" transform="translate(357,404)"/>
<path d="M0 0 C3.63 0 7.26 0 11 0 C10.98839844 1.20398438 10.97679687 2.40796875 10.96484375 3.6484375 C10.95546566 5.22395679 10.94636548 6.79947775 10.9375 8.375 C10.92912109 9.1690625 10.92074219 9.963125 10.91210938 10.78125 C10.76959849 15.02392222 10.76959849 15.02392222 12 19 C11.01 19 10.02 19 9 19 C9 16.69 9 14.38 9 12 C6.03 12 3.06 12 0 12 C0 8.04 0 4.08 0 0 Z " fill="#0457DE" transform="translate(373,324)"/>
<path d="M0 0 C13.365 0.495 13.365 0.495 27 1 C27.66 2.98 28.32 4.96 29 7 C19.43 6.67 9.86 6.34 0 6 C0 4.02 0 2.04 0 0 Z " fill="#1B42AE" transform="translate(450,398)"/>
<path d="M0 0 C1.04225175 5.08097726 1.07822869 9.83690648 1 15 C-2.3 15 -5.6 15 -9 15 C-9 10.38 -9 5.76 -9 1 C-1.125 0 -1.125 0 0 0 Z " fill="#293D99" transform="translate(417,352)"/>
<path d="M0 0 C0.33 0 0.66 0 1 0 C1 2.31 1 4.62 1 7 C0.34 7 -0.32 7 -1 7 C-1 7.66 -1 8.32 -1 9 C-3.64 9 -6.28 9 -9 9 C-8.67 9.99 -8.34 10.98 -8 12 C-10.97 12 -13.94 12 -17 12 C-18.32 8.7 -19.64 5.4 -21 2 C-18.64710301 0.8235515 -17.58181049 0.96524149 -15 1.25 C-14.29875 1.31703125 -13.5975 1.3840625 -12.875 1.453125 C-11 2 -11 2 -9 5 C-8.4225 4.814375 -7.845 4.62875 -7.25 4.4375 C-4.79307475 3.95976454 -3.35602466 4.24270636 -1 5 C-0.67 3.35 -0.34 1.7 0 0 Z " fill="#2A59B1" transform="translate(529,345)"/>
<path d="M0 0 C0.33 2.97 0.66 5.94 1 9 C-3.95 9 -8.9 9 -14 9 C-16 4 -16 4 -16 1 C-13.52085964 0.83293398 -11.04168987 0.66632824 -8.5625 0.5 C-7.85544922 0.45230469 -7.14839844 0.40460938 -6.41992188 0.35546875 C-1.11328125 0 -1.11328125 0 0 0 Z " fill="#283591" transform="translate(506,358)"/>
<path d="M0 0 C3.3 0 6.6 0 10 0 C8.83648852 4.6540459 7.48341408 8.58966454 4 12 C0.8945121 12.68664054 -1.87368435 12.49040245 -5 12 C-3.68938409 7.76570244 -2.05643741 3.92592596 0 0 Z " fill="#105FE1" transform="translate(393,323)"/>
<path d="M0 0 C3.62493334 -0.05787784 7.24974857 -0.0935542 10.875 -0.125 C11.90753906 -0.14175781 12.94007813 -0.15851563 14.00390625 -0.17578125 C14.99003906 -0.18222656 15.97617187 -0.18867188 16.9921875 -0.1953125 C18.35899658 -0.21102295 18.35899658 -0.21102295 19.75341797 -0.22705078 C22 0 22 0 24 2 C24 2.99 24 3.98 24 5 C20.37 5 16.74 5 13 5 C13 4.01 13 3.02 13 2 C12.34 2 11.68 2 11 2 C11 4.64 11 7.28 11 10 C10.67 10 10.34 10 10 10 C10 8.35 10 6.7 10 5 C6.7 5 3.4 5 0 5 C-0.33 5.66 -0.66 6.32 -1 7 C-0.67 4.69 -0.34 2.38 0 0 Z " fill="#2147B0" transform="translate(357,399)"/>
<path d="M0 0 C-0.99 3.96 -1.98 7.92 -3 12 C-6.63 11.67 -10.26 11.34 -14 11 C-15.10191901 6.59232396 -14.58706842 5.1077065 -13 1 C-11.906875 1.020625 -10.81375 1.04125 -9.6875 1.0625 C-6.20022781 1.00339369 -3.44821853 0 0 0 Z " fill="#2C63B9" transform="translate(288,346)"/>
<path d="M0 0 C0.78260048 2.81736172 1.19511109 4.45969238 0.1875 7.25 C-1 9 -1 9 -3 10 C-4.54023996 10.06950541 -6.08334988 10.08452357 -7.625 10.0625 C-8.85089844 10.04896484 -8.85089844 10.04896484 -10.1015625 10.03515625 C-11.04128906 10.01775391 -11.04128906 10.01775391 -12 10 C-12 10.66 -12 11.32 -12 12 C-12.66 12 -13.32 12 -14 12 C-13.34 8.7 -12.68 5.4 -12 2 C-7.8803623 0.70756464 -4.33168317 -0.26252625 0 0 Z " fill="#2B68C0" transform="translate(314,342)"/>
<path d="M0 0 C7.26 0 14.52 0 22 0 C22 0.66 22 1.32 22 2 C14.75621603 5.98651199 6.04519669 5.13533976 -2 5 C-1.34 3.35 -0.68 1.7 0 0 Z " fill="#1A43B0" transform="translate(299,399)"/>
<path d="M0 0 C0 1.98 0 3.96 0 6 C-4.95 6 -9.9 6 -15 6 C-15.33 4.02 -15.66 2.04 -16 0 C-13.7089095 -0.19441368 -11.41709663 -0.38033135 -9.125 -0.5625 C-7.21074219 -0.71912109 -7.21074219 -0.71912109 -5.2578125 -0.87890625 C-2 -1 -2 -1 0 0 Z " fill="#29358F" transform="translate(531,361)"/>
<path d="M0 0 C6.27 0 12.54 0 19 0 C19.33 1.65 19.66 3.3 20 5 C17.22858283 5.08089542 14.45952181 5.14044062 11.6875 5.1875 C10.90181641 5.21263672 10.11613281 5.23777344 9.30664062 5.26367188 C8.54931641 5.27333984 7.79199219 5.28300781 7.01171875 5.29296875 C6.31522217 5.3086792 5.61872559 5.32438965 4.90112305 5.34057617 C2.41762422 4.89567045 1.52898008 3.96642914 0 2 C0 1.34 0 0.68 0 0 Z " fill="#1B43AF" transform="translate(495,399)"/>
<path d="M0 0 C3.63 0 7.26 0 11 0 C11 2.64 11 5.28 11 8 C7.7 8 4.4 8 1 8 C0.67 9.32 0.34 10.64 0 12 C0 8.04 0 4.08 0 0 Z " fill="#1940AD" transform="translate(416,396)"/>
<path d="M0 0 C0.33 0.66 0.66 1.32 1 2 C1.58265625 1.98839844 2.1653125 1.97679687 2.765625 1.96484375 C9.56012255 1.89006154 16.23892255 2.34944959 23 3 C22.67 4.65 22.34 6.3 22 8 C21.67 7.34 21.34 6.68 21 6 C13.41 6 5.82 6 -2 6 C-1.34 4.02 -0.68 2.04 0 0 Z " fill="#27429E" transform="translate(273,355)"/>
<path d="M0 0 C1.125 5.75 1.125 5.75 0 8 C-2.50390625 8.4140625 -2.50390625 8.4140625 -5.5625 8.625 C-6.57441406 8.69976562 -7.58632813 8.77453125 -8.62890625 8.8515625 C-9.41136719 8.90054687 -10.19382812 8.94953125 -11 9 C-11.33 6.36 -11.66 3.72 -12 1 C-10.18755015 0.83278881 -8.37503867 0.66624559 -6.5625 0.5 C-5.55316406 0.4071875 -4.54382813 0.314375 -3.50390625 0.21875 C-1 0 -1 0 0 0 Z " fill="#206BC4" transform="translate(349,346)"/>
<path d="M0 0 C4.95 0 9.9 0 15 0 C15.66 1.65 16.32 3.3 17 5 C11.39 5 5.78 5 0 5 C0 3.35 0 1.7 0 0 Z " fill="#2D98DC" transform="translate(409,336)"/>
<path d="M0 0 C0.33 0 0.66 0 1 0 C1 2.64 1 5.28 1 8 C0.15695312 8.03738281 -0.68609375 8.07476562 -1.5546875 8.11328125 C-3.19824219 8.21189453 -3.19824219 8.21189453 -4.875 8.3125 C-5.96554687 8.37050781 -7.05609375 8.42851562 -8.1796875 8.48828125 C-9.57574219 8.74158203 -9.57574219 8.74158203 -11 9 C-11.66 9.99 -12.32 10.98 -13 12 C-13 10.02 -13 8.04 -13 6 C-12.01 5.67 -11.02 5.34 -10 5 C-10 4.34 -10 3.68 -10 3 C-9.04287109 2.92652344 -9.04287109 2.92652344 -8.06640625 2.8515625 C-7.24011719 2.77679688 -6.41382813 2.70203125 -5.5625 2.625 C-4.32693359 2.52058594 -4.32693359 2.52058594 -3.06640625 2.4140625 C-2.04353516 2.20910156 -2.04353516 2.20910156 -1 2 C-0.67 1.34 -0.34 0.68 0 0 Z " fill="#2253AE" transform="translate(312,349)"/>
<path d="M0 0 C0.33 0.99 0.66 1.98 1 3 C3.31 3 5.62 3 8 3 C8.33 2.01 8.66 1.02 9 0 C9.35915493 6.34507042 9.35915493 6.34507042 7.9375 8.9375 C4.98831309 10.55479605 2.29132441 10.18630138 -1 10 C-2.46726798 6.18510326 -1.43336419 3.70988378 0 0 Z " fill="#2965BF" transform="translate(323,346)"/>
<path d="M0 0 C4.95 0 9.9 0 15 0 C14.67 1.98 14.34 3.96 14 6 C10.04 6 6.08 6 2 6 C1.34 4.02 0.68 2.04 0 0 Z " fill="#1E45B0" transform="translate(243,399)"/>
<path d="M0 0 C0.87890625 6.15234375 0.87890625 6.15234375 1 8 C0 9 0 9 -1.84765625 9.09765625 C-3.8984375 9.06510417 -5.94921875 9.03255208 -8 9 C-8 6.36 -8 3.72 -8 1 C-2.25 0 -2.25 0 0 0 Z " fill="#1C55B9" transform="translate(416,344)"/>
<path d="M0 0 C7.42857143 1 7.42857143 1 11 2 C11.33 3.98 11.66 5.96 12 8 C7.545 8.495 7.545 8.495 3 9 C2.01 6.03 1.02 3.06 0 0 Z " fill="#287CD0" transform="translate(482,341)"/>
<path d="M0 0 C2 1 2 1 3.1875 4.3125 C4 8 4 8 3 12 C0.03 12 -2.94 12 -6 12 C-6.33 10.02 -6.66 8.04 -7 6 C-4.36 6 -1.72 6 1 6 C0.67 4.02 0.34 2.04 0 0 Z " fill="#2662BD" transform="translate(493,343)"/>
<path d="M0 0 C2.26921536 -0.13489391 4.5407067 -0.23193995 6.8125 -0.3125 C8.70935547 -0.39951172 8.70935547 -0.39951172 10.64453125 -0.48828125 C14 0 14 0 15.94921875 2.51953125 C16.29597656 3.33808594 16.64273438 4.15664063 17 5 C6.31569507 5.76681614 6.31569507 5.76681614 3.08984375 3.88671875 C1.75 2.5 1.75 2.5 0 0 Z " fill="#1C43AF" transform="translate(554,399)"/>
<path d="M0 0 C3.63 0.33 7.26 0.66 11 1 C10.67 3.97 10.34 6.94 10 10 C9.67 8.68 9.34 7.36 9 6 C5.37 6 1.74 6 -2 6 C-1.34 4.02 -0.68 2.04 0 0 Z " fill="#254AB1" transform="translate(263,398)"/>
<path d="M0 0 C3.96 0 7.92 0 12 0 C12 1.98 12 3.96 12 6 C8.04 5.67 4.08 5.34 0 5 C0 3.35 0 1.7 0 0 Z " fill="#2046B0" transform="translate(433,399)"/>
<path d="M0 0 C1.0625 1.8125 1.0625 1.8125 2 4 C1.67 4.99 1.34 5.98 1 7 C-2.63 7 -6.26 7 -10 7 C-10 5.35 -10 3.7 -10 2 C-6.7 2 -3.4 2 0 2 C0 1.34 0 0.68 0 0 Z " fill="#235AB8" transform="translate(456,346)"/>
<path d="M0 0 C3.63 0 7.26 0 11 0 C11.33 1.65 11.66 3.3 12 5 C11.06027344 5.09087891 11.06027344 5.09087891 10.1015625 5.18359375 C9.28429687 5.26738281 8.46703125 5.35117187 7.625 5.4375 C6.81289063 5.51871094 6.00078125 5.59992188 5.1640625 5.68359375 C2.95727195 5.89090114 2.95727195 5.89090114 1 7 C0.67 4.69 0.34 2.38 0 0 Z " fill="#1E44AE" transform="translate(525,399)"/>
<path d="M0 0 C3.63 0 7.26 0 11 0 C11.33 1.65 11.66 3.3 12 5 C8.04 5 4.08 5 0 5 C0 3.35 0 1.7 0 0 Z " fill="#1A41AE" transform="translate(397,399)"/>
<path d="M0 0 C3.63 0 7.26 0 11 0 C10.67 1.65 10.34 3.3 10 5 C6.37 5.33 2.74 5.66 -1 6 C-0.67 4.02 -0.34 2.04 0 0 Z " fill="#1C43AE" transform="translate(329,399)"/>
<path d="M0 0 C6.27 0.33 12.54 0.66 19 1 C19 1.99 19 2.98 19 4 C10.585 4.495 10.585 4.495 2 5 C1.34 3.35 0.68 1.7 0 0 Z " fill="#2158B7" transform="translate(420,349)"/>
<path d="M0 0 C2.33294775 -0.04241723 4.66702567 -0.04092937 7 0 C8 1 8 1 8.1875 3.4375 C8 6 8 6 6 8 C3.375 8.125 3.375 8.125 1 8 C0.67 5.36 0.34 2.72 0 0 Z " fill="#2980D6" transform="translate(432,337)"/>
<path d="M0 0 C2.97 0.33 5.94 0.66 9 1 C9 2.98 9 4.96 9 7 C6.03 7 3.06 7 0 7 C0 4.69 0 2.38 0 0 Z " fill="#298FD8" transform="translate(446,337)"/>
<path d="M0 0 C-1.98564431 1.49809772 -3.9763951 2.98312619 -6 4.4296875 C-9.94933932 7.28370224 -13.15640599 9.97157515 -16 14 C-16 10.16871323 -15.80823887 8.02114081 -13.3984375 4.9765625 C-8.93523957 0.75461851 -6.13155293 -0.8941848 0 0 Z " fill="#CF0C24" transform="translate(401,265)"/>
<path d="M0 0 C2.84383123 1.2748209 5.13754018 2.45137078 7 5 C6.6875 7.1875 6.6875 7.1875 6 9 C4.68 8.01 3.36 7.02 2 6 C1.401875 6.309375 0.80375 6.61875 0.1875 6.9375 C-2 8 -2 8 -5 9 C-4.5206753 4.68607774 -3.2542015 2.83430453 0 0 Z " fill="#1E69E4" transform="translate(399,161)"/>
<path d="M0 0 C2.20082099 1.1004105 3.43699129 1.92428781 4.875 3.9375 C5.0625 6.625 5.0625 6.625 4.875 8.9375 C3.225 7.6175 1.575 6.2975 -0.125 4.9375 C-2.61861571 6.14131448 -4.80643083 7.39178722 -7.125 8.9375 C-7.4375 6.6875 -7.4375 6.6875 -7.125 3.9375 C-3.30271084 -0.09713855 -3.30271084 -0.09713855 0 0 Z " fill="#1B67E4" transform="translate(401.125,151.0625)"/>
<path d="M0 0 C0.33 0 0.66 0 1 0 C1 1.65 1 3.3 1 5 C3.97 5 6.94 5 10 5 C9.67 6.65 9.34 8.3 9 10 C6.03 10 3.06 10 0 10 C0 6.7 0 3.4 0 0 Z " fill="#1C68C7" transform="translate(372,340)"/>
<path d="M0 0 C0 0.66 0 1.32 0 2 C-0.59167969 2.21914063 -1.18335938 2.43828125 -1.79296875 2.6640625 C-7.47061095 4.94252903 -10.46638339 7.01136479 -14 12 C-14.8971875 13.175625 -14.8971875 13.175625 -15.8125 14.375 C-16.204375 14.91125 -16.59625 15.4475 -17 16 C-17.33 15.01 -17.66 14.02 -18 13 C-18.66 12.67 -19.32 12.34 -20 12 C-19.67 11.34 -19.34 10.68 -19 10 C-19.66 10 -20.32 10 -21 10 C-20.67 8.68 -20.34 7.36 -20 6 C-20 6.66 -20 7.32 -20 8 C-19.34 8 -18.68 8 -18 8 C-17.01 9.485 -17.01 9.485 -16 11 C-15.6596875 10.54109375 -15.319375 10.0821875 -14.96875 9.609375 C-11.26562069 4.92137088 -6.40453195 0 0 0 Z " fill="#1E52C5" transform="translate(405,271)"/>
<path d="M0 0 C2.21397934 1.07128033 3.46981988 1.95613183 4.9375 3.9375 C4.9375 5.2575 4.9375 6.5775 4.9375 7.9375 C4.36 7.6075 3.7825 7.2775 3.1875 6.9375 C0.73866138 5.66674102 0.73866138 5.66674102 -3.0625 5.9375 C-5.28993787 7.35727909 -5.28993787 7.35727909 -7.0625 8.9375 C-6.71197365 5.78276281 -6.19730924 4.1141466 -4.25 1.5625 C-2.0625 -0.0625 -2.0625 -0.0625 0 0 Z " fill="#206AE4" transform="translate(401.0625,172.0625)"/>
<path d="M0 0 C1.32 0.33 2.64 0.66 4 1 C4.31263383 7.87794433 4.31263383 7.87794433 2 11 C-0.078125 11.60546875 -0.078125 11.60546875 -2 12 C-1.85831863 10.56208484 -1.71148957 9.1246763 -1.5625 7.6875 C-1.48128906 6.88699219 -1.40007812 6.08648437 -1.31640625 5.26171875 C-1 3 -1 3 0 0 Z " fill="#E7EEFB" transform="translate(313,383)"/>
<path d="M0 0 C3.3 0 6.6 0 10 0 C10 1.65 10 3.3 10 5 C6.7 5 3.4 5 0 5 C0 3.35 0 1.7 0 0 Z " fill="#2063BD" transform="translate(469,348)"/>
<path d="M0 0 C2.84383123 1.2748209 5.13754018 2.45137078 7 5 C6.6875 7.1875 6.6875 7.1875 6 9 C4.35 7.68 2.7 6.36 1 5 C-0.98 6.32 -2.96 7.64 -5 9 C-4.75 6.625 -4.75 6.625 -4 4 C-1.9375 2.6875 -1.9375 2.6875 0 2 C0 1.34 0 0.68 0 0 Z " fill="#1764E3" transform="translate(399,202)"/>
<path d="M0 0 C2.35953094 2.35953094 2.49141413 3.77895617 3 7 C0.03 6.67 -2.94 6.34 -6 6 C-6.33 6.66 -6.66 7.32 -7 8 C-7 5.69 -7 3.38 -7 1 C-3.625 0.375 -3.625 0.375 0 0 Z " fill="#264BB2" transform="translate(490,398)"/>
<path d="M0 0 C2.76390737 2.40339772 3.04065919 3.16263678 4 7 C-1.94 7.495 -1.94 7.495 -8 8 C-8.66 6.68 -9.32 5.36 -10 4 C-9.67 3.01 -9.34 2.02 -9 1 C-8.67 1.66 -8.34 2.32 -8 3 C-5.87423218 3.46651207 -5.87423218 3.46651207 -3.4375 3.625 C-2.61121094 3.69976562 -1.78492188 3.77453125 -0.93359375 3.8515625 C-0.29550781 3.90054687 0.34257812 3.94953125 1 4 C0.67 2.68 0.34 1.36 0 0 Z " fill="#2458B8" transform="translate(394,346)"/>
<path d="M0 0 C1.23556641 0.01740234 1.23556641 0.01740234 2.49609375 0.03515625 C3.32238281 0.04417969 4.14867187 0.05320312 5 0.0625 C5.63808594 0.07410156 6.27617187 0.08570313 6.93359375 0.09765625 C6.60359375 1.74765625 6.27359375 3.39765625 5.93359375 5.09765625 C2.63359375 5.09765625 -0.66640625 5.09765625 -4.06640625 5.09765625 C-2.82537325 0.13352426 -2.82537325 0.13352426 0 0 Z " fill="#1E45AF" transform="translate(285.06640625,398.90234375)"/>
<path d="M0 0 C2.375 1.3125 2.375 1.3125 4.375 3.3125 C4 5.4375 4 5.4375 3.375 7.3125 C2.818125 6.77625 2.26125 6.24 1.6875 5.6875 C0.924375 5.23375 0.16125 4.78 -0.625 4.3125 C-3.27745602 4.97346786 -3.27745602 4.97346786 -5.625 6.3125 C-6.615 6.8075 -6.615 6.8075 -7.625 7.3125 C-7.29583852 4.26775635 -6.95369657 2.67641406 -4.875 0.375 C-2.625 -0.6875 -2.625 -0.6875 0 0 Z " fill="#1664E3" transform="translate(401.625,213.6875)"/>
<path d="M0 0 C2.84383123 1.2748209 5.13754018 2.45137078 7 5 C6.6875 7.1875 6.6875 7.1875 6 9 C4.68 7.68 3.36 6.36 2 5 C-0.49361571 6.20381448 -2.68143083 7.45428722 -5 9 C-4.5206753 4.68607774 -3.2542015 2.83430453 0 0 Z " fill="#095CE2" transform="translate(399,192)"/>
<path d="M0 0 C2.84383123 1.2748209 5.13754018 2.45137078 7 5 C6.6875 7.1875 6.6875 7.1875 6 9 C4.68 7.68 3.36 6.36 2 5 C-0.49361571 6.20381448 -2.68143083 7.45428722 -5 9 C-4.5206753 4.68607774 -3.2542015 2.83430453 0 0 Z " fill="#1161E2" transform="translate(399,182)"/>
<path d="M0 0 C2 1 2 1 2.8515625 3.1796875 C3.10679687 4.06914062 3.36203125 4.95859375 3.625 5.875 C4.01558594 7.20144531 4.01558594 7.20144531 4.4140625 8.5546875 C5 11 5 11 5 14 C3.35 14 1.7 14 0 14 C0 9.38 0 4.76 0 0 Z " fill="#DFE9FA" transform="translate(460,384)"/>
<path d="M0 0 C3.63 0 7.26 0 11 0 C11 0.99 11 1.98 11 3 C6.545 3.495 6.545 3.495 2 4 C1.67 6.64 1.34 9.28 1 12 C0.67 12 0.34 12 0 12 C0 8.04 0 4.08 0 0 Z " fill="#2858C2" transform="translate(416,396)"/>
<path d="M0 0 C1.65 0 3.3 0 5 0 C5.125 3.375 5.125 3.375 5 7 C4.34 7.66 3.68 8.32 3 9 C2.01 9 1.02 9 0 9 C0 6.03 0 3.06 0 0 Z " fill="#EBF1FC" transform="translate(369,384)"/>
<path d="M0 0 C1.125 3.75 1.125 3.75 0 6 C3.3 6 6.6 6 10 6 C10.33 5.01 10.66 4.02 11 3 C11 5.97 11 8.94 11 12 C10.34 10.68 9.68 9.36 9 8 C5.37 8 1.74 8 -2 8 C-1.125 1.125 -1.125 1.125 0 0 Z " fill="#2B73CF" transform="translate(339,339)"/>
<path d="M0 0 C1.69141656 0.08963062 3.37959602 0.24577676 5.0625 0.4375 C6.44115234 0.59025391 6.44115234 0.59025391 7.84765625 0.74609375 C8.55792969 0.82988281 9.26820313 0.91367187 10 1 C10 2.32 10 3.64 10 5 C7.36 5 4.72 5 2 5 C1.67 4.01 1.34 3.02 1 2 C0.34 1.67 -0.32 1.34 -1 1 C-0.67 0.67 -0.34 0.34 0 0 Z " fill="#2689D8" transform="translate(467,339)"/>
<path d="M0 0 C0.33 1.32 0.66 2.64 1 4 C3.97 4 6.94 4 10 4 C10 5.32 10 6.64 10 8 C2.25 8.125 2.25 8.125 0 7 C0 4.69 0 2.38 0 0 Z " fill="#3798DF" transform="translate(372,332)"/>
<path d="M0 0 C0.33 1.32 0.66 2.64 1 4 C6.445 3.505 6.445 3.505 12 3 C12.33 3.66 12.66 4.32 13 5 C12.67 5.66 12.34 6.32 12 7 C9.49609375 7.4140625 9.49609375 7.4140625 6.4375 7.625 C5.42558594 7.69976562 4.41367187 7.77453125 3.37109375 7.8515625 C2.58863281 7.90054687 1.80617188 7.94953125 1 8 C0.67 5.36 0.34 2.72 0 0 Z " fill="#2056B5" transform="translate(337,347)"/>
<path d="M0 0 C0.33 1.65 0.66 3.3 1 5 C0.34 4.67 -0.32 4.34 -1 4 C-2.71233688 4.0870204 -4.42175406 4.24097162 -6.125 4.4375 C-7.03507812 4.53933594 -7.94515625 4.64117187 -8.8828125 4.74609375 C-9.93082031 4.87177734 -9.93082031 4.87177734 -11 5 C-11 4.01 -11 3.02 -11 2 C-7.17679443 0.57741188 -4.08718695 -0.24042276 0 0 Z " fill="#2E86D5" transform="translate(314,342)"/>
<path d="M0 0 C-0.33 1.65 -0.66 3.3 -1 5 C-3.97 5 -6.94 5 -10 5 C-10 4.01 -10 3.02 -10 2 C-6.38026598 0.68373308 -3.90432869 0 0 0 Z " fill="#2B89D1" transform="translate(286,347)"/>
<path d="M0 0 C0.33 0 0.66 0 1 0 C1 2.31 1 4.62 1 7 C0.34 7 -0.32 7 -1 7 C-1 7.66 -1 8.32 -1 9 C-3.31 9 -5.62 9 -8 9 C-8.33 8.34 -8.66 7.68 -9 7 C-8.67 6.01 -8.34 5.02 -8 4 C-5.69 4.33 -3.38 4.66 -1 5 C-0.67 3.35 -0.34 1.7 0 0 Z " fill="#3877C6" transform="translate(529,345)"/>
<path d="M0 0 C1.23556641 0.01740234 1.23556641 0.01740234 2.49609375 0.03515625 C3.32238281 0.04417969 4.14867187 0.05320312 5 0.0625 C5.63808594 0.07410156 6.27617187 0.08570313 6.93359375 0.09765625 C7.26359375 1.41765625 7.59359375 2.73765625 7.93359375 4.09765625 C6.47616912 4.17862428 5.01746568 4.23683399 3.55859375 4.28515625 C2.74648438 4.31996094 1.934375 4.35476563 1.09765625 4.390625 C0.38351562 4.29394531 -0.330625 4.19726562 -1.06640625 4.09765625 C-1.72640625 3.10765625 -2.38640625 2.11765625 -3.06640625 1.09765625 C-2.06640625 0.09765625 -2.06640625 0.09765625 0 0 Z " fill="#2483D3" transform="translate(420.06640625,340.90234375)"/>
<path d="M0 0 C1.84765625 0.33984375 1.84765625 0.33984375 4.0625 0.9375 C5.16271484 1.22947266 5.16271484 1.22947266 6.28515625 1.52734375 C7.13400391 1.76130859 7.13400391 1.76130859 8 2 C8 3.32 8 4.64 8 6 C5.69 6 3.38 6 1 6 C0.34 4.35 -0.32 2.7 -1 1 C-0.67 0.67 -0.34 0.34 0 0 Z " fill="#3189D0" transform="translate(509,346)"/>
<path d="M0 0 C0 1.98 0 3.96 0 6 C-0.33 5.34 -0.66 4.68 -1 4 C-4.3 4 -7.6 4 -11 4 C-10.67 3.01 -10.34 2.02 -10 1 C-8.5209084 0.83266843 -7.04172444 0.66615314 -5.5625 0.5 C-4.32693359 0.36078125 -4.32693359 0.36078125 -3.06640625 0.21875 C-1 0 -1 0 0 0 Z " fill="#2774CB" transform="translate(314,345)"/>
<path d="M0 0 C0.33 0 0.66 0 1 0 C1 2.64 1 5.28 1 8 C0.15695312 8.03738281 -0.68609375 8.07476562 -1.5546875 8.11328125 C-3.19824219 8.21189453 -3.19824219 8.21189453 -4.875 8.3125 C-5.96554687 8.37050781 -7.05609375 8.42851562 -8.1796875 8.48828125 C-9.57574219 8.74158203 -9.57574219 8.74158203 -11 9 C-11.66 9.99 -12.32 10.98 -13 12 C-13 10.02 -13 8.04 -13 6 C-12.34 5.67 -11.68 5.34 -11 5 C-11 5.66 -11 6.32 -11 7 C-7.7 7 -4.4 7 -1 7 C-0.67 4.69 -0.34 2.38 0 0 Z " fill="#3D59AF" transform="translate(312,349)"/>
<path d="M0 0 C1.65 0.33 3.3 0.66 5 1 C5 2.65 5 4.3 5 6 C3.68 6 2.36 6 1 6 C0.67 7.65 0.34 9.3 0 11 C-2 8 -2 8 -1.7578125 5.95703125 C-1.171875 3.97135417 -0.5859375 1.98567708 0 0 Z " fill="#3782CE" transform="translate(499,344)"/>
<path d="M0 0 C0.625 1.8125 0.625 1.8125 1 4 C0.01 5.485 0.01 5.485 -1 7 C-2.32 7 -3.64 7 -5 7 C-5.33 5.02 -5.66 3.04 -6 1 C-4.7934375 1.0309375 -4.7934375 1.0309375 -3.5625 1.0625 C-1.06645115 1.29633621 -1.06645115 1.29633621 0 0 Z " fill="#265FB9" transform="translate(505,348)"/>
<path d="M0 0 C0 1.98 0 3.96 0 6 C-1.98 6 -3.96 6 -6 6 C-6 4.35 -6 2.7 -6 1 C-1.125 0 -1.125 0 0 0 Z " fill="#1F6EC8" transform="translate(415,344)"/>
<path d="M0 0 C3.3 0 6.6 0 10 0 C10 0.99 10 1.98 10 3 C7.03 3 4.06 3 1 3 C0.67 2.01 0.34 1.02 0 0 Z " fill="#2068C2" transform="translate(446,348)"/>
<path d="M0 0 C2.31 0 4.62 0 7 0 C6.67 1.32 6.34 2.64 6 4 C3.69 4 1.38 4 -1 4 C-0.67 2.68 -0.34 1.36 0 0 Z " fill="#2253AE" transform="translate(323,352)"/>
<path d="M0 0 C0.625 1.8125 0.625 1.8125 1 4 C0.01 5.485 0.01 5.485 -1 7 C-7.15234375 6.4140625 -7.15234375 6.4140625 -9 6 C-9.33 5.34 -9.66 4.68 -10 4 C-9.34 3.34 -8.68 2.68 -8 2 C-8 2.66 -8 3.32 -8 4 C-4.535 3.505 -4.535 3.505 -1 3 C-0.67 2.01 -0.34 1.02 0 0 Z " fill="#2746A2" transform="translate(330,352)"/>
<path d="M0 0 C2.31 0 4.62 0 7 0 C5.515 2.475 5.515 2.475 4 5 C2.35 4.67 0.7 4.34 -1 4 C-0.67 2.68 -0.34 1.36 0 0 Z " fill="#2E9ADD" transform="translate(388,336)"/>
<path d="M0 0 C3.625 -0.1875 3.625 -0.1875 7 0 C7 0.99 7 1.98 7 3 C4.03 3 1.06 3 -2 3 C-1.34 2.01 -0.68 1.02 0 0 Z " fill="#2F9BDC" transform="translate(343,338)"/>
<path d="M0 0 C0.33 0.66 0.66 1.32 1 2 C1.66 2 2.32 2 3 2 C4.6875 3.1875 4.6875 3.1875 6 5 C5.6875 7.6875 5.6875 7.6875 5 10 C4.34 9.67 3.68 9.34 3 9 C3 8.34 3 7.68 3 7 C2.34 6.67 1.68 6.34 1 6 C1.33 5.34 1.66 4.68 2 4 C1.34 4 0.68 4 0 4 C0 2.68 0 1.36 0 0 Z " fill="#2851BC" transform="translate(384,277)"/>
<path d="M0 0 C1.65 0.33 3.3 0.66 5 1 C5 2.98 5 4.96 5 7 C2.125 7.125 2.125 7.125 -1 7 C-1.66 6.34 -2.32 5.68 -3 5 C-1.02 5 0.96 5 3 5 C3 3.68 3 2.36 3 1 C2.01 0.67 1.02 0.34 0 0 Z " fill="#2569C1" transform="translate(514,347)"/>
<path d="M0 0 C1.98 0 3.96 0 6 0 C6 1.32 6 2.64 6 4 C4.35 4 2.7 4 1 4 C0.67 2.68 0.34 1.36 0 0 Z " fill="#2C97DC" transform="translate(432,337)"/>
<path d="M0 0 C2.12508244 3.18762365 2.5020163 5.26512223 3 9 C2.01 9.33 1.02 9.66 0 10 C-0.66 7.03 -1.32 4.06 -2 1 C-1.34 0.67 -0.68 0.34 0 0 Z " fill="#C3D7F7" transform="translate(509,375)"/>
<path d="M0 0 C2.64 0 5.28 0 8 0 C8 0.99 8 1.98 8 3 C5.69 3 3.38 3 1 3 C0.67 2.01 0.34 1.02 0 0 Z " fill="#3098DC" transform="translate(324,340)"/>
<path d="M0 0 C2.31 0 4.62 0 7 0 C7 0.99 7 1.98 7 3 C4.69 3 2.38 3 0 3 C0 2.01 0 1.02 0 0 Z " fill="#2379CC" transform="translate(324,346)"/>
<path d="M0 0 C2.97 0.33 5.94 0.66 9 1 C9 1.66 9 2.32 9 3 C4.545 3.495 4.545 3.495 0 4 C0 2.68 0 1.36 0 0 Z " fill="#2F9DDD" transform="translate(446,337)"/>
<path d="M0 0 C2.64 0.33 5.28 0.66 8 1 C8 1.66 8 2.32 8 3 C5.69 3 3.38 3 1 3 C0.67 2.01 0.34 1.02 0 0 Z " fill="#2F9ADB" transform="translate(484,342)"/>
<path d="M0 0 C2.64 0 5.28 0 8 0 C8 0.99 8 1.98 8 3 C6.35 3.33 4.7 3.66 3 4 C3 3.34 3 2.68 3 2 C2.01 1.34 1.02 0.68 0 0 Z " fill="#513E97" transform="translate(396,264)"/>
<path d="M0 0 C0.66 0.33 1.32 0.66 2 1 C-0.20979308 3.81939117 -2.40062046 6.53058944 -5 9 C-4.5206753 4.68607774 -3.2542015 2.83430453 0 0 Z " fill="#1664E3" transform="translate(399,192)"/>
</svg>
